G75*
%MOIN*%
%OFA0B0*%
%FSLAX24Y24*%
%IPPOS*%
%LPD*%
%AMOC8*
5,1,8,0,0,1.08239X$1,22.5*
%
%ADD10R,0.0591X0.0591*%
%ADD11R,0.0512X0.0591*%
%ADD12R,0.3937X0.1575*%
%ADD13C,0.1181*%
%ADD14R,0.1000X0.2000*%
%ADD15C,0.0436*%
%ADD16C,0.0160*%
%ADD17C,0.0100*%
%ADD18C,0.0120*%
D10*
X018696Y003518D03*
X018696Y004393D03*
X020073Y004393D03*
X020073Y003518D03*
D11*
X024885Y003518D03*
X025634Y003518D03*
D12*
X028260Y003893D03*
X015760Y003893D03*
D13*
X015691Y003893D02*
X014510Y003893D01*
X028328Y003893D02*
X029510Y003893D01*
D14*
X023135Y005018D03*
X021760Y005018D03*
X021760Y020643D03*
X023153Y020643D03*
D15*
X026760Y004393D03*
X027260Y003893D03*
X027760Y003393D03*
X027760Y004393D03*
X026760Y003393D03*
X017260Y003393D03*
X016760Y003893D03*
X017260Y004393D03*
X016260Y004393D03*
X016260Y003393D03*
D16*
X015760Y003893D02*
X017760Y003893D01*
X018260Y004393D01*
X018696Y004393D01*
X018696Y003518D01*
X018696Y004393D02*
X018760Y004393D01*
X020073Y004393D02*
X020073Y003518D01*
X024885Y003518D01*
X025634Y003518D02*
X025885Y003518D01*
X026260Y003893D01*
X028260Y003893D01*
D17*
X023153Y020643D02*
X023153Y020787D01*
D18*
X023153Y020643D02*
X023260Y020537D01*
X023260Y019393D01*
X022760Y018893D01*
X022760Y006893D01*
X023260Y006393D01*
X023260Y004893D01*
X023135Y005018D01*
X021760Y005018D02*
X021760Y006393D01*
X022260Y006893D01*
X022260Y018893D01*
X021760Y019393D01*
X021760Y020643D01*
M02*
