G75*
%MOIN*%
%OFA0B0*%
%FSLAX24Y24*%
%IPPOS*%
%LPD*%
%AMOC8*
5,1,8,0,0,1.08239X$1,22.5*
%
%ADD10C,0.0120*%
%ADD11C,0.0000*%
%ADD12R,0.3937X0.1575*%
%ADD13C,0.1181*%
%ADD14C,0.0323*%
%ADD15C,0.0436*%
D10*
X003385Y002893D02*
X041630Y002893D01*
X041674Y002895D01*
X041717Y002901D01*
X041759Y002910D01*
X041801Y002923D01*
X041841Y002940D01*
X041880Y002960D01*
X041917Y002983D01*
X041951Y003010D01*
X041984Y003039D01*
X042013Y003072D01*
X042040Y003106D01*
X042063Y003143D01*
X042083Y003182D01*
X042100Y003222D01*
X042113Y003264D01*
X042122Y003306D01*
X042128Y003349D01*
X042130Y003393D01*
X042130Y041711D01*
X042129Y041711D02*
X042127Y041757D01*
X042121Y041802D01*
X042112Y041847D01*
X042099Y041890D01*
X042083Y041933D01*
X042062Y041974D01*
X042039Y042013D01*
X042013Y042050D01*
X041983Y042085D01*
X041951Y042117D01*
X041916Y042147D01*
X041879Y042173D01*
X041840Y042196D01*
X041799Y042217D01*
X041756Y042233D01*
X041713Y042246D01*
X041668Y042255D01*
X041623Y042261D01*
X041577Y042263D01*
X003381Y042263D01*
X003332Y042261D01*
X003284Y042255D01*
X003236Y042246D01*
X003189Y042233D01*
X003143Y042216D01*
X003099Y042195D01*
X003057Y042171D01*
X003016Y042144D01*
X002978Y042114D01*
X002942Y042081D01*
X002909Y042045D01*
X002879Y042007D01*
X002852Y041966D01*
X002828Y041924D01*
X002807Y041880D01*
X002790Y041834D01*
X002777Y041787D01*
X002768Y041739D01*
X002762Y041691D01*
X002760Y041642D01*
X002760Y003518D01*
X002762Y003469D01*
X002768Y003420D01*
X002777Y003372D01*
X002791Y003325D01*
X002808Y003279D01*
X002828Y003234D01*
X002852Y003191D01*
X002879Y003151D01*
X002910Y003112D01*
X002943Y003076D01*
X002979Y003043D01*
X003018Y003012D01*
X003058Y002985D01*
X003101Y002961D01*
X003146Y002941D01*
X003192Y002924D01*
X003239Y002910D01*
X003287Y002901D01*
X003336Y002895D01*
X003385Y002893D01*
D11*
X003130Y003893D02*
X003132Y003943D01*
X003138Y003993D01*
X003148Y004042D01*
X003162Y004090D01*
X003179Y004137D01*
X003200Y004182D01*
X003225Y004226D01*
X003253Y004267D01*
X003285Y004306D01*
X003319Y004343D01*
X003356Y004377D01*
X003396Y004407D01*
X003438Y004434D01*
X003482Y004458D01*
X003528Y004479D01*
X003575Y004495D01*
X003623Y004508D01*
X003673Y004517D01*
X003722Y004522D01*
X003773Y004523D01*
X003823Y004520D01*
X003872Y004513D01*
X003921Y004502D01*
X003969Y004487D01*
X004015Y004469D01*
X004060Y004447D01*
X004103Y004421D01*
X004144Y004392D01*
X004183Y004360D01*
X004219Y004325D01*
X004251Y004287D01*
X004281Y004247D01*
X004308Y004204D01*
X004331Y004160D01*
X004350Y004114D01*
X004366Y004066D01*
X004378Y004017D01*
X004386Y003968D01*
X004390Y003918D01*
X004390Y003868D01*
X004386Y003818D01*
X004378Y003769D01*
X004366Y003720D01*
X004350Y003672D01*
X004331Y003626D01*
X004308Y003582D01*
X004281Y003539D01*
X004251Y003499D01*
X004219Y003461D01*
X004183Y003426D01*
X004144Y003394D01*
X004103Y003365D01*
X004060Y003339D01*
X004015Y003317D01*
X003969Y003299D01*
X003921Y003284D01*
X003872Y003273D01*
X003823Y003266D01*
X003773Y003263D01*
X003722Y003264D01*
X003673Y003269D01*
X003623Y003278D01*
X003575Y003291D01*
X003528Y003307D01*
X003482Y003328D01*
X003438Y003352D01*
X003396Y003379D01*
X003356Y003409D01*
X003319Y003443D01*
X003285Y003480D01*
X003253Y003519D01*
X003225Y003560D01*
X003200Y003604D01*
X003179Y003649D01*
X003162Y003696D01*
X003148Y003744D01*
X003138Y003793D01*
X003132Y003843D01*
X003130Y003893D01*
X019261Y003518D02*
X019263Y003556D01*
X019269Y003595D01*
X019279Y003632D01*
X019292Y003668D01*
X019310Y003702D01*
X019330Y003735D01*
X019354Y003765D01*
X019381Y003792D01*
X019411Y003817D01*
X019442Y003839D01*
X019476Y003857D01*
X019512Y003871D01*
X019549Y003882D01*
X019587Y003889D01*
X019625Y003892D01*
X019664Y003891D01*
X019702Y003886D01*
X019740Y003877D01*
X019776Y003864D01*
X019811Y003848D01*
X019844Y003828D01*
X019875Y003805D01*
X019903Y003779D01*
X019928Y003750D01*
X019951Y003719D01*
X019970Y003685D01*
X019985Y003650D01*
X019997Y003613D01*
X020005Y003576D01*
X020009Y003537D01*
X020009Y003499D01*
X020005Y003460D01*
X019997Y003423D01*
X019985Y003386D01*
X019970Y003351D01*
X019951Y003317D01*
X019928Y003286D01*
X019903Y003257D01*
X019875Y003231D01*
X019844Y003208D01*
X019811Y003188D01*
X019776Y003172D01*
X019740Y003159D01*
X019702Y003150D01*
X019664Y003145D01*
X019625Y003144D01*
X019587Y003147D01*
X019549Y003154D01*
X019512Y003165D01*
X019476Y003179D01*
X019442Y003197D01*
X019411Y003219D01*
X019381Y003244D01*
X019354Y003271D01*
X019330Y003301D01*
X019310Y003334D01*
X019292Y003368D01*
X019279Y003404D01*
X019269Y003441D01*
X019263Y003480D01*
X019261Y003518D01*
X019261Y004393D02*
X019263Y004431D01*
X019269Y004470D01*
X019279Y004507D01*
X019292Y004543D01*
X019310Y004577D01*
X019330Y004610D01*
X019354Y004640D01*
X019381Y004667D01*
X019411Y004692D01*
X019442Y004714D01*
X019476Y004732D01*
X019512Y004746D01*
X019549Y004757D01*
X019587Y004764D01*
X019625Y004767D01*
X019664Y004766D01*
X019702Y004761D01*
X019740Y004752D01*
X019776Y004739D01*
X019811Y004723D01*
X019844Y004703D01*
X019875Y004680D01*
X019903Y004654D01*
X019928Y004625D01*
X019951Y004594D01*
X019970Y004560D01*
X019985Y004525D01*
X019997Y004488D01*
X020005Y004451D01*
X020009Y004412D01*
X020009Y004374D01*
X020005Y004335D01*
X019997Y004298D01*
X019985Y004261D01*
X019970Y004226D01*
X019951Y004192D01*
X019928Y004161D01*
X019903Y004132D01*
X019875Y004106D01*
X019844Y004083D01*
X019811Y004063D01*
X019776Y004047D01*
X019740Y004034D01*
X019702Y004025D01*
X019664Y004020D01*
X019625Y004019D01*
X019587Y004022D01*
X019549Y004029D01*
X019512Y004040D01*
X019476Y004054D01*
X019442Y004072D01*
X019411Y004094D01*
X019381Y004119D01*
X019354Y004146D01*
X019330Y004176D01*
X019310Y004209D01*
X019292Y004243D01*
X019279Y004279D01*
X019269Y004316D01*
X019263Y004355D01*
X019261Y004393D01*
X022051Y022578D02*
X022053Y022617D01*
X022059Y022656D01*
X022069Y022694D01*
X022082Y022731D01*
X022099Y022766D01*
X022119Y022800D01*
X022143Y022831D01*
X022170Y022860D01*
X022199Y022886D01*
X022231Y022909D01*
X022265Y022929D01*
X022301Y022945D01*
X022338Y022957D01*
X022377Y022966D01*
X022416Y022971D01*
X022455Y022972D01*
X022494Y022969D01*
X022533Y022962D01*
X022570Y022951D01*
X022607Y022937D01*
X022642Y022919D01*
X022675Y022898D01*
X022706Y022873D01*
X022734Y022846D01*
X022759Y022816D01*
X022781Y022783D01*
X022800Y022749D01*
X022815Y022713D01*
X022827Y022675D01*
X022835Y022637D01*
X022839Y022598D01*
X022839Y022558D01*
X022835Y022519D01*
X022827Y022481D01*
X022815Y022443D01*
X022800Y022407D01*
X022781Y022373D01*
X022759Y022340D01*
X022734Y022310D01*
X022706Y022283D01*
X022675Y022258D01*
X022642Y022237D01*
X022607Y022219D01*
X022570Y022205D01*
X022533Y022194D01*
X022494Y022187D01*
X022455Y022184D01*
X022416Y022185D01*
X022377Y022190D01*
X022338Y022199D01*
X022301Y022211D01*
X022265Y022227D01*
X022231Y022247D01*
X022199Y022270D01*
X022170Y022296D01*
X022143Y022325D01*
X022119Y022356D01*
X022099Y022390D01*
X022082Y022425D01*
X022069Y022462D01*
X022059Y022500D01*
X022053Y022539D01*
X022051Y022578D01*
X003130Y041393D02*
X003132Y041443D01*
X003138Y041493D01*
X003148Y041542D01*
X003162Y041590D01*
X003179Y041637D01*
X003200Y041682D01*
X003225Y041726D01*
X003253Y041767D01*
X003285Y041806D01*
X003319Y041843D01*
X003356Y041877D01*
X003396Y041907D01*
X003438Y041934D01*
X003482Y041958D01*
X003528Y041979D01*
X003575Y041995D01*
X003623Y042008D01*
X003673Y042017D01*
X003722Y042022D01*
X003773Y042023D01*
X003823Y042020D01*
X003872Y042013D01*
X003921Y042002D01*
X003969Y041987D01*
X004015Y041969D01*
X004060Y041947D01*
X004103Y041921D01*
X004144Y041892D01*
X004183Y041860D01*
X004219Y041825D01*
X004251Y041787D01*
X004281Y041747D01*
X004308Y041704D01*
X004331Y041660D01*
X004350Y041614D01*
X004366Y041566D01*
X004378Y041517D01*
X004386Y041468D01*
X004390Y041418D01*
X004390Y041368D01*
X004386Y041318D01*
X004378Y041269D01*
X004366Y041220D01*
X004350Y041172D01*
X004331Y041126D01*
X004308Y041082D01*
X004281Y041039D01*
X004251Y040999D01*
X004219Y040961D01*
X004183Y040926D01*
X004144Y040894D01*
X004103Y040865D01*
X004060Y040839D01*
X004015Y040817D01*
X003969Y040799D01*
X003921Y040784D01*
X003872Y040773D01*
X003823Y040766D01*
X003773Y040763D01*
X003722Y040764D01*
X003673Y040769D01*
X003623Y040778D01*
X003575Y040791D01*
X003528Y040807D01*
X003482Y040828D01*
X003438Y040852D01*
X003396Y040879D01*
X003356Y040909D01*
X003319Y040943D01*
X003285Y040980D01*
X003253Y041019D01*
X003225Y041060D01*
X003200Y041104D01*
X003179Y041149D01*
X003162Y041196D01*
X003148Y041244D01*
X003138Y041293D01*
X003132Y041343D01*
X003130Y041393D01*
X040630Y041393D02*
X040632Y041443D01*
X040638Y041493D01*
X040648Y041542D01*
X040662Y041590D01*
X040679Y041637D01*
X040700Y041682D01*
X040725Y041726D01*
X040753Y041767D01*
X040785Y041806D01*
X040819Y041843D01*
X040856Y041877D01*
X040896Y041907D01*
X040938Y041934D01*
X040982Y041958D01*
X041028Y041979D01*
X041075Y041995D01*
X041123Y042008D01*
X041173Y042017D01*
X041222Y042022D01*
X041273Y042023D01*
X041323Y042020D01*
X041372Y042013D01*
X041421Y042002D01*
X041469Y041987D01*
X041515Y041969D01*
X041560Y041947D01*
X041603Y041921D01*
X041644Y041892D01*
X041683Y041860D01*
X041719Y041825D01*
X041751Y041787D01*
X041781Y041747D01*
X041808Y041704D01*
X041831Y041660D01*
X041850Y041614D01*
X041866Y041566D01*
X041878Y041517D01*
X041886Y041468D01*
X041890Y041418D01*
X041890Y041368D01*
X041886Y041318D01*
X041878Y041269D01*
X041866Y041220D01*
X041850Y041172D01*
X041831Y041126D01*
X041808Y041082D01*
X041781Y041039D01*
X041751Y040999D01*
X041719Y040961D01*
X041683Y040926D01*
X041644Y040894D01*
X041603Y040865D01*
X041560Y040839D01*
X041515Y040817D01*
X041469Y040799D01*
X041421Y040784D01*
X041372Y040773D01*
X041323Y040766D01*
X041273Y040763D01*
X041222Y040764D01*
X041173Y040769D01*
X041123Y040778D01*
X041075Y040791D01*
X041028Y040807D01*
X040982Y040828D01*
X040938Y040852D01*
X040896Y040879D01*
X040856Y040909D01*
X040819Y040943D01*
X040785Y040980D01*
X040753Y041019D01*
X040725Y041060D01*
X040700Y041104D01*
X040679Y041149D01*
X040662Y041196D01*
X040648Y041244D01*
X040638Y041293D01*
X040632Y041343D01*
X040630Y041393D01*
X040630Y003893D02*
X040632Y003943D01*
X040638Y003993D01*
X040648Y004042D01*
X040662Y004090D01*
X040679Y004137D01*
X040700Y004182D01*
X040725Y004226D01*
X040753Y004267D01*
X040785Y004306D01*
X040819Y004343D01*
X040856Y004377D01*
X040896Y004407D01*
X040938Y004434D01*
X040982Y004458D01*
X041028Y004479D01*
X041075Y004495D01*
X041123Y004508D01*
X041173Y004517D01*
X041222Y004522D01*
X041273Y004523D01*
X041323Y004520D01*
X041372Y004513D01*
X041421Y004502D01*
X041469Y004487D01*
X041515Y004469D01*
X041560Y004447D01*
X041603Y004421D01*
X041644Y004392D01*
X041683Y004360D01*
X041719Y004325D01*
X041751Y004287D01*
X041781Y004247D01*
X041808Y004204D01*
X041831Y004160D01*
X041850Y004114D01*
X041866Y004066D01*
X041878Y004017D01*
X041886Y003968D01*
X041890Y003918D01*
X041890Y003868D01*
X041886Y003818D01*
X041878Y003769D01*
X041866Y003720D01*
X041850Y003672D01*
X041831Y003626D01*
X041808Y003582D01*
X041781Y003539D01*
X041751Y003499D01*
X041719Y003461D01*
X041683Y003426D01*
X041644Y003394D01*
X041603Y003365D01*
X041560Y003339D01*
X041515Y003317D01*
X041469Y003299D01*
X041421Y003284D01*
X041372Y003273D01*
X041323Y003266D01*
X041273Y003263D01*
X041222Y003264D01*
X041173Y003269D01*
X041123Y003278D01*
X041075Y003291D01*
X041028Y003307D01*
X040982Y003328D01*
X040938Y003352D01*
X040896Y003379D01*
X040856Y003409D01*
X040819Y003443D01*
X040785Y003480D01*
X040753Y003519D01*
X040725Y003560D01*
X040700Y003604D01*
X040679Y003649D01*
X040662Y003696D01*
X040648Y003744D01*
X040638Y003793D01*
X040632Y003843D01*
X040630Y003893D01*
D12*
X028260Y003893D03*
X015760Y003893D03*
D13*
X015691Y003893D02*
X014510Y003893D01*
X028328Y003893D02*
X029510Y003893D01*
D14*
X039260Y003893D01*
X039760Y004393D01*
X039260Y004893D01*
X031260Y004893D01*
X030760Y005393D01*
X030760Y005893D01*
X041260Y005893D01*
X041260Y006893D01*
X023260Y006893D01*
X023260Y007893D01*
X041260Y007893D01*
X041260Y008893D01*
X023260Y008893D01*
X023260Y009893D01*
X041260Y009893D01*
X041260Y010893D01*
X023260Y010893D01*
X023260Y011893D01*
X041260Y011893D01*
X041260Y012893D01*
X023260Y012893D01*
X023260Y013893D01*
X041260Y013893D01*
X041260Y014893D01*
X023260Y014893D01*
X023260Y015893D01*
X041260Y015893D01*
X041260Y016893D01*
X023260Y016893D01*
X023260Y017893D01*
X041260Y017893D01*
X041260Y018893D01*
X023260Y018893D01*
X023260Y019893D01*
X041260Y019893D01*
X041260Y020893D01*
X023260Y020893D01*
X023260Y021393D01*
X023760Y021893D01*
X041260Y021893D01*
X041260Y022893D01*
X023760Y022893D01*
X023260Y023393D01*
X023260Y023893D01*
X041260Y023893D01*
X041260Y024893D01*
X023260Y024893D01*
X023260Y025893D01*
X041260Y025893D01*
X041260Y026893D01*
X023260Y026893D01*
X023260Y027893D01*
X041260Y027893D01*
X041260Y028893D01*
X023260Y028893D01*
X023260Y029893D01*
X041260Y029893D01*
X041260Y030893D01*
X023260Y030893D01*
X023260Y031893D01*
X041260Y031893D01*
X041260Y032893D01*
X023260Y032893D01*
X023260Y033893D01*
X041260Y033893D01*
X041260Y034893D01*
X023260Y034893D01*
X023260Y035893D01*
X041260Y035893D01*
X041260Y036893D01*
X023260Y036893D01*
X023260Y037893D01*
X041260Y037893D01*
X041260Y038893D01*
X023260Y038893D01*
X023260Y039893D01*
X040760Y039893D01*
X039760Y040893D01*
X005260Y040893D01*
X004260Y039893D01*
X021760Y039893D01*
X021760Y038893D01*
X003760Y038893D01*
X003760Y037893D01*
X021760Y037893D01*
X021760Y036893D01*
X003760Y036893D01*
X003760Y035893D01*
X021760Y035893D01*
X021760Y034893D01*
X003760Y034893D01*
X003760Y033893D01*
X021760Y033893D01*
X021760Y032893D01*
X003760Y032893D01*
X003760Y031893D01*
X021760Y031893D01*
X021760Y030893D01*
X003760Y030893D01*
X003760Y029893D01*
X021760Y029893D01*
X021760Y028893D01*
X003760Y028893D01*
X003760Y027893D01*
X021760Y027893D01*
X021760Y026893D01*
X003760Y026893D01*
X003760Y025893D01*
X021760Y025893D01*
X021760Y024893D01*
X003760Y024893D01*
X003760Y023893D01*
X021760Y023893D01*
X021760Y023393D01*
X021260Y022893D01*
X003760Y022893D01*
X003760Y021893D01*
X021260Y021893D01*
X021760Y021393D01*
X021760Y020893D01*
X003760Y020893D01*
X003760Y019893D01*
X021760Y019893D01*
X021760Y018893D01*
X003760Y018893D01*
X003760Y017893D01*
X021635Y017893D01*
X021760Y017768D01*
X021760Y016893D01*
X003760Y016893D01*
X003760Y015893D01*
X021760Y015893D01*
X021760Y014893D01*
X003760Y014893D01*
X003760Y013893D01*
X021760Y013893D01*
X021760Y012893D01*
X003760Y012893D01*
X003760Y011893D01*
X021760Y011893D01*
X021760Y010893D01*
X003760Y010893D01*
X003760Y009893D01*
X021760Y009893D01*
X021760Y008893D01*
X003760Y008893D01*
X003760Y007893D01*
X021760Y007893D01*
X021760Y006893D01*
X003760Y006893D01*
X003760Y005893D01*
X013260Y005893D01*
X013260Y005393D01*
X012760Y004893D01*
X005760Y004893D01*
X005260Y004393D01*
X005760Y003893D01*
X014510Y003893D01*
X015760Y003893D01*
X028260Y003893D02*
X029510Y003893D01*
D15*
X028760Y003393D03*
X028260Y003893D03*
X028760Y004393D03*
X027760Y004393D03*
X027260Y003893D03*
X027760Y003393D03*
X026760Y003393D03*
X026760Y004393D03*
X017260Y004393D03*
X016760Y003893D03*
X017260Y003393D03*
X016260Y003393D03*
X015760Y003893D03*
X015260Y003393D03*
X015260Y004393D03*
X016260Y004393D03*
M02*
