G75*
%MOIN*%
%OFA0B0*%
%FSLAX24Y24*%
%IPPOS*%
%LPD*%
%AMOC8*
5,1,8,0,0,1.08239X$1,22.5*
%
%ADD10R,0.0591X0.0591*%
%ADD11R,0.0512X0.0591*%
%ADD12R,0.3937X0.1575*%
%ADD13C,0.1181*%
%ADD14R,0.1000X0.2000*%
%ADD15C,0.0436*%
%ADD16C,0.0160*%
%ADD17C,0.0100*%
%ADD18C,0.0120*%
%ADD19C,0.0269*%
D10*
X018946Y003518D03*
X018946Y004393D03*
X020323Y004393D03*
X020323Y003518D03*
D11*
X024510Y003518D03*
X025259Y003518D03*
X022819Y023706D03*
X022071Y023706D03*
D12*
X028260Y003893D03*
X015760Y003893D03*
D13*
X015691Y003893D02*
X014510Y003893D01*
X028328Y003893D02*
X029510Y003893D01*
D14*
X023135Y005018D03*
X021760Y005018D03*
X021760Y020643D03*
X023153Y020643D03*
D15*
X026760Y004393D03*
X027260Y003893D03*
X027760Y003393D03*
X028260Y003893D03*
X028760Y003393D03*
X028760Y004393D03*
X027760Y004393D03*
X026760Y003393D03*
X017260Y003393D03*
X016760Y003893D03*
X017260Y004393D03*
X016260Y004393D03*
X015760Y003893D03*
X015260Y003393D03*
X015260Y004393D03*
X016260Y003393D03*
D16*
X015760Y003893D02*
X017760Y003893D01*
X018260Y004393D01*
X018946Y004393D01*
X018946Y003518D01*
X018946Y004393D02*
X018760Y004393D01*
X020323Y004393D02*
X020323Y003518D01*
X024510Y003518D01*
X025259Y003518D02*
X025885Y003518D01*
X026260Y003893D01*
X028260Y003893D01*
D17*
X023153Y020643D02*
X023153Y020787D01*
D18*
X023153Y021912D01*
X023510Y022268D01*
X023510Y023015D01*
X022819Y023706D01*
X022071Y023706D02*
X021322Y022957D01*
X021322Y022268D01*
X021760Y021831D01*
X021760Y020643D01*
X021760Y019393D01*
X022260Y018893D01*
X022260Y006893D01*
X021760Y006393D01*
X021760Y005018D01*
X023135Y005018D02*
X023260Y004893D01*
X023260Y006393D01*
X022760Y006893D01*
X022760Y018893D01*
X023260Y019393D01*
X023260Y020537D01*
X023153Y020643D01*
D19*
X005404Y004574D02*
X005524Y004126D01*
X005524Y004088D01*
X012656Y004088D01*
X012656Y004830D01*
X012734Y005119D01*
X012883Y005377D01*
X013094Y005589D01*
X013353Y005738D01*
X013642Y005815D01*
X017877Y005815D01*
X018166Y005738D01*
X018182Y005729D01*
X018212Y005746D01*
X018501Y005823D01*
X019142Y005823D01*
X019436Y005902D01*
X019833Y005902D01*
X020125Y005824D01*
X020125Y006168D01*
X020202Y006456D01*
X020352Y006715D01*
X020563Y006926D01*
X020750Y007034D01*
X020804Y007127D01*
X021065Y007388D01*
X021065Y018398D01*
X021026Y018437D01*
X020898Y018566D01*
X020822Y018586D01*
X020563Y018735D01*
X020352Y018947D01*
X020202Y019205D01*
X020125Y019494D01*
X020125Y021793D01*
X020169Y021957D01*
X020127Y022111D01*
X020127Y023115D01*
X020209Y023418D01*
X020366Y023691D01*
X020588Y023913D01*
X020588Y023913D01*
X020680Y024005D01*
X020680Y024150D01*
X020757Y024439D01*
X020907Y024698D01*
X021118Y024909D01*
X021377Y025058D01*
X021665Y025136D01*
X023224Y025136D01*
X023512Y025058D01*
X023771Y024909D01*
X023982Y024698D01*
X024132Y024439D01*
X024209Y024150D01*
X024209Y024005D01*
X024465Y023748D01*
X024623Y023476D01*
X024704Y023172D01*
X024704Y022111D01*
X024701Y022098D01*
X024711Y022081D01*
X024788Y021793D01*
X024788Y019494D01*
X024711Y019205D01*
X024561Y018947D01*
X024350Y018735D01*
X024211Y018655D01*
X023954Y018398D01*
X023954Y007388D01*
X024215Y007127D01*
X024331Y006926D01*
X024542Y006715D01*
X024692Y006456D01*
X024769Y006168D01*
X024769Y004948D01*
X025188Y004948D01*
X025234Y005119D01*
X025383Y005377D01*
X025594Y005589D01*
X025853Y005738D01*
X026142Y005815D01*
X030377Y005815D01*
X030666Y005738D01*
X030925Y005589D01*
X031136Y005377D01*
X031285Y005119D01*
X031363Y004830D01*
X031363Y004088D01*
X039495Y004088D01*
X039495Y004126D01*
X039615Y004574D01*
X039848Y004977D01*
X040176Y005305D01*
X040578Y005538D01*
X040935Y005633D01*
X040935Y039653D01*
X040578Y039749D01*
X040176Y039981D01*
X039848Y040310D01*
X039615Y040712D01*
X039520Y041069D01*
X005499Y041069D01*
X005404Y040712D01*
X005172Y040310D01*
X004843Y039981D01*
X004441Y039749D01*
X003992Y039629D01*
X003954Y039629D01*
X003954Y005658D01*
X003992Y005658D01*
X004441Y005538D01*
X004843Y005305D01*
X005172Y004977D01*
X005404Y004574D01*
X005447Y004413D02*
X012656Y004413D01*
X012640Y004088D02*
X012640Y041069D01*
X011880Y041069D02*
X011880Y004088D01*
X011120Y004088D02*
X011120Y041069D01*
X010360Y041069D02*
X010360Y004088D01*
X009600Y004088D02*
X009600Y041069D01*
X008840Y041069D02*
X008840Y004088D01*
X008080Y004088D02*
X008080Y041069D01*
X007320Y041069D02*
X007320Y004088D01*
X006560Y004088D02*
X006560Y041069D01*
X005800Y041069D02*
X005800Y004088D01*
X005040Y005109D02*
X005040Y040178D01*
X004995Y040133D02*
X040024Y040133D01*
X040000Y040158D02*
X040000Y005129D01*
X040044Y005173D02*
X031254Y005173D01*
X030880Y005615D02*
X030880Y041069D01*
X031640Y041069D02*
X031640Y004088D01*
X031363Y004413D02*
X039572Y004413D01*
X039240Y004088D02*
X039240Y041069D01*
X039567Y040893D02*
X005452Y040893D01*
X004280Y039706D02*
X004280Y005581D01*
X003954Y005933D02*
X020125Y005933D01*
X020240Y006521D02*
X020240Y019141D01*
X020445Y018853D02*
X003954Y018853D01*
X003954Y019613D02*
X020125Y019613D01*
X020125Y020373D02*
X003954Y020373D01*
X003954Y021133D02*
X020125Y021133D01*
X020152Y021893D02*
X003954Y021893D01*
X003954Y022653D02*
X020127Y022653D01*
X020207Y023413D02*
X003954Y023413D01*
X003954Y024173D02*
X020686Y024173D01*
X021000Y024791D02*
X021000Y041069D01*
X021760Y041069D02*
X021760Y025136D01*
X022520Y025136D02*
X022520Y041069D01*
X023280Y041069D02*
X023280Y025121D01*
X023729Y024933D02*
X040935Y024933D01*
X040935Y024173D02*
X024203Y024173D01*
X024040Y024599D02*
X024040Y041069D01*
X024800Y041069D02*
X024800Y004948D01*
X024769Y005173D02*
X025265Y005173D01*
X025560Y005554D02*
X025560Y041069D01*
X026320Y041069D02*
X026320Y005815D01*
X027080Y005815D02*
X027080Y041069D01*
X027840Y041069D02*
X027840Y005815D01*
X028600Y005815D02*
X028600Y041069D01*
X029360Y041069D02*
X029360Y005815D01*
X030120Y005815D02*
X030120Y041069D01*
X032400Y041069D02*
X032400Y004088D01*
X033160Y004088D02*
X033160Y041069D01*
X033920Y041069D02*
X033920Y004088D01*
X034680Y004088D02*
X034680Y041069D01*
X035440Y041069D02*
X035440Y004088D01*
X036200Y004088D02*
X036200Y041069D01*
X036960Y041069D02*
X036960Y004088D01*
X037720Y004088D02*
X037720Y041069D01*
X038480Y041069D02*
X038480Y004088D01*
X040760Y005586D02*
X040760Y039700D01*
X040935Y039373D02*
X003954Y039373D01*
X003954Y038613D02*
X040935Y038613D01*
X040935Y037853D02*
X003954Y037853D01*
X003954Y037093D02*
X040935Y037093D01*
X040935Y036333D02*
X003954Y036333D01*
X003954Y035573D02*
X040935Y035573D01*
X040935Y034813D02*
X003954Y034813D01*
X003954Y034053D02*
X040935Y034053D01*
X040935Y033293D02*
X003954Y033293D01*
X003954Y032533D02*
X040935Y032533D01*
X040935Y031773D02*
X003954Y031773D01*
X003954Y031013D02*
X040935Y031013D01*
X040935Y030253D02*
X003954Y030253D01*
X003954Y029493D02*
X040935Y029493D01*
X040935Y028733D02*
X003954Y028733D01*
X003954Y027973D02*
X040935Y027973D01*
X040935Y027213D02*
X003954Y027213D01*
X003954Y026453D02*
X040935Y026453D01*
X040935Y025693D02*
X003954Y025693D01*
X003954Y024933D02*
X021160Y024933D01*
X020240Y023472D02*
X020240Y041069D01*
X019480Y041069D02*
X019480Y005902D01*
X018720Y005823D02*
X018720Y041069D01*
X017960Y041069D02*
X017960Y005793D01*
X017200Y005815D02*
X017200Y041069D01*
X016440Y041069D02*
X016440Y005815D01*
X015680Y005815D02*
X015680Y041069D01*
X014920Y041069D02*
X014920Y005815D01*
X014160Y005815D02*
X014160Y041069D01*
X013400Y041069D02*
X013400Y005750D01*
X012765Y005173D02*
X004975Y005173D01*
X003954Y006693D02*
X020339Y006693D01*
X021000Y007323D02*
X021000Y018464D01*
X021065Y018093D02*
X003954Y018093D01*
X003954Y017333D02*
X021065Y017333D01*
X021065Y016573D02*
X003954Y016573D01*
X003954Y015813D02*
X021065Y015813D01*
X021065Y015053D02*
X003954Y015053D01*
X003954Y014293D02*
X021065Y014293D01*
X021065Y013533D02*
X003954Y013533D01*
X003954Y012773D02*
X021065Y012773D01*
X021065Y012013D02*
X003954Y012013D01*
X003954Y011253D02*
X021065Y011253D01*
X021065Y010493D02*
X003954Y010493D01*
X003954Y009733D02*
X021065Y009733D01*
X021065Y008973D02*
X003954Y008973D01*
X003954Y008213D02*
X021065Y008213D01*
X021065Y007453D02*
X003954Y007453D01*
X023954Y007453D02*
X040935Y007453D01*
X040935Y006693D02*
X024555Y006693D01*
X024769Y005933D02*
X040935Y005933D01*
X040935Y008213D02*
X023954Y008213D01*
X023954Y008973D02*
X040935Y008973D01*
X040935Y009733D02*
X023954Y009733D01*
X023954Y010493D02*
X040935Y010493D01*
X040935Y011253D02*
X023954Y011253D01*
X023954Y012013D02*
X040935Y012013D01*
X040935Y012773D02*
X023954Y012773D01*
X023954Y013533D02*
X040935Y013533D01*
X040935Y014293D02*
X023954Y014293D01*
X023954Y015053D02*
X040935Y015053D01*
X040935Y015813D02*
X023954Y015813D01*
X023954Y016573D02*
X040935Y016573D01*
X040935Y017333D02*
X023954Y017333D01*
X023954Y018093D02*
X040935Y018093D01*
X040935Y018853D02*
X024468Y018853D01*
X024040Y018484D02*
X024040Y007303D01*
X024788Y019613D02*
X040935Y019613D01*
X040935Y020373D02*
X024788Y020373D01*
X024788Y021133D02*
X040935Y021133D01*
X040935Y021893D02*
X024761Y021893D01*
X024704Y022653D02*
X040935Y022653D01*
X040935Y023413D02*
X024640Y023413D01*
M02*
