G75*
%MOIN*%
%OFA0B0*%
%FSLAX24Y24*%
%IPPOS*%
%LPD*%
%AMOC8*
5,1,8,0,0,1.08239X$1,22.5*
%
%ADD10C,0.0050*%
%ADD11C,0.0060*%
%ADD12R,0.0167X0.0128*%
%ADD13C,0.0040*%
%ADD14R,0.0082X0.0009*%
%ADD15R,0.0164X0.0009*%
%ADD16R,0.0027X0.0009*%
%ADD17R,0.0036X0.0009*%
%ADD18R,0.0146X0.0009*%
%ADD19R,0.0046X0.0009*%
%ADD20R,0.0037X0.0009*%
%ADD21R,0.0128X0.0009*%
%ADD22R,0.0192X0.0009*%
%ADD23R,0.0046X0.0009*%
%ADD24R,0.0036X0.0009*%
%ADD25R,0.0055X0.0009*%
%ADD26R,0.0173X0.0009*%
%ADD27R,0.0064X0.0009*%
%ADD28R,0.0155X0.0009*%
%ADD29R,0.0192X0.0009*%
%ADD30R,0.0055X0.0009*%
%ADD31R,0.0064X0.0009*%
%ADD32R,0.0173X0.0009*%
%ADD33R,0.0055X0.0009*%
%ADD34R,0.0183X0.0009*%
%ADD35R,0.0201X0.0009*%
%ADD36R,0.0064X0.0009*%
%ADD37R,0.0073X0.0009*%
%ADD38R,0.0182X0.0009*%
%ADD39R,0.0082X0.0009*%
%ADD40R,0.0073X0.0009*%
%ADD41R,0.0183X0.0009*%
%ADD42R,0.0046X0.0009*%
%ADD43R,0.0055X0.0009*%
%ADD44R,0.0055X0.0009*%
%ADD45R,0.0082X0.0009*%
%ADD46R,0.0173X0.0009*%
%ADD47R,0.0037X0.0009*%
%ADD48R,0.0155X0.0009*%
%ADD49R,0.0091X0.0009*%
%ADD50R,0.0055X0.0009*%
%ADD51R,0.0091X0.0009*%
%ADD52R,0.0064X0.0009*%
%ADD53R,0.0100X0.0009*%
%ADD54R,0.0109X0.0009*%
%ADD55R,0.0009X0.0009*%
%ADD56R,0.0155X0.0009*%
%ADD57R,0.0219X0.0009*%
%ADD58R,0.0064X0.0009*%
%ADD59R,0.0219X0.0009*%
%ADD60R,0.0046X0.0009*%
%ADD61R,0.0183X0.0009*%
%ADD62R,0.0192X0.0009*%
%ADD63R,0.0219X0.0009*%
%ADD64R,0.0046X0.0009*%
%ADD65R,0.0027X0.0009*%
%ADD66R,0.0110X0.0009*%
%ADD67R,0.0110X0.0009*%
%ADD68R,0.0119X0.0009*%
%ADD69R,0.0064X0.0009*%
%ADD70R,0.0055X0.0009*%
%ADD71R,0.0055X0.0009*%
%ADD72R,0.0046X0.0009*%
%ADD73R,0.0091X0.0009*%
%ADD74R,0.0100X0.0009*%
%ADD75R,0.0073X0.0009*%
%ADD76R,0.0073X0.0009*%
%ADD77R,0.0146X0.0009*%
%ADD78R,0.0128X0.0009*%
%ADD79R,0.0182X0.0009*%
%ADD80R,0.0119X0.0009*%
%ADD81R,0.0137X0.0009*%
%ADD82R,0.0100X0.0009*%
%ADD83R,0.0027X0.0009*%
%ADD84R,0.0009X0.0009*%
%ADD85R,0.0037X0.0009*%
%ADD86R,0.0027X0.0009*%
%ADD87R,0.0027X0.0009*%
%ADD88R,0.0036X0.0009*%
%ADD89R,0.0027X0.0009*%
%ADD90R,0.0036X0.0009*%
%ADD91R,0.0210X0.0009*%
%ADD92R,0.0283X0.0009*%
%ADD93R,0.0310X0.0009*%
%ADD94R,0.0037X0.0009*%
%ADD95R,0.0027X0.0009*%
%ADD96R,0.0128X0.0009*%
%ADD97R,0.0018X0.0009*%
%ADD98R,0.0274X0.0009*%
%ADD99R,0.0338X0.0009*%
%ADD100R,0.0392X0.0009*%
%ADD101R,0.0018X0.0009*%
%ADD102R,0.0119X0.0009*%
%ADD103R,0.0091X0.0009*%
%ADD104R,0.0082X0.0009*%
%ADD105R,0.0109X0.0009*%
%ADD106R,0.0027X0.0009*%
%ADD107R,0.0046X0.0009*%
%ADD108R,0.0146X0.0009*%
%ADD109R,0.0164X0.0009*%
%ADD110R,0.0018X0.0009*%
%ADD111R,0.0018X0.0009*%
%ADD112R,0.0018X0.0009*%
%ADD113R,0.0064X0.0009*%
%ADD114R,0.0155X0.0009*%
%ADD115R,0.0137X0.0009*%
%ADD116R,0.0018X0.0009*%
%ADD117R,0.0146X0.0009*%
%ADD118R,0.0164X0.0009*%
%ADD119R,0.0046X0.0009*%
%ADD120R,0.0329X0.0009*%
%ADD121R,0.0265X0.0009*%
%ADD122R,0.0064X0.0009*%
%ADD123R,0.0100X0.0009*%
%ADD124R,0.1341X0.0009*%
%ADD125R,0.1305X0.0009*%
%ADD126R,0.1278X0.0009*%
%ADD127R,0.1214X0.0009*%
%ADD128C,0.0059*%
%ADD129R,0.0033X0.0017*%
%ADD130R,0.0017X0.0017*%
%ADD131R,0.0067X0.0017*%
%ADD132R,0.0017X0.0017*%
%ADD133R,0.0017X0.0017*%
%ADD134R,0.0017X0.0017*%
%ADD135R,0.0033X0.0017*%
%ADD136R,0.0033X0.0017*%
%ADD137R,0.0017X0.0017*%
%ADD138R,0.0017X0.0017*%
%ADD139R,0.0033X0.0017*%
%ADD140R,0.0017X0.0017*%
%ADD141R,0.0017X0.0017*%
%ADD142R,0.0050X0.0017*%
%ADD143R,0.0083X0.0017*%
%ADD144R,0.0200X0.0017*%
%ADD145R,0.0317X0.0017*%
%ADD146R,0.0117X0.0017*%
%ADD147R,0.0167X0.0017*%
%ADD148R,0.0033X0.0017*%
%ADD149R,0.0050X0.0017*%
%ADD150R,0.0033X0.0017*%
%ADD151R,0.0067X0.0017*%
%ADD152R,0.0150X0.0017*%
%ADD153R,0.0450X0.0017*%
%ADD154R,0.0267X0.0017*%
%ADD155R,0.0050X0.0017*%
%ADD156R,0.0283X0.0017*%
%ADD157R,0.0483X0.0017*%
%ADD158R,0.0367X0.0017*%
%ADD159R,0.0183X0.0017*%
%ADD160R,0.0133X0.0017*%
%ADD161R,0.0183X0.0017*%
%ADD162R,0.0067X0.0017*%
%ADD163R,0.0350X0.0017*%
%ADD164R,0.0083X0.0017*%
%ADD165R,0.0483X0.0017*%
%ADD166R,0.0417X0.0017*%
%ADD167R,0.0250X0.0017*%
%ADD168R,0.0050X0.0017*%
%ADD169R,0.0250X0.0017*%
%ADD170R,0.0267X0.0017*%
%ADD171R,0.0150X0.0017*%
%ADD172R,0.0150X0.0017*%
%ADD173R,0.0100X0.0017*%
%ADD174R,0.0100X0.0017*%
%ADD175R,0.0083X0.0017*%
%ADD176R,0.0083X0.0017*%
%ADD177R,0.0400X0.0017*%
%ADD178R,0.0217X0.0017*%
%ADD179R,0.0050X0.0017*%
%ADD180R,0.0117X0.0017*%
%ADD181R,0.0100X0.0017*%
%ADD182R,0.0100X0.0017*%
%ADD183R,0.0067X0.0017*%
%ADD184R,0.0117X0.0017*%
%ADD185R,0.0067X0.0017*%
%ADD186R,0.0133X0.0017*%
%ADD187R,0.0067X0.0017*%
%ADD188R,0.0067X0.0017*%
%ADD189R,0.0150X0.0017*%
%ADD190R,0.0033X0.0017*%
%ADD191R,0.0050X0.0017*%
%ADD192R,0.0083X0.0017*%
%ADD193R,0.0050X0.0017*%
%ADD194R,0.0350X0.0017*%
%ADD195R,0.0400X0.0017*%
%ADD196R,0.0450X0.0017*%
%ADD197R,0.0083X0.0017*%
%ADD198R,0.0467X0.0017*%
%ADD199R,0.0050X0.0017*%
%ADD200R,0.0317X0.0017*%
%ADD201R,0.0317X0.0017*%
%ADD202R,0.0317X0.0017*%
%ADD203R,0.0100X0.0017*%
%ADD204R,0.0150X0.0017*%
%ADD205R,0.0233X0.0017*%
%ADD206R,0.0217X0.0017*%
%ADD207R,0.0233X0.0017*%
%ADD208R,0.0300X0.0017*%
%ADD209R,0.0083X0.0017*%
%ADD210R,0.0133X0.0017*%
%ADD211R,0.0167X0.0017*%
%ADD212R,0.0183X0.0017*%
%ADD213R,0.0183X0.0017*%
%ADD214R,0.0167X0.0017*%
%ADD215R,0.0133X0.0017*%
%ADD216R,0.0033X0.0017*%
%ADD217R,0.0317X0.0017*%
%ADD218R,0.0250X0.0017*%
%ADD219R,0.0217X0.0017*%
%ADD220R,0.0583X0.0017*%
%ADD221R,0.0417X0.0017*%
%ADD222R,0.0600X0.0017*%
%ADD223R,0.0367X0.0017*%
%ADD224R,0.0467X0.0017*%
%ADD225R,0.0567X0.0017*%
%ADD226R,0.0267X0.0017*%
%ADD227R,0.0183X0.0017*%
%ADD228R,0.0217X0.0017*%
%ADD229R,0.0133X0.0017*%
%ADD230R,0.0017X0.0017*%
%ADD231R,0.5702X0.0017*%
%ADD232R,0.5804X0.0017*%
%ADD233R,0.5838X0.0017*%
%ADD234R,0.5872X0.0017*%
%ADD235R,0.5872X0.0017*%
%ADD236R,0.5906X0.0017*%
%ADD237R,0.5906X0.0017*%
%ADD238R,0.5906X0.0017*%
%ADD239R,0.2444X0.0017*%
%ADD240R,0.2036X0.0017*%
%ADD241R,0.1069X0.0017*%
%ADD242R,0.2376X0.0017*%
%ADD243R,0.1833X0.0017*%
%ADD244R,0.0967X0.0017*%
%ADD245R,0.0730X0.0017*%
%ADD246R,0.0322X0.0017*%
%ADD247R,0.0577X0.0017*%
%ADD248R,0.0136X0.0017*%
%ADD249R,0.0289X0.0017*%
%ADD250R,0.0628X0.0017*%
%ADD251R,0.0899X0.0017*%
%ADD252R,0.0543X0.0017*%
%ADD253R,0.0102X0.0017*%
%ADD254R,0.0560X0.0017*%
%ADD255R,0.0865X0.0017*%
%ADD256R,0.0713X0.0017*%
%ADD257R,0.0305X0.0017*%
%ADD258R,0.0492X0.0017*%
%ADD259R,0.0085X0.0017*%
%ADD260R,0.0289X0.0017*%
%ADD261R,0.0526X0.0017*%
%ADD262R,0.0831X0.0017*%
%ADD263R,0.0713X0.0017*%
%ADD264R,0.0288X0.0017*%
%ADD265R,0.0475X0.0017*%
%ADD266R,0.0068X0.0017*%
%ADD267R,0.0526X0.0017*%
%ADD268R,0.0815X0.0017*%
%ADD269R,0.0458X0.0017*%
%ADD270R,0.0034X0.0017*%
%ADD271R,0.0798X0.0017*%
%ADD272R,0.0713X0.0017*%
%ADD273R,0.0288X0.0017*%
%ADD274R,0.0424X0.0017*%
%ADD275R,0.0034X0.0017*%
%ADD276R,0.0289X0.0017*%
%ADD277R,0.0526X0.0017*%
%ADD278R,0.0781X0.0017*%
%ADD279R,0.0696X0.0017*%
%ADD280R,0.0271X0.0017*%
%ADD281R,0.0407X0.0017*%
%ADD282R,0.0017X0.0017*%
%ADD283R,0.0764X0.0017*%
%ADD284R,0.0255X0.0017*%
%ADD285R,0.0747X0.0017*%
%ADD286R,0.0696X0.0017*%
%ADD287R,0.0255X0.0017*%
%ADD288R,0.0390X0.0017*%
%ADD289R,0.0730X0.0017*%
%ADD290R,0.0373X0.0017*%
%ADD291R,0.0730X0.0017*%
%ADD292R,0.0679X0.0017*%
%ADD293R,0.0238X0.0017*%
%ADD294R,0.0356X0.0017*%
%ADD295R,0.0679X0.0017*%
%ADD296R,0.0221X0.0017*%
%ADD297R,0.0356X0.0017*%
%ADD298R,0.0102X0.0017*%
%ADD299R,0.0170X0.0017*%
%ADD300R,0.0713X0.0017*%
%ADD301R,0.0221X0.0017*%
%ADD302R,0.0187X0.0017*%
%ADD303R,0.0713X0.0017*%
%ADD304R,0.0339X0.0017*%
%ADD305R,0.0238X0.0017*%
%ADD306R,0.0424X0.0017*%
%ADD307R,0.0662X0.0017*%
%ADD308R,0.0204X0.0017*%
%ADD309R,0.0322X0.0017*%
%ADD310R,0.0492X0.0017*%
%ADD311R,0.0696X0.0017*%
%ADD312R,0.0662X0.0017*%
%ADD313R,0.0187X0.0017*%
%ADD314R,0.0322X0.0017*%
%ADD315R,0.1103X0.0017*%
%ADD316R,0.0696X0.0017*%
%ADD317R,0.0645X0.0017*%
%ADD318R,0.0305X0.0017*%
%ADD319R,0.1103X0.0017*%
%ADD320R,0.0170X0.0017*%
%ADD321R,0.0645X0.0017*%
%ADD322R,0.0153X0.0017*%
%ADD323R,0.0305X0.0017*%
%ADD324R,0.0339X0.0017*%
%ADD325R,0.1086X0.0017*%
%ADD326R,0.0713X0.0017*%
%ADD327R,0.0153X0.0017*%
%ADD328R,0.0339X0.0017*%
%ADD329R,0.0628X0.0017*%
%ADD330R,0.1035X0.0017*%
%ADD331R,0.0628X0.0017*%
%ADD332R,0.0034X0.0017*%
%ADD333R,0.0136X0.0017*%
%ADD334R,0.0305X0.0017*%
%ADD335R,0.0322X0.0017*%
%ADD336R,0.0916X0.0017*%
%ADD337R,0.0119X0.0017*%
%ADD338R,0.0305X0.0017*%
%ADD339R,0.0815X0.0017*%
%ADD340R,0.0747X0.0017*%
%ADD341R,0.0611X0.0017*%
%ADD342R,0.0051X0.0017*%
%ADD343R,0.0119X0.0017*%
%ADD344R,0.0611X0.0017*%
%ADD345R,0.0051X0.0017*%
%ADD346R,0.0645X0.0017*%
%ADD347R,0.0085X0.0017*%
%ADD348R,0.0068X0.0017*%
%ADD349R,0.0594X0.0017*%
%ADD350R,0.0764X0.0017*%
%ADD351R,0.0594X0.0017*%
%ADD352R,0.0781X0.0017*%
%ADD353R,0.0102X0.0017*%
%ADD354R,0.0339X0.0017*%
%ADD355R,0.0594X0.0017*%
%ADD356R,0.0102X0.0017*%
%ADD357R,0.0560X0.0017*%
%ADD358R,0.0815X0.0017*%
%ADD359R,0.0848X0.0017*%
%ADD360R,0.0577X0.0017*%
%ADD361R,0.0119X0.0017*%
%ADD362R,0.0390X0.0017*%
%ADD363R,0.0882X0.0017*%
%ADD364R,0.0577X0.0017*%
%ADD365R,0.0136X0.0017*%
%ADD366R,0.0051X0.0017*%
%ADD367R,0.0119X0.0017*%
%ADD368R,0.0407X0.0017*%
%ADD369R,0.0509X0.0017*%
%ADD370R,0.0933X0.0017*%
%ADD371R,0.0136X0.0017*%
%ADD372R,0.0509X0.0017*%
%ADD373R,0.1001X0.0017*%
%ADD374R,0.0560X0.0017*%
%ADD375R,0.0560X0.0017*%
%ADD376R,0.0136X0.0017*%
%ADD377R,0.0017X0.0017*%
%ADD378R,0.0153X0.0017*%
%ADD379R,0.0475X0.0017*%
%ADD380R,0.1222X0.0017*%
%ADD381R,0.0170X0.0017*%
%ADD382R,0.0153X0.0017*%
%ADD383R,0.0899X0.0017*%
%ADD384R,0.1273X0.0017*%
%ADD385R,0.1307X0.0017*%
%ADD386R,0.0543X0.0017*%
%ADD387R,0.0170X0.0017*%
%ADD388R,0.0882X0.0017*%
%ADD389R,0.0441X0.0017*%
%ADD390R,0.1324X0.0017*%
%ADD391R,0.0543X0.0017*%
%ADD392R,0.0187X0.0017*%
%ADD393R,0.0882X0.0017*%
%ADD394R,0.0424X0.0017*%
%ADD395R,0.1324X0.0017*%
%ADD396R,0.0204X0.0017*%
%ADD397R,0.0187X0.0017*%
%ADD398R,0.0204X0.0017*%
%ADD399R,0.0272X0.0017*%
%ADD400R,0.0526X0.0017*%
%ADD401R,0.0526X0.0017*%
%ADD402R,0.0221X0.0017*%
%ADD403R,0.0272X0.0017*%
%ADD404R,0.0373X0.0017*%
%ADD405R,0.0238X0.0017*%
%ADD406R,0.0221X0.0017*%
%ADD407R,0.0255X0.0017*%
%ADD408R,0.0509X0.0017*%
%ADD409R,0.0238X0.0017*%
%ADD410R,0.0255X0.0017*%
%ADD411R,0.0339X0.0017*%
%ADD412R,0.0102X0.0017*%
%ADD413R,0.0764X0.0017*%
%ADD414R,0.0509X0.0017*%
%ADD415R,0.0509X0.0017*%
%ADD416R,0.0424X0.0017*%
%ADD417R,0.0255X0.0017*%
%ADD418R,0.2478X0.0017*%
%ADD419R,0.1188X0.0017*%
%ADD420R,0.0764X0.0017*%
%ADD421R,0.4175X0.0017*%
%ADD422R,0.0662X0.0017*%
%ADD423R,0.0662X0.0017*%
%ADD424R,0.0458X0.0017*%
%ADD425R,0.0628X0.0017*%
%ADD426R,0.2308X0.0017*%
%ADD427R,0.0492X0.0017*%
%ADD428R,0.0407X0.0017*%
%ADD429R,0.0594X0.0017*%
%ADD430R,0.0288X0.0017*%
%ADD431R,0.0441X0.0017*%
%ADD432R,0.0407X0.0017*%
%ADD433R,0.0458X0.0017*%
%ADD434R,0.0441X0.0017*%
%ADD435R,0.0424X0.0017*%
%ADD436R,0.0390X0.0017*%
%ADD437R,0.0373X0.0017*%
%ADD438R,0.0356X0.0017*%
%ADD439R,0.0170X0.0017*%
%ADD440R,0.0272X0.0017*%
%ADD441R,0.0356X0.0017*%
%ADD442R,0.0356X0.0017*%
%ADD443R,0.0373X0.0017*%
%ADD444R,0.0238X0.0017*%
%ADD445R,0.0577X0.0017*%
%ADD446R,0.0611X0.0017*%
%ADD447R,0.0238X0.0017*%
%ADD448R,0.0645X0.0017*%
%ADD449R,0.0899X0.0017*%
%ADD450R,0.0950X0.0017*%
%ADD451R,0.0916X0.0017*%
%ADD452R,0.0967X0.0017*%
%ADD453R,0.0916X0.0017*%
%ADD454R,0.0984X0.0017*%
%ADD455R,0.1001X0.0017*%
%ADD456R,0.0271X0.0017*%
%ADD457R,0.1018X0.0017*%
%ADD458R,0.0187X0.0017*%
%ADD459R,0.1018X0.0017*%
%ADD460R,0.0204X0.0017*%
%ADD461R,0.0271X0.0017*%
%ADD462R,0.0221X0.0017*%
%ADD463R,0.0187X0.0017*%
%ADD464R,0.1035X0.0017*%
%ADD465R,0.0390X0.0017*%
%ADD466R,0.0373X0.0017*%
%ADD467R,0.0204X0.0017*%
%ADD468R,0.1035X0.0017*%
%ADD469R,0.0255X0.0017*%
%ADD470R,0.0221X0.0017*%
%ADD471R,0.0085X0.0017*%
%ADD472R,0.1018X0.0017*%
%ADD473R,0.0356X0.0017*%
%ADD474R,0.0407X0.0017*%
%ADD475R,0.0441X0.0017*%
%ADD476R,0.0458X0.0017*%
%ADD477R,0.0509X0.0017*%
%ADD478R,0.0967X0.0017*%
%ADD479R,0.0645X0.0017*%
%ADD480R,0.0441X0.0017*%
%ADD481R,0.0136X0.0017*%
%ADD482R,0.0458X0.0017*%
%ADD483R,0.1086X0.0017*%
%ADD484R,0.0865X0.0017*%
%ADD485R,0.3038X0.0017*%
%ADD486R,0.3038X0.0017*%
%ADD487R,0.3072X0.0017*%
%ADD488R,0.0543X0.0017*%
%ADD489R,0.3072X0.0017*%
%ADD490R,0.3089X0.0017*%
%ADD491R,0.0577X0.0017*%
%ADD492R,0.3105X0.0017*%
%ADD493R,0.3122X0.0017*%
%ADD494R,0.3139X0.0017*%
%ADD495R,0.3156X0.0017*%
%ADD496R,0.3173X0.0017*%
%ADD497R,0.3190X0.0017*%
%ADD498R,0.0679X0.0017*%
%ADD499R,0.3207X0.0017*%
%ADD500R,0.3224X0.0017*%
%ADD501R,0.3241X0.0017*%
%ADD502R,0.4005X0.0017*%
%ADD503R,0.4005X0.0017*%
%ADD504R,0.0645X0.0017*%
%ADD505R,0.1578X0.0017*%
%ADD506R,0.1578X0.0017*%
%ADD507R,0.0083X0.0028*%
%ADD508R,0.7846X0.0028*%
%ADD509R,0.0771X0.0028*%
%ADD510R,0.6855X0.0028*%
%ADD511R,0.0688X0.0028*%
%ADD512R,0.6773X0.0028*%
%ADD513R,0.0633X0.0028*%
%ADD514R,0.6745X0.0028*%
%ADD515R,0.0606X0.0028*%
%ADD516R,0.6690X0.0028*%
%ADD517R,0.0578X0.0028*%
%ADD518R,0.6663X0.0028*%
%ADD519R,0.0551X0.0028*%
%ADD520R,0.0028X0.0028*%
%ADD521R,0.6635X0.0028*%
%ADD522R,0.0523X0.0028*%
%ADD523R,0.0083X0.0028*%
%ADD524R,0.6608X0.0028*%
%ADD525R,0.0496X0.0028*%
%ADD526R,0.0110X0.0028*%
%ADD527R,0.0138X0.0028*%
%ADD528R,0.6608X0.0028*%
%ADD529R,0.0496X0.0028*%
%ADD530R,0.0138X0.0028*%
%ADD531R,0.0165X0.0028*%
%ADD532R,0.6580X0.0028*%
%ADD533R,0.0468X0.0028*%
%ADD534R,0.0165X0.0028*%
%ADD535R,0.0193X0.0028*%
%ADD536R,0.0468X0.0028*%
%ADD537R,0.0193X0.0028*%
%ADD538R,0.0220X0.0028*%
%ADD539R,0.6552X0.0028*%
%ADD540R,0.0220X0.0028*%
%ADD541R,0.6552X0.0028*%
%ADD542R,0.0440X0.0028*%
%ADD543R,0.0440X0.0028*%
%ADD544R,0.0248X0.0028*%
%ADD545R,0.6525X0.0028*%
%ADD546R,0.0248X0.0028*%
%ADD547R,0.6525X0.0028*%
%ADD548R,0.0165X0.0028*%
%ADD549R,0.6580X0.0028*%
%ADD550R,0.0028X0.0028*%
%ADD551R,0.0110X0.0028*%
%ADD552R,0.6690X0.0028*%
%ADD553R,0.6910X0.0028*%
%ADD554R,0.0771X0.0028*%
%ADD555R,0.6938X0.0028*%
%ADD556R,0.7846X0.0028*%
%ADD557R,0.0055X0.0028*%
%ADD558R,0.0055X0.0028*%
%ADD559R,0.0275X0.0028*%
%ADD560R,0.0358X0.0028*%
%ADD561R,0.0441X0.0028*%
%ADD562R,0.0523X0.0028*%
%ADD563R,0.0551X0.0028*%
%ADD564R,0.0578X0.0028*%
%ADD565R,0.0606X0.0028*%
%ADD566R,0.0606X0.0028*%
%ADD567R,0.0413X0.0028*%
%ADD568R,0.0358X0.0028*%
%ADD569R,0.0523X0.0028*%
%ADD570R,0.0330X0.0028*%
%ADD571R,0.0330X0.0028*%
%ADD572R,0.7268X0.0028*%
%ADD573R,0.7241X0.0028*%
%ADD574R,0.7241X0.0028*%
%ADD575R,0.0165X0.0028*%
%ADD576R,0.0028X0.0028*%
%ADD577R,0.7268X0.0028*%
%ADD578R,0.7296X0.0028*%
%ADD579R,0.7846X0.0028*%
%ADD580R,0.7021X0.0028*%
%ADD581R,0.7103X0.0028*%
%ADD582R,0.7158X0.0028*%
%ADD583R,0.7186X0.0028*%
%ADD584R,0.7213X0.0028*%
%ADD585R,0.7323X0.0028*%
%ADD586R,0.0633X0.0028*%
%ADD587R,0.6745X0.0028*%
%ADD588R,0.0606X0.0028*%
%ADD589R,0.0138X0.0028*%
%ADD590R,0.0385X0.0028*%
%ADD591R,0.0441X0.0028*%
%ADD592R,0.0385X0.0028*%
%ADD593R,0.6718X0.0028*%
%ADD594R,0.0661X0.0028*%
%ADD595R,0.0743X0.0028*%
%ADD596R,0.6828X0.0028*%
%ADD597R,0.0248X0.0028*%
%ADD598R,0.0248X0.0028*%
%ADD599R,0.6938X0.0028*%
%ADD600R,0.6965X0.0028*%
%ADD601R,0.7296X0.0028*%
%ADD602R,0.6828X0.0028*%
%ADD603R,0.1019X0.0028*%
%ADD604R,0.1074X0.0028*%
%ADD605R,0.1129X0.0028*%
%ADD606R,0.1156X0.0028*%
%ADD607R,0.1156X0.0028*%
%ADD608R,0.1184X0.0028*%
%ADD609R,0.1184X0.0028*%
%ADD610R,0.1211X0.0028*%
%ADD611R,0.1211X0.0028*%
%ADD612R,0.0853X0.0028*%
%ADD613R,0.5671X0.0028*%
%ADD614R,0.0330X0.0028*%
%ADD615R,0.4928X0.0028*%
%ADD616R,0.0303X0.0028*%
%ADD617R,0.4901X0.0028*%
%ADD618R,0.0220X0.0028*%
%ADD619R,0.4846X0.0028*%
%ADD620R,0.0798X0.0028*%
%ADD621R,0.0303X0.0028*%
%ADD622R,0.4818X0.0028*%
%ADD623R,0.0771X0.0028*%
%ADD624R,0.0303X0.0028*%
%ADD625R,0.4790X0.0028*%
%ADD626R,0.4763X0.0028*%
%ADD627R,0.0688X0.0028*%
%ADD628R,0.4763X0.0028*%
%ADD629R,0.4735X0.0028*%
%ADD630R,0.0716X0.0028*%
%ADD631R,0.4735X0.0028*%
%ADD632R,0.0743X0.0028*%
%ADD633R,0.0771X0.0028*%
%ADD634R,0.0413X0.0028*%
%ADD635R,0.0826X0.0028*%
%ADD636R,0.0523X0.0028*%
%ADD637R,0.0413X0.0028*%
%ADD638R,0.0854X0.0028*%
%ADD639R,0.0881X0.0028*%
%ADD640R,0.0936X0.0028*%
%ADD641R,0.0964X0.0028*%
%ADD642R,0.0991X0.0028*%
%ADD643R,0.1046X0.0028*%
%ADD644R,0.1074X0.0028*%
%ADD645R,0.0275X0.0028*%
%ADD646R,0.1101X0.0028*%
%ADD647R,0.0303X0.0028*%
%ADD648R,0.4790X0.0028*%
%ADD649R,0.0330X0.0028*%
%ADD650R,0.4818X0.0028*%
%ADD651R,0.1514X0.0028*%
%ADD652R,0.0083X0.0028*%
%ADD653R,0.4901X0.0028*%
%ADD654R,0.1514X0.0028*%
%ADD655R,0.4956X0.0028*%
%ADD656R,0.1542X0.0028*%
%ADD657R,0.6305X0.0028*%
%ADD658R,0.7874X0.0028*%
%ADD659R,0.7874X0.0028*%
%ADD660R,0.8158X0.0024*%
%ADD661R,0.8447X0.0024*%
%ADD662R,0.8591X0.0024*%
%ADD663R,0.8736X0.0024*%
%ADD664R,0.8784X0.0024*%
%ADD665R,0.8880X0.0024*%
%ADD666R,0.8976X0.0024*%
%ADD667R,0.9024X0.0024*%
%ADD668R,0.9121X0.0024*%
%ADD669R,0.9169X0.0024*%
%ADD670R,0.9217X0.0024*%
%ADD671R,0.9265X0.0024*%
%ADD672R,0.9313X0.0024*%
%ADD673R,0.9361X0.0024*%
%ADD674R,0.9409X0.0024*%
%ADD675R,0.9457X0.0024*%
%ADD676R,0.9457X0.0024*%
%ADD677R,0.9506X0.0024*%
%ADD678R,0.0409X0.0024*%
%ADD679R,0.0168X0.0024*%
%ADD680R,0.0385X0.0024*%
%ADD681R,0.0144X0.0024*%
%ADD682R,0.0217X0.0024*%
%ADD683R,0.0120X0.0024*%
%ADD684R,0.0265X0.0024*%
%ADD685R,0.0602X0.0024*%
%ADD686R,0.0193X0.0024*%
%ADD687R,0.0505X0.0024*%
%ADD688R,0.0987X0.0024*%
%ADD689R,0.4620X0.0024*%
%ADD690R,0.0385X0.0024*%
%ADD691R,0.0120X0.0024*%
%ADD692R,0.0048X0.0024*%
%ADD693R,0.0048X0.0024*%
%ADD694R,0.0144X0.0024*%
%ADD695R,0.0289X0.0024*%
%ADD696R,0.0120X0.0024*%
%ADD697R,0.0144X0.0024*%
%ADD698R,0.0313X0.0024*%
%ADD699R,0.0168X0.0024*%
%ADD700R,0.4524X0.0024*%
%ADD701R,0.0072X0.0024*%
%ADD702R,0.0096X0.0024*%
%ADD703R,0.0096X0.0024*%
%ADD704R,0.0265X0.0024*%
%ADD705R,0.0072X0.0024*%
%ADD706R,0.0144X0.0024*%
%ADD707R,0.0024X0.0024*%
%ADD708R,0.4524X0.0024*%
%ADD709R,0.0409X0.0024*%
%ADD710R,0.0072X0.0024*%
%ADD711R,0.0072X0.0024*%
%ADD712R,0.0096X0.0024*%
%ADD713R,0.0024X0.0024*%
%ADD714R,0.0241X0.0024*%
%ADD715R,0.0265X0.0024*%
%ADD716R,0.4500X0.0024*%
%ADD717R,0.0433X0.0024*%
%ADD718R,0.0120X0.0024*%
%ADD719R,0.0241X0.0024*%
%ADD720R,0.4500X0.0024*%
%ADD721R,0.0457X0.0024*%
%ADD722R,0.0481X0.0024*%
%ADD723R,0.0361X0.0024*%
%ADD724R,0.0457X0.0024*%
%ADD725R,0.0048X0.0024*%
%ADD726R,0.0048X0.0024*%
%ADD727R,0.0481X0.0024*%
%ADD728R,0.0361X0.0024*%
%ADD729R,0.4524X0.0024*%
%ADD730R,0.0096X0.0024*%
%ADD731R,0.0024X0.0024*%
%ADD732R,0.0265X0.0024*%
%ADD733R,0.0193X0.0024*%
%ADD734R,0.0481X0.0024*%
%ADD735R,0.0048X0.0024*%
%ADD736R,0.0024X0.0024*%
%ADD737R,0.0048X0.0024*%
%ADD738R,0.0144X0.0024*%
%ADD739R,0.0072X0.0024*%
%ADD740R,0.0168X0.0024*%
%ADD741R,0.0072X0.0024*%
%ADD742R,0.0241X0.0024*%
%ADD743R,0.0144X0.0024*%
%ADD744R,0.0265X0.0024*%
%ADD745R,0.0120X0.0024*%
%ADD746R,0.0120X0.0024*%
%ADD747R,0.0361X0.0024*%
%ADD748R,0.0193X0.0024*%
%ADD749R,0.4524X0.0024*%
%ADD750R,0.0481X0.0024*%
%ADD751R,0.0024X0.0024*%
%ADD752R,0.0024X0.0024*%
%ADD753R,0.0265X0.0024*%
%ADD754R,0.0072X0.0024*%
%ADD755R,0.0144X0.0024*%
%ADD756R,0.0072X0.0024*%
%ADD757R,0.0144X0.0024*%
%ADD758R,0.0241X0.0024*%
%ADD759R,0.0120X0.0024*%
%ADD760R,0.0120X0.0024*%
%ADD761R,0.0337X0.0024*%
%ADD762R,0.0193X0.0024*%
%ADD763R,0.4524X0.0024*%
%ADD764R,0.0024X0.0024*%
%ADD765R,0.0096X0.0024*%
%ADD766R,0.0096X0.0024*%
%ADD767R,0.0096X0.0024*%
%ADD768R,0.0505X0.0024*%
%ADD769R,0.0096X0.0024*%
%ADD770R,0.0265X0.0024*%
%ADD771R,0.4548X0.0024*%
%ADD772R,0.0505X0.0024*%
%ADD773R,0.0289X0.0024*%
%ADD774R,0.0241X0.0024*%
%ADD775R,0.0361X0.0024*%
%ADD776R,0.4548X0.0024*%
%ADD777R,0.0313X0.0024*%
%ADD778R,0.0217X0.0024*%
%ADD779R,0.0722X0.0024*%
%ADD780R,0.1420X0.0024*%
%ADD781R,0.0866X0.0024*%
%ADD782R,0.0722X0.0024*%
%ADD783R,0.1420X0.0024*%
%ADD784R,0.0866X0.0024*%
%ADD785R,0.0529X0.0024*%
%ADD786R,0.0674X0.0024*%
%ADD787R,0.0698X0.0024*%
%ADD788R,0.4572X0.0024*%
%ADD789R,0.0529X0.0024*%
%ADD790R,0.0650X0.0024*%
%ADD791R,0.0674X0.0024*%
%ADD792R,0.4572X0.0024*%
%ADD793R,0.0168X0.0024*%
%ADD794R,0.0746X0.0024*%
%ADD795R,0.0650X0.0024*%
%ADD796R,0.0674X0.0024*%
%ADD797R,0.0914X0.0024*%
%ADD798R,0.0217X0.0024*%
%ADD799R,0.4596X0.0024*%
%ADD800R,0.0578X0.0024*%
%ADD801R,0.0217X0.0024*%
%ADD802R,0.0794X0.0024*%
%ADD803R,0.0698X0.0024*%
%ADD804R,0.0939X0.0024*%
%ADD805R,0.0241X0.0024*%
%ADD806R,0.4596X0.0024*%
%ADD807R,0.9843X0.0024*%
%ADD808R,0.9843X0.0024*%
%ADD809R,0.0409X0.0024*%
%ADD810R,0.1131X0.0024*%
%ADD811R,0.0626X0.0024*%
%ADD812R,0.1131X0.0024*%
%ADD813R,0.0626X0.0024*%
%ADD814R,0.0337X0.0024*%
%ADD815R,0.1107X0.0024*%
%ADD816R,0.0168X0.0024*%
%ADD817R,0.0337X0.0024*%
%ADD818R,0.1107X0.0024*%
%ADD819R,0.0602X0.0024*%
%ADD820R,0.0168X0.0024*%
%ADD821R,0.0313X0.0024*%
%ADD822R,0.0337X0.0024*%
%ADD823R,0.0602X0.0024*%
%ADD824R,0.0048X0.0024*%
%ADD825R,0.0313X0.0024*%
%ADD826R,0.0313X0.0024*%
%ADD827R,0.0289X0.0024*%
%ADD828R,0.0578X0.0024*%
%ADD829R,0.0048X0.0024*%
%ADD830R,0.0554X0.0024*%
%ADD831R,0.0554X0.0024*%
%ADD832R,0.0217X0.0024*%
%ADD833R,0.0337X0.0024*%
%ADD834R,0.1131X0.0024*%
%ADD835R,0.0554X0.0024*%
%ADD836R,0.0024X0.0024*%
%ADD837R,0.0313X0.0024*%
%ADD838R,0.0217X0.0024*%
%ADD839R,0.0337X0.0024*%
%ADD840R,0.0289X0.0024*%
%ADD841R,0.1131X0.0024*%
%ADD842R,0.1155X0.0024*%
%ADD843R,0.0578X0.0024*%
%ADD844R,0.0168X0.0024*%
%ADD845R,0.0361X0.0024*%
%ADD846R,0.0313X0.0024*%
%ADD847R,0.0241X0.0024*%
%ADD848R,0.1203X0.0024*%
%ADD849R,0.2743X0.0024*%
%ADD850R,0.0890X0.0024*%
%ADD851R,0.0794X0.0024*%
%ADD852R,0.2671X0.0024*%
%ADD853R,0.2743X0.0024*%
%ADD854R,0.0890X0.0024*%
%ADD855R,0.0794X0.0024*%
%ADD856R,0.2695X0.0024*%
%ADD857R,0.0168X0.0024*%
%ADD858R,0.2719X0.0024*%
%ADD859R,0.2743X0.0024*%
%ADD860R,0.2767X0.0024*%
%ADD861R,0.0939X0.0024*%
%ADD862R,0.0866X0.0024*%
%ADD863R,0.0241X0.0024*%
%ADD864R,0.2791X0.0024*%
%ADD865R,0.9843X0.0024*%
%ADD866R,0.9843X0.0024*%
%ADD867R,0.3802X0.0024*%
%ADD868R,0.0626X0.0024*%
%ADD869R,0.3706X0.0024*%
%ADD870R,0.0529X0.0024*%
%ADD871R,0.3658X0.0024*%
%ADD872R,0.3634X0.0024*%
%ADD873R,0.0457X0.0024*%
%ADD874R,0.3610X0.0024*%
%ADD875R,0.0433X0.0024*%
%ADD876R,0.3586X0.0024*%
%ADD877R,0.0409X0.0024*%
%ADD878R,0.3586X0.0024*%
%ADD879R,0.0385X0.0024*%
%ADD880R,0.3562X0.0024*%
%ADD881R,0.0385X0.0024*%
%ADD882R,0.3562X0.0024*%
%ADD883R,0.0554X0.0024*%
%ADD884R,0.0217X0.0024*%
%ADD885R,0.0361X0.0024*%
%ADD886R,0.1203X0.0024*%
%ADD887R,0.1179X0.0024*%
%ADD888R,0.0265X0.0024*%
%ADD889R,0.1179X0.0024*%
%ADD890R,0.0529X0.0024*%
%ADD891R,0.1179X0.0024*%
%ADD892R,0.0529X0.0024*%
%ADD893R,0.1227X0.0024*%
%ADD894R,0.0217X0.0024*%
%ADD895R,0.1516X0.0024*%
%ADD896R,0.1516X0.0024*%
%ADD897R,0.1492X0.0024*%
%ADD898R,0.1492X0.0024*%
%ADD899R,0.1468X0.0024*%
%ADD900R,0.1468X0.0024*%
%ADD901R,0.1444X0.0024*%
%ADD902R,0.1179X0.0024*%
%ADD903R,0.1203X0.0024*%
%ADD904R,0.2479X0.0024*%
%ADD905R,0.2479X0.0024*%
%ADD906R,0.2503X0.0024*%
%ADD907R,0.2527X0.0024*%
%ADD908R,0.2527X0.0024*%
%ADD909R,0.2575X0.0024*%
%ADD910R,0.2671X0.0024*%
%ADD911R,0.3610X0.0024*%
%ADD912R,0.0433X0.0024*%
%ADD913R,0.3634X0.0024*%
%ADD914R,0.3778X0.0024*%
%ADD915R,0.0602X0.0024*%
%ADD916R,0.3826X0.0024*%
%ADD917R,0.3730X0.0024*%
%ADD918R,0.3682X0.0024*%
%ADD919R,0.0457X0.0024*%
%ADD920R,0.3658X0.0024*%
%ADD921R,0.3610X0.0024*%
%ADD922R,0.3610X0.0024*%
%ADD923R,0.0337X0.0024*%
%ADD924R,0.0433X0.0024*%
%ADD925R,0.0313X0.0024*%
%ADD926R,0.0433X0.0024*%
%ADD927R,0.1059X0.0024*%
%ADD928R,0.1059X0.0024*%
%ADD929R,0.0361X0.0024*%
%ADD930R,0.1083X0.0024*%
%ADD931R,0.0722X0.0024*%
%ADD932R,0.2238X0.0024*%
%ADD933R,0.1299X0.0024*%
%ADD934R,0.3586X0.0024*%
%ADD935R,0.3586X0.0024*%
%ADD936R,0.0361X0.0024*%
%ADD937R,0.3634X0.0024*%
%ADD938R,0.3634X0.0024*%
%ADD939R,0.3682X0.0024*%
%ADD940R,0.9602X0.0024*%
%ADD941R,0.9554X0.0024*%
%ADD942R,0.9554X0.0024*%
%ADD943R,0.9506X0.0024*%
%ADD944R,0.9409X0.0024*%
%ADD945R,0.9361X0.0024*%
%ADD946R,0.9313X0.0024*%
%ADD947R,0.9265X0.0024*%
%ADD948R,0.9217X0.0024*%
%ADD949R,0.9169X0.0024*%
%ADD950R,0.9121X0.0024*%
%ADD951R,0.9024X0.0024*%
%ADD952R,0.8976X0.0024*%
%ADD953R,0.8880X0.0024*%
%ADD954R,0.8784X0.0024*%
%ADD955R,0.8736X0.0024*%
%ADD956R,0.8591X0.0024*%
%ADD957R,0.8447X0.0024*%
%ADD958R,0.8158X0.0024*%
D10*
X009765Y005418D02*
X009999Y005418D01*
X009765Y005652D01*
X009765Y005710D01*
X009824Y005769D01*
X009941Y005769D01*
X009999Y005710D01*
X010125Y005477D02*
X010125Y005418D01*
X010183Y005418D01*
X010183Y005477D01*
X010125Y005477D01*
X010318Y005418D02*
X010551Y005418D01*
X010435Y005418D02*
X010435Y005769D01*
X010551Y005652D01*
X010686Y005652D02*
X010803Y005418D01*
X010920Y005652D01*
X011423Y005418D02*
X011656Y005418D01*
X011656Y005769D01*
X011791Y005769D02*
X011791Y005418D01*
X011791Y005593D02*
X012025Y005593D01*
X012025Y005418D02*
X012025Y005769D01*
X012159Y005710D02*
X012218Y005769D01*
X012335Y005769D01*
X012393Y005710D01*
X012393Y005477D01*
X012335Y005418D01*
X012218Y005418D01*
X012159Y005477D01*
X012159Y005710D01*
X012896Y005769D02*
X012896Y005418D01*
X013130Y005769D01*
X013130Y005418D01*
X013264Y005418D02*
X013381Y005535D01*
X013323Y005535D02*
X013498Y005535D01*
X013498Y005418D02*
X013498Y005769D01*
X013323Y005769D01*
X013264Y005710D01*
X013264Y005593D01*
X013323Y005535D01*
X013633Y005418D02*
X013866Y005418D01*
X013866Y005769D01*
X013633Y005769D01*
X013749Y005593D02*
X013866Y005593D01*
X014001Y005477D02*
X014059Y005418D01*
X014176Y005418D01*
X014235Y005477D01*
X014235Y005710D01*
X014176Y005769D01*
X014059Y005769D01*
X014001Y005710D01*
X017993Y004275D02*
X018222Y004275D01*
X018107Y004275D02*
X018107Y004619D01*
X018222Y004504D01*
X018355Y004275D02*
X018585Y004275D01*
X018585Y004619D01*
X018596Y003744D02*
X018596Y003393D01*
X018363Y003393D01*
X018228Y003393D02*
X017994Y003627D01*
X017994Y003685D01*
X018053Y003744D01*
X018169Y003744D01*
X018228Y003685D01*
X018228Y003393D02*
X017994Y003393D01*
X020809Y003418D02*
X020926Y003535D01*
X020867Y003535D02*
X021042Y003535D01*
X021042Y003418D02*
X021042Y003769D01*
X020867Y003769D01*
X020809Y003710D01*
X020809Y003593D01*
X020867Y003535D01*
X021177Y003477D02*
X021177Y003710D01*
X021236Y003769D01*
X021352Y003769D01*
X021411Y003710D01*
X021411Y003477D01*
X021352Y003418D01*
X021236Y003418D01*
X021177Y003477D01*
X021546Y003769D02*
X021779Y003769D01*
X021662Y003769D02*
X021662Y003418D01*
X021914Y003477D02*
X021972Y003418D01*
X022089Y003418D01*
X022147Y003477D01*
X022089Y003593D02*
X021972Y003593D01*
X021914Y003535D01*
X021914Y003477D01*
X022089Y003593D02*
X022147Y003652D01*
X022147Y003710D01*
X022089Y003769D01*
X021972Y003769D01*
X021914Y003710D01*
X022276Y003769D02*
X022393Y003769D01*
X022335Y003769D02*
X022335Y003418D01*
X022393Y003418D02*
X022276Y003418D01*
X022528Y003418D02*
X022528Y003769D01*
X022644Y003652D01*
X022761Y003769D01*
X022761Y003418D01*
X022896Y003418D02*
X023013Y003535D01*
X022954Y003535D02*
X023130Y003535D01*
X023130Y003418D02*
X023130Y003769D01*
X022954Y003769D01*
X022896Y003710D01*
X022896Y003593D01*
X022954Y003535D01*
X023264Y003418D02*
X023498Y003418D01*
X023498Y003769D01*
X023264Y003769D01*
X023381Y003593D02*
X023498Y003593D01*
X023633Y003593D02*
X023866Y003593D01*
X023866Y003418D02*
X023866Y003769D01*
X024001Y003769D02*
X024235Y003769D01*
X024118Y003769D02*
X024118Y003418D01*
X023633Y003418D02*
X023633Y003769D01*
X023633Y018918D02*
X023633Y019269D01*
X023498Y019269D02*
X023498Y018918D01*
X023264Y018918D01*
X023130Y018918D02*
X023130Y019269D01*
X022954Y019269D01*
X022896Y019210D01*
X022896Y019093D01*
X022954Y019035D01*
X023130Y019035D01*
X023013Y019035D02*
X022896Y018918D01*
X022761Y018918D02*
X022761Y019269D01*
X022644Y019152D01*
X022528Y019269D01*
X022528Y018918D01*
X022393Y018918D02*
X022276Y018918D01*
X022335Y018918D02*
X022335Y019269D01*
X022393Y019269D02*
X022276Y019269D01*
X022147Y019210D02*
X022147Y019152D01*
X022089Y019093D01*
X021972Y019093D01*
X021914Y019035D01*
X021914Y018977D01*
X021972Y018918D01*
X022089Y018918D01*
X022147Y018977D01*
X022147Y019210D02*
X022089Y019269D01*
X021972Y019269D01*
X021914Y019210D01*
X021779Y019269D02*
X021546Y019269D01*
X021662Y019269D02*
X021662Y018918D01*
X021411Y018977D02*
X021352Y018918D01*
X021236Y018918D01*
X021177Y018977D01*
X021177Y019210D01*
X021236Y019269D01*
X021352Y019269D01*
X021411Y019210D01*
X021411Y018977D01*
X021042Y019035D02*
X020867Y019035D01*
X020809Y019093D01*
X020809Y019210D01*
X020867Y019269D01*
X021042Y019269D01*
X021042Y018918D01*
X020926Y019035D02*
X020809Y018918D01*
X023264Y019269D02*
X023498Y019269D01*
X023498Y019093D02*
X023381Y019093D01*
X023633Y019093D02*
X023866Y019093D01*
X023866Y018918D02*
X023866Y019269D01*
X024001Y019269D02*
X024235Y019269D01*
X024118Y019269D02*
X024118Y018918D01*
D11*
X010730Y031923D02*
X010730Y032364D01*
X010509Y032364D01*
X010436Y032290D01*
X010436Y032217D01*
X010509Y032143D01*
X010730Y032143D01*
X010730Y031923D02*
X010509Y031923D01*
X010436Y031997D01*
X010436Y032070D01*
X010509Y032143D01*
X010509Y033298D02*
X010803Y033298D01*
X010803Y033739D01*
X010509Y033739D01*
X010342Y033739D02*
X010342Y033298D01*
X010122Y033298D01*
X010049Y033372D01*
X010049Y033665D01*
X010122Y033739D01*
X010342Y033739D01*
X010656Y033518D02*
X010803Y033518D01*
X010969Y033445D02*
X010969Y033372D01*
X011043Y033298D01*
X011263Y033298D01*
X011263Y033739D01*
X011043Y033739D01*
X010969Y033665D01*
X010969Y033592D01*
X011043Y033518D01*
X011263Y033518D01*
X011043Y033518D02*
X010969Y033445D01*
X011430Y033739D02*
X011723Y033739D01*
X011577Y033739D02*
X011577Y033298D01*
X011890Y033298D02*
X011890Y033592D01*
X012037Y033739D01*
X012184Y033592D01*
X012184Y033298D01*
X012351Y033298D02*
X012644Y033298D01*
X012644Y033739D01*
X012351Y033739D01*
X012497Y033518D02*
X012644Y033518D01*
X012811Y033518D02*
X013105Y033518D01*
X013105Y033298D02*
X013105Y033739D01*
X012811Y033739D02*
X012811Y033298D01*
X012184Y033518D02*
X011890Y033518D01*
X009421Y033298D02*
X009421Y033739D01*
X009275Y033592D01*
X009128Y033739D01*
X009128Y033298D01*
X008961Y033298D02*
X008814Y033298D01*
X008888Y033298D02*
X008888Y033739D01*
X008961Y033739D02*
X008814Y033739D01*
X008654Y033739D02*
X008360Y033298D01*
X008360Y033739D01*
X008194Y033739D02*
X008047Y033739D01*
X008120Y033739D02*
X008120Y033298D01*
X008047Y033298D02*
X008194Y033298D01*
X008654Y033298D02*
X008654Y033739D01*
D12*
X019413Y004789D03*
X019413Y003998D03*
X019856Y003914D03*
X019856Y003123D03*
D13*
X024597Y003968D02*
X024784Y003968D01*
X024691Y003968D02*
X024691Y004249D01*
X024784Y004155D01*
X024892Y004108D02*
X024939Y004062D01*
X025079Y004062D01*
X024985Y004062D02*
X024892Y003968D01*
X024892Y004108D02*
X024892Y004202D01*
X024939Y004249D01*
X025079Y004249D01*
X025079Y003968D01*
X022701Y024281D02*
X022701Y024561D01*
X022561Y024561D01*
X022515Y024514D01*
X022515Y024421D01*
X022561Y024374D01*
X022701Y024374D01*
X022608Y024374D02*
X022515Y024281D01*
X022407Y024281D02*
X022220Y024468D01*
X022220Y024514D01*
X022267Y024561D01*
X022360Y024561D01*
X022407Y024514D01*
X022407Y024281D02*
X022220Y024281D01*
D14*
X013281Y008483D03*
X013099Y008328D03*
X013044Y008310D03*
X012998Y008291D03*
X013500Y008310D03*
X013829Y007361D03*
X013509Y007151D03*
X013044Y007142D03*
X013509Y006649D03*
X013509Y006393D03*
X013810Y006439D03*
X013947Y006603D03*
X014595Y006612D03*
X014641Y006393D03*
X012661Y006421D03*
D15*
X014390Y006393D03*
D16*
X014221Y006393D03*
X014057Y006393D03*
X013956Y006649D03*
X013792Y006649D03*
X013701Y006822D03*
X013309Y006649D03*
X013144Y006649D03*
X013144Y006393D03*
X012661Y006850D03*
X012670Y006886D03*
X012679Y006932D03*
X012706Y007059D03*
X012715Y007087D03*
X012725Y007142D03*
X012752Y007251D03*
X012752Y007260D03*
X012761Y007278D03*
X012761Y007297D03*
X012770Y007324D03*
X012679Y007516D03*
X012670Y007552D03*
X012661Y007598D03*
X012661Y007853D03*
X012661Y007863D03*
X012661Y007881D03*
X012670Y007899D03*
X012679Y007926D03*
X012615Y007917D03*
X012615Y007899D03*
X012615Y007881D03*
X012597Y008045D03*
X012597Y008054D03*
X012579Y008182D03*
X012579Y008200D03*
X012579Y008218D03*
X012579Y008228D03*
X012971Y007680D03*
X013263Y007297D03*
X013281Y007278D03*
X013400Y007151D03*
X013692Y007260D03*
X013710Y007278D03*
X013792Y007388D03*
X013829Y007443D03*
X013838Y007452D03*
X013865Y007516D03*
X013865Y007534D03*
X013874Y007552D03*
X013874Y007561D03*
X013883Y007598D03*
X014084Y007516D03*
X014048Y007379D03*
X013993Y007169D03*
X014139Y007726D03*
X014166Y007881D03*
X014166Y007899D03*
X014166Y007917D03*
X014166Y007926D03*
X014166Y007945D03*
X014084Y008228D03*
X012168Y006567D03*
D17*
X012410Y006631D03*
X012492Y006548D03*
X012410Y006393D03*
X012656Y006822D03*
X012656Y006840D03*
X012665Y006868D03*
X012674Y006904D03*
X012674Y006913D03*
X012683Y006950D03*
X012683Y006959D03*
X012702Y007023D03*
X012711Y007078D03*
X012720Y007105D03*
X012729Y007151D03*
X012747Y007233D03*
X012766Y007315D03*
X012775Y007342D03*
X012784Y007379D03*
X012784Y007388D03*
X012793Y007406D03*
X012793Y007443D03*
X012802Y007452D03*
X012802Y007470D03*
X012811Y007488D03*
X012811Y007497D03*
X012811Y007516D03*
X012829Y007598D03*
X012839Y007616D03*
X012839Y007625D03*
X012848Y007644D03*
X012848Y007662D03*
X012857Y007680D03*
X012857Y007689D03*
X012857Y007707D03*
X012875Y007771D03*
X012875Y007790D03*
X012884Y007799D03*
X012884Y007817D03*
X012884Y007835D03*
X012930Y007835D03*
X012939Y007799D03*
X012939Y007790D03*
X012939Y007771D03*
X012957Y007707D03*
X012966Y007689D03*
X012975Y007662D03*
X012985Y007644D03*
X013003Y007616D03*
X013012Y007598D03*
X013058Y007534D03*
X013222Y007342D03*
X013240Y007324D03*
X013304Y007251D03*
X013322Y007233D03*
X013359Y007187D03*
X013377Y007169D03*
X013404Y007142D03*
X013441Y007105D03*
X013459Y007087D03*
X013487Y007059D03*
X013523Y007014D03*
X013541Y006996D03*
X013559Y006977D03*
X013578Y006959D03*
X013587Y006950D03*
X013605Y006932D03*
X013623Y006913D03*
X013623Y006904D03*
X013660Y006868D03*
X013678Y006850D03*
X013687Y006840D03*
X013733Y006786D03*
X013797Y006393D03*
X013961Y006393D03*
X013313Y006393D03*
X013687Y007251D03*
X013842Y007470D03*
X013852Y007488D03*
X013988Y007470D03*
X014007Y007488D03*
X014016Y007497D03*
X014043Y007534D03*
X014089Y007534D03*
X014061Y007443D03*
X014052Y007406D03*
X014052Y007388D03*
X014043Y007361D03*
X014034Y007342D03*
X014034Y007324D03*
X014034Y007315D03*
X014016Y007260D03*
X014016Y007251D03*
X014007Y007233D03*
X014007Y007215D03*
X013998Y007205D03*
X013998Y007187D03*
X014125Y007680D03*
X014125Y007689D03*
X014134Y007707D03*
X014144Y007744D03*
X014144Y007753D03*
X014153Y007771D03*
X014153Y007790D03*
X014153Y007799D03*
X014162Y007817D03*
X014162Y007835D03*
X014162Y007853D03*
X014162Y007863D03*
X014080Y007899D03*
X014080Y007917D03*
X014080Y007926D03*
X014080Y007945D03*
X014061Y008009D03*
X014043Y008027D03*
X014144Y008072D03*
X014144Y008091D03*
X014134Y008100D03*
X014125Y008136D03*
X014107Y008182D03*
X014098Y008200D03*
X014089Y008218D03*
X014061Y008264D03*
X014052Y008282D03*
X014043Y008291D03*
X014153Y008054D03*
X014153Y008045D03*
X014162Y008009D03*
X014162Y007990D03*
X014162Y007981D03*
X014061Y007853D03*
X013797Y007853D03*
X013797Y007863D03*
X013797Y007881D03*
X013797Y007899D03*
X013797Y007917D03*
X013797Y007926D03*
X013797Y007981D03*
X013797Y007990D03*
X013797Y008009D03*
X013797Y008027D03*
X013742Y008136D03*
X013706Y008182D03*
X013587Y008045D03*
X013587Y008027D03*
X013587Y008009D03*
X013587Y007990D03*
X013587Y007981D03*
X013587Y007945D03*
X013587Y007926D03*
X013587Y007917D03*
X013587Y007899D03*
X013587Y007881D03*
X013587Y007863D03*
X013587Y007853D03*
X013587Y007835D03*
X013587Y007817D03*
X013487Y007899D03*
X013797Y007835D03*
X013021Y008246D03*
X013003Y008218D03*
X012985Y008182D03*
X012975Y008164D03*
X012975Y008155D03*
X012966Y008136D03*
X012939Y008054D03*
X012939Y008045D03*
X012930Y008009D03*
X012793Y008136D03*
X012766Y008100D03*
X012756Y008091D03*
X012729Y008054D03*
X012729Y008045D03*
X012720Y008027D03*
X012711Y008009D03*
X012702Y007990D03*
X012683Y007945D03*
X012674Y007917D03*
X012638Y007753D03*
X012638Y007744D03*
X012638Y007726D03*
X012665Y007561D03*
X012674Y007534D03*
X012702Y007470D03*
X012711Y007452D03*
X012711Y007443D03*
X014554Y006485D03*
D18*
X014645Y006631D03*
X014171Y006503D03*
X013395Y007315D03*
X013742Y007945D03*
X013395Y008520D03*
X012975Y006393D03*
X012099Y006393D03*
D19*
X012049Y006539D03*
X012040Y006567D03*
X012414Y006412D03*
X012624Y006475D03*
X012624Y006485D03*
X012615Y006503D03*
X012597Y006548D03*
X012579Y006603D03*
X012569Y006631D03*
X012725Y006567D03*
X012715Y006539D03*
X012697Y006485D03*
X012688Y006457D03*
X012633Y006457D03*
X012661Y006393D03*
X013144Y006412D03*
X013144Y006421D03*
X013144Y006439D03*
X013144Y006457D03*
X013144Y006475D03*
X013144Y006485D03*
X013144Y006567D03*
X013144Y006603D03*
X013144Y006612D03*
X013144Y006631D03*
X013309Y006631D03*
X013409Y006539D03*
X013409Y006521D03*
X013409Y006503D03*
X013309Y006412D03*
X013792Y006485D03*
X013792Y006503D03*
X013792Y006521D03*
X013792Y006539D03*
X013792Y006548D03*
X013792Y006567D03*
X013792Y006603D03*
X013792Y006612D03*
X013792Y006631D03*
X013966Y006412D03*
X014221Y006412D03*
X014221Y006421D03*
X014221Y006439D03*
X014221Y006457D03*
X014221Y006475D03*
X014221Y006485D03*
X014221Y006548D03*
X014221Y006567D03*
X014221Y006603D03*
X014559Y006567D03*
X014559Y006475D03*
X014732Y006475D03*
X013956Y007443D03*
X013966Y007452D03*
X014093Y007598D03*
X014102Y007616D03*
X014102Y007625D03*
X014112Y007644D03*
X014048Y007835D03*
X014066Y007863D03*
X013883Y007817D03*
X013792Y007817D03*
X013792Y008045D03*
X013883Y008045D03*
X014011Y008045D03*
X014029Y008310D03*
X014011Y008328D03*
X014002Y008337D03*
X013938Y008401D03*
X013728Y008155D03*
X013664Y008218D03*
X013427Y008027D03*
X013427Y007981D03*
X013473Y007945D03*
X013500Y007917D03*
X013473Y007881D03*
X013455Y007863D03*
X013445Y007853D03*
X013427Y007835D03*
X013418Y007817D03*
X013281Y007981D03*
X013290Y007990D03*
X013327Y008027D03*
X013245Y007945D03*
X013226Y007926D03*
X013217Y007917D03*
X013199Y007899D03*
X013181Y007881D03*
X013135Y007835D03*
X012934Y007817D03*
X012925Y007981D03*
X012925Y007990D03*
X012934Y008027D03*
X012807Y008155D03*
X012816Y008164D03*
X012834Y008182D03*
X012852Y008200D03*
X012889Y008228D03*
X013007Y008228D03*
X013035Y008264D03*
X012642Y007790D03*
X012642Y007771D03*
X013044Y007552D03*
X013071Y007516D03*
X013090Y007497D03*
X012852Y007260D03*
X012861Y007251D03*
X012880Y007233D03*
X012916Y007205D03*
X012834Y007278D03*
X013601Y007187D03*
X013628Y007205D03*
X013664Y007233D03*
D20*
X013642Y007215D03*
X013468Y007078D03*
X013514Y007023D03*
X013642Y006886D03*
X013295Y007260D03*
X013249Y007315D03*
X013039Y007561D03*
X012994Y007625D03*
X012948Y007744D03*
X012948Y007753D03*
X012866Y007753D03*
X012866Y007744D03*
X012866Y007726D03*
X012820Y007561D03*
X012820Y007552D03*
X012820Y007534D03*
X012693Y007488D03*
X012647Y007662D03*
X012647Y007680D03*
X012738Y008072D03*
X012948Y008091D03*
X012994Y008200D03*
X013423Y008009D03*
X013423Y007990D03*
X013724Y008164D03*
X014071Y008246D03*
X014116Y008164D03*
X014116Y008155D03*
X014071Y007990D03*
X014071Y007981D03*
X014071Y007881D03*
X014116Y007662D03*
X014025Y007516D03*
X014071Y007470D03*
X014025Y007297D03*
X014025Y007278D03*
X013897Y007680D03*
X013897Y007689D03*
X012820Y007297D03*
X012738Y007187D03*
X012693Y006996D03*
X012647Y006804D03*
X012647Y006786D03*
X012264Y006393D03*
D21*
X013505Y006402D03*
X014645Y006402D03*
D22*
X014385Y006402D03*
X014394Y006621D03*
D23*
X014559Y006576D03*
X014559Y006466D03*
X014732Y006558D03*
X014221Y006558D03*
X014221Y006576D03*
X014221Y006594D03*
X014221Y006494D03*
X014221Y006466D03*
X014221Y006448D03*
X014221Y006402D03*
X014057Y006402D03*
X013956Y006640D03*
X013792Y006640D03*
X013792Y006621D03*
X013792Y006594D03*
X013792Y006576D03*
X013792Y006558D03*
X013792Y006530D03*
X013792Y006494D03*
X013409Y006530D03*
X013309Y006640D03*
X013144Y006640D03*
X013144Y006621D03*
X013144Y006594D03*
X013144Y006576D03*
X013144Y006558D03*
X013144Y006494D03*
X013144Y006466D03*
X013144Y006448D03*
X013144Y006402D03*
X013309Y006402D03*
X013035Y006640D03*
X012688Y006466D03*
X012624Y006466D03*
X012615Y006494D03*
X012597Y006558D03*
X012588Y006576D03*
X012569Y006640D03*
X012487Y006558D03*
X012268Y006402D03*
X012168Y006576D03*
X012159Y006594D03*
X012040Y006594D03*
X012040Y006576D03*
X012040Y006558D03*
X012825Y007288D03*
X012871Y007242D03*
X013062Y007525D03*
X013007Y007607D03*
X012989Y007634D03*
X013172Y007872D03*
X013236Y007936D03*
X013254Y007954D03*
X013272Y007972D03*
X013299Y007999D03*
X013427Y008018D03*
X013491Y007908D03*
X013464Y007872D03*
X013436Y007844D03*
X013427Y007826D03*
X013674Y008209D03*
X014020Y008319D03*
X014039Y008301D03*
X014057Y007844D03*
X014121Y007671D03*
X014112Y007634D03*
X013947Y007434D03*
X013674Y007242D03*
X013655Y007224D03*
X012925Y007972D03*
X012934Y008018D03*
X012798Y008145D03*
X012825Y008173D03*
X012770Y008109D03*
X012998Y008209D03*
X013017Y008237D03*
X013026Y008255D03*
X013117Y008364D03*
X012642Y007780D03*
X012642Y007762D03*
D24*
X012656Y007607D03*
X012702Y007461D03*
X012720Y007434D03*
X012729Y007415D03*
X012784Y007397D03*
X012793Y007415D03*
X012793Y007434D03*
X012802Y007461D03*
X012802Y007479D03*
X012829Y007570D03*
X012829Y007589D03*
X012839Y007607D03*
X012839Y007634D03*
X012848Y007671D03*
X012857Y007698D03*
X012857Y007717D03*
X012875Y007762D03*
X012875Y007780D03*
X012884Y007826D03*
X012930Y007826D03*
X012939Y007780D03*
X012957Y007717D03*
X012975Y007671D03*
X013021Y007589D03*
X013030Y007570D03*
X013048Y007543D03*
X013231Y007333D03*
X013258Y007306D03*
X013313Y007242D03*
X013368Y007178D03*
X013386Y007160D03*
X013414Y007132D03*
X013432Y007114D03*
X013450Y007096D03*
X013477Y007069D03*
X013496Y007050D03*
X013532Y007005D03*
X013550Y006986D03*
X013614Y006923D03*
X013651Y006877D03*
X013669Y006859D03*
X013477Y007132D03*
X013824Y007434D03*
X013979Y007461D03*
X013998Y007479D03*
X014034Y007525D03*
X014061Y007434D03*
X014061Y007415D03*
X014052Y007397D03*
X014043Y007370D03*
X014034Y007333D03*
X014007Y007242D03*
X014007Y007224D03*
X013998Y007178D03*
X013888Y007607D03*
X013797Y007826D03*
X013797Y007844D03*
X013797Y007872D03*
X013797Y007908D03*
X013797Y007954D03*
X013797Y007972D03*
X013797Y007999D03*
X013797Y008018D03*
X013751Y008127D03*
X013733Y008145D03*
X013715Y008173D03*
X013587Y008018D03*
X013587Y007999D03*
X013587Y007972D03*
X013587Y007954D03*
X013587Y007908D03*
X013587Y007872D03*
X013587Y007844D03*
X013587Y007826D03*
X013450Y007954D03*
X013432Y007972D03*
X013131Y007826D03*
X012930Y007999D03*
X012939Y008063D03*
X012957Y008109D03*
X012957Y008127D03*
X012966Y008145D03*
X012975Y008173D03*
X012784Y008127D03*
X012747Y008082D03*
X012711Y008018D03*
X012702Y007999D03*
X012683Y007954D03*
X012784Y007370D03*
X012775Y007333D03*
X012766Y007306D03*
X012747Y007224D03*
X012720Y007114D03*
X012711Y007069D03*
X012702Y007032D03*
X012683Y006941D03*
X012674Y006923D03*
X012665Y006877D03*
X012665Y006859D03*
X012656Y006831D03*
X012747Y006640D03*
X012410Y006640D03*
X012410Y006402D03*
X013961Y006402D03*
X014134Y007698D03*
X014134Y007717D03*
X014153Y007780D03*
X014162Y007826D03*
X014162Y007844D03*
X014162Y007872D03*
X014080Y007908D03*
X014080Y007936D03*
X014080Y007954D03*
X014080Y007972D03*
X014061Y007999D03*
X014052Y008018D03*
X014162Y008018D03*
X014162Y007999D03*
X014162Y007972D03*
X014153Y008063D03*
X014144Y008082D03*
X014134Y008109D03*
X014125Y008127D03*
X014125Y008145D03*
X014107Y008173D03*
X014098Y008209D03*
X014080Y008237D03*
D25*
X013961Y008383D03*
X013925Y008410D03*
X013614Y008255D03*
X013322Y008018D03*
X013140Y007844D03*
X012921Y007936D03*
X012921Y007954D03*
X012930Y008255D03*
X013140Y008383D03*
X012638Y007826D03*
X012893Y007224D03*
X012957Y007178D03*
X013103Y007479D03*
X013587Y007178D03*
X013925Y007415D03*
X014089Y007589D03*
X014098Y007607D03*
X014034Y007826D03*
X014061Y006576D03*
X013961Y006530D03*
X013961Y006494D03*
X013961Y006466D03*
X013961Y006448D03*
X013888Y006530D03*
X013797Y006402D03*
X013605Y006494D03*
X013605Y006530D03*
X013605Y006558D03*
X013587Y006594D03*
X013587Y006448D03*
X013414Y006494D03*
X013414Y006558D03*
X013313Y006558D03*
X013313Y006576D03*
X013313Y006594D03*
X013313Y006621D03*
X013313Y006494D03*
X013313Y006466D03*
X013313Y006448D03*
X012747Y006621D03*
X012729Y006576D03*
X012720Y006558D03*
X012711Y006530D03*
X012702Y006494D03*
X012583Y006594D03*
X012574Y006621D03*
X012410Y006621D03*
X012410Y006558D03*
X012410Y006530D03*
X012410Y006494D03*
X012410Y006466D03*
X012410Y006448D03*
X012145Y006448D03*
X012127Y006466D03*
X012054Y006530D03*
X014080Y006448D03*
X014728Y006466D03*
X014737Y006494D03*
X014737Y006530D03*
X014728Y006576D03*
D26*
X014641Y006621D03*
X014157Y006640D03*
X013509Y006621D03*
X012971Y006402D03*
X012095Y006402D03*
X013272Y008364D03*
D27*
X013190Y008428D03*
X013874Y008447D03*
X014084Y007570D03*
X013153Y007434D03*
X012661Y006402D03*
X014093Y006466D03*
X014568Y006448D03*
X014568Y006594D03*
D28*
X014641Y006412D03*
X013509Y006412D03*
X013509Y006631D03*
D29*
X014385Y006631D03*
X014385Y006412D03*
D30*
X014563Y006457D03*
X014709Y006439D03*
X014728Y006457D03*
X014737Y006485D03*
X014737Y006503D03*
X014737Y006521D03*
X014737Y006539D03*
X014737Y006548D03*
X014728Y006567D03*
X014217Y006539D03*
X014098Y006475D03*
X014061Y006412D03*
X013961Y006421D03*
X013961Y006439D03*
X013961Y006457D03*
X013961Y006475D03*
X013961Y006485D03*
X013961Y006503D03*
X013961Y006521D03*
X013961Y006539D03*
X013961Y006548D03*
X013888Y006539D03*
X013879Y006521D03*
X013870Y006503D03*
X014061Y006567D03*
X013605Y006567D03*
X013605Y006548D03*
X013605Y006539D03*
X013605Y006521D03*
X013605Y006503D03*
X013605Y006485D03*
X013605Y006475D03*
X013414Y006475D03*
X013414Y006485D03*
X013414Y006548D03*
X013414Y006567D03*
X013313Y006567D03*
X013313Y006603D03*
X013313Y006612D03*
X013313Y006503D03*
X013313Y006485D03*
X013313Y006475D03*
X013313Y006457D03*
X013313Y006439D03*
X013313Y006421D03*
X013149Y006503D03*
X013149Y006548D03*
X012747Y006631D03*
X012720Y006548D03*
X012711Y006521D03*
X012702Y006503D03*
X012592Y006567D03*
X012574Y006612D03*
X012410Y006567D03*
X012410Y006548D03*
X012410Y006539D03*
X012410Y006521D03*
X012410Y006503D03*
X012410Y006485D03*
X012410Y006475D03*
X012410Y006457D03*
X012410Y006439D03*
X012410Y006421D03*
X012154Y006439D03*
X012118Y006475D03*
X012154Y006603D03*
X012099Y006649D03*
X012939Y007187D03*
X012975Y007169D03*
X013140Y007443D03*
X013131Y007452D03*
X013112Y007470D03*
X013094Y007488D03*
X012921Y007917D03*
X012921Y007926D03*
X012921Y007945D03*
X012875Y008218D03*
X013131Y008374D03*
X013149Y008392D03*
X013158Y008401D03*
X013450Y008045D03*
X013623Y008246D03*
X013651Y008228D03*
X013888Y008437D03*
X013952Y008392D03*
X013970Y008374D03*
X014016Y007817D03*
X012638Y007817D03*
X012638Y007835D03*
X012638Y007799D03*
D31*
X012980Y008282D03*
X013318Y008009D03*
X013144Y007853D03*
X013883Y007388D03*
X013911Y007406D03*
X013956Y006631D03*
X014102Y006485D03*
X014084Y006457D03*
X013801Y006412D03*
X013582Y006439D03*
X013436Y006439D03*
X013309Y006548D03*
X012661Y006412D03*
X012414Y006612D03*
X012150Y006612D03*
X012058Y006612D03*
X012067Y006521D03*
X012104Y006485D03*
X014641Y006649D03*
X014705Y006603D03*
D32*
X014641Y006421D03*
X014157Y006521D03*
X013509Y006421D03*
X012971Y006412D03*
X012104Y006421D03*
D33*
X012136Y006457D03*
X012045Y006548D03*
X012045Y006603D03*
X012264Y006421D03*
X012264Y006412D03*
X012601Y006539D03*
X012693Y006475D03*
X012738Y006603D03*
X012738Y006612D03*
X013039Y006612D03*
X013039Y006603D03*
X013039Y006631D03*
X013039Y006567D03*
X013039Y006548D03*
X013039Y006539D03*
X013039Y006521D03*
X013039Y006503D03*
X013039Y006485D03*
X013039Y006475D03*
X013039Y006457D03*
X013039Y006439D03*
X013423Y006457D03*
X013596Y006457D03*
X013852Y006485D03*
X013897Y006548D03*
X014463Y006548D03*
X014463Y006567D03*
X014463Y006603D03*
X014463Y006503D03*
X014463Y006485D03*
X014463Y006475D03*
X014463Y006457D03*
X014463Y006439D03*
X013514Y007926D03*
X013596Y008264D03*
X013988Y008355D03*
X012912Y008246D03*
X012902Y007215D03*
D34*
X013550Y007278D03*
X014153Y006631D03*
X014399Y006612D03*
X014399Y006539D03*
X014399Y006521D03*
X012099Y006412D03*
D35*
X014144Y006612D03*
X014390Y006421D03*
D36*
X014577Y006439D03*
X014577Y006603D03*
X014075Y006603D03*
X014075Y006548D03*
X014075Y006439D03*
X014066Y006421D03*
X013564Y007169D03*
X013865Y007379D03*
X014075Y007552D03*
X014075Y007561D03*
X013564Y008282D03*
X013546Y008291D03*
X013856Y008456D03*
X012944Y008264D03*
X012916Y007899D03*
X012916Y007881D03*
X012478Y006567D03*
X012086Y006503D03*
D37*
X012912Y007853D03*
X012912Y007863D03*
X013204Y008437D03*
X013249Y008465D03*
X013806Y008483D03*
X013842Y008465D03*
X013687Y008045D03*
X013952Y007799D03*
X013952Y006612D03*
X013806Y006421D03*
D38*
X012975Y006421D03*
D39*
X014696Y006430D03*
D40*
X014591Y006430D03*
X013806Y006430D03*
D41*
X014399Y006430D03*
X014399Y006512D03*
D42*
X014221Y006430D03*
X013792Y006512D03*
X013409Y006512D03*
X013144Y006430D03*
X012706Y006512D03*
X012615Y006512D03*
X012843Y007269D03*
X012980Y007653D03*
X012934Y007808D03*
X013190Y007890D03*
X013409Y007808D03*
X013482Y007890D03*
X013436Y008036D03*
X013692Y008191D03*
X014029Y008036D03*
X014102Y008191D03*
X014057Y008273D03*
X012843Y008191D03*
D43*
X013039Y006512D03*
X014071Y006430D03*
D44*
X013961Y006430D03*
X013961Y006512D03*
X013870Y006512D03*
X013605Y006512D03*
X013313Y006430D03*
X013614Y007196D03*
X012930Y007196D03*
X012638Y007808D03*
X012410Y006512D03*
X012410Y006430D03*
X013998Y008346D03*
X014737Y006512D03*
D45*
X013564Y006430D03*
X013455Y006430D03*
X012661Y006430D03*
D46*
X012980Y006430D03*
D47*
X012264Y006430D03*
X012738Y007196D03*
X012866Y007735D03*
X012948Y007735D03*
X014025Y007507D03*
X014116Y007653D03*
D48*
X012104Y006430D03*
D49*
X012656Y006439D03*
X013459Y006612D03*
X013560Y006612D03*
X013815Y006457D03*
X014098Y006539D03*
X014691Y006612D03*
X013696Y007817D03*
X013304Y007342D03*
X013204Y007388D03*
D50*
X013121Y007461D03*
X013897Y007397D03*
X014071Y006594D03*
X014071Y006558D03*
X013861Y006494D03*
X013596Y006466D03*
X013596Y006576D03*
X013423Y006576D03*
X013039Y006576D03*
X013039Y006594D03*
X013039Y006621D03*
X013039Y006558D03*
X013039Y006530D03*
X013039Y006494D03*
X013039Y006466D03*
X013039Y006448D03*
X012738Y006594D03*
X012866Y008209D03*
X012902Y008237D03*
X013167Y008410D03*
X013642Y008237D03*
X013979Y008364D03*
X014463Y006594D03*
X014463Y006576D03*
X014463Y006558D03*
X014463Y006494D03*
X014463Y006466D03*
X014463Y006448D03*
X014718Y006448D03*
X014718Y006594D03*
D51*
X013943Y006594D03*
X013815Y006448D03*
X013194Y007397D03*
X013477Y008319D03*
X013304Y008492D03*
X013788Y008492D03*
X012428Y006594D03*
X012099Y006640D03*
D52*
X012095Y006494D03*
X012989Y007160D03*
X013172Y007415D03*
X013546Y007160D03*
X013427Y006594D03*
X013418Y006466D03*
X013427Y006448D03*
X014112Y006494D03*
X012916Y007908D03*
X012642Y007844D03*
X013217Y008447D03*
X013902Y008428D03*
D53*
X013327Y007333D03*
X013071Y007132D03*
X012661Y006448D03*
X013820Y006466D03*
X013938Y006576D03*
D54*
X013824Y006475D03*
X013450Y008328D03*
X013140Y008337D03*
D55*
X012168Y006558D03*
X014559Y006494D03*
D56*
X014166Y006512D03*
D57*
X013231Y006512D03*
D58*
X012077Y006512D03*
X012962Y008273D03*
X013582Y008273D03*
D59*
X013231Y006539D03*
X013231Y006521D03*
D60*
X012606Y006521D03*
X013683Y008200D03*
D61*
X014399Y006530D03*
D62*
X014148Y006530D03*
X014148Y006621D03*
D63*
X013231Y006530D03*
D64*
X012606Y006530D03*
X013208Y007908D03*
D65*
X012962Y007698D03*
X012661Y007589D03*
X012661Y007570D03*
X012670Y007543D03*
X012679Y007525D03*
X012761Y007288D03*
X012752Y007242D03*
X012725Y007132D03*
X012715Y007096D03*
X012706Y007050D03*
X013272Y007288D03*
X013327Y007224D03*
X013801Y007397D03*
X013838Y007461D03*
X013847Y007479D03*
X013865Y007525D03*
X013874Y007543D03*
X013883Y007570D03*
X013883Y007589D03*
X014084Y007525D03*
X014148Y007762D03*
X014166Y007908D03*
X014166Y007936D03*
X014166Y007954D03*
X013692Y006831D03*
X014559Y006558D03*
X012661Y007872D03*
X012670Y007908D03*
X012679Y007936D03*
X012615Y007908D03*
X012615Y007872D03*
X012597Y008063D03*
X012588Y008127D03*
X012579Y008209D03*
X012579Y008237D03*
D66*
X013733Y008510D03*
X013760Y007333D03*
X013934Y006558D03*
D67*
X013934Y006567D03*
X013733Y007324D03*
D68*
X014641Y006640D03*
X012442Y006576D03*
D69*
X013163Y007424D03*
X014723Y006585D03*
D70*
X014563Y006585D03*
X014061Y006585D03*
X013313Y006585D03*
X012729Y006585D03*
X013934Y007424D03*
X014089Y007580D03*
X013915Y008419D03*
D71*
X013596Y006585D03*
X013423Y006585D03*
X013039Y006585D03*
X014463Y006585D03*
D72*
X014221Y006585D03*
X013792Y006585D03*
X013144Y006585D03*
X012588Y006585D03*
X012168Y006585D03*
X012040Y006585D03*
X012925Y007963D03*
X013263Y007963D03*
D73*
X013760Y008501D03*
X013943Y006585D03*
D74*
X012433Y006585D03*
X013327Y008501D03*
D75*
X013231Y008456D03*
X013149Y007863D03*
X013185Y007406D03*
X013021Y007151D03*
X013487Y007142D03*
X013441Y006603D03*
X013578Y006603D03*
X012419Y006603D03*
D76*
X012912Y007844D03*
X012912Y007872D03*
X013943Y008063D03*
X013824Y008474D03*
X014071Y007543D03*
X013952Y006621D03*
D77*
X012099Y006621D03*
D78*
X012099Y006631D03*
D79*
X014390Y006640D03*
D80*
X013509Y006640D03*
D81*
X013692Y007315D03*
X014385Y006649D03*
X013409Y008337D03*
X013701Y008520D03*
D82*
X013783Y007342D03*
X013217Y007379D03*
X014166Y006649D03*
D83*
X013719Y006804D03*
X013345Y007205D03*
X013336Y007215D03*
X013810Y007406D03*
X013856Y007497D03*
X013893Y007616D03*
X013893Y007625D03*
X013893Y007644D03*
X013893Y007662D03*
X013902Y007707D03*
X013902Y007726D03*
X014075Y007497D03*
X014075Y007488D03*
X014066Y007452D03*
X014157Y008027D03*
X013336Y008045D03*
X013126Y007817D03*
X012953Y007726D03*
X012642Y007707D03*
X012642Y007689D03*
X012652Y007644D03*
X012652Y007625D03*
X012652Y007616D03*
X012688Y007497D03*
X012734Y007406D03*
X012779Y007361D03*
X012743Y007215D03*
X012743Y007205D03*
X012734Y007169D03*
X012697Y007014D03*
X012688Y006977D03*
X012743Y006649D03*
X012569Y006649D03*
X013035Y006649D03*
X012606Y007945D03*
X012606Y007981D03*
X012606Y007990D03*
X012697Y007981D03*
X012944Y008072D03*
X012953Y008100D03*
X012569Y008264D03*
X012569Y008282D03*
X012569Y008291D03*
X012569Y008310D03*
X012560Y008328D03*
X012560Y008337D03*
X012560Y008355D03*
X012560Y008374D03*
D84*
X012743Y007379D03*
X012405Y006649D03*
X013865Y008027D03*
D85*
X014071Y007872D03*
X013897Y007698D03*
X013897Y007671D03*
X014025Y007306D03*
X014025Y007288D03*
X013596Y006941D03*
X013514Y007032D03*
X013724Y006795D03*
X012693Y006986D03*
X012647Y006795D03*
X012693Y007479D03*
X012820Y007525D03*
X012820Y007543D03*
X012647Y007671D03*
X012693Y007972D03*
X012738Y008063D03*
X013423Y007999D03*
X014071Y008255D03*
D86*
X013874Y008036D03*
X014166Y007890D03*
X013701Y007269D03*
X013354Y007196D03*
X013710Y006813D03*
X012670Y006895D03*
X012615Y007890D03*
X012579Y008191D03*
D87*
X012569Y008273D03*
X012560Y008346D03*
X013044Y008273D03*
X012652Y007653D03*
X012688Y006968D03*
X012652Y006813D03*
X013856Y007507D03*
X013893Y007653D03*
X013902Y007735D03*
X014157Y007808D03*
D88*
X014144Y007735D03*
X014080Y007890D03*
X014153Y008036D03*
X013797Y008036D03*
X013797Y007890D03*
X013587Y007890D03*
X013587Y007808D03*
X013587Y008036D03*
X013331Y008036D03*
X012985Y008191D03*
X012939Y008036D03*
X012720Y008036D03*
X012665Y007890D03*
X012638Y007735D03*
X012848Y007653D03*
X012811Y007507D03*
X012683Y007507D03*
X012775Y007351D03*
X012756Y007269D03*
X013213Y007351D03*
X013286Y007269D03*
X013569Y006968D03*
X013633Y006895D03*
X013998Y007196D03*
X014016Y007269D03*
X014043Y007351D03*
X014080Y007507D03*
X012884Y007808D03*
D89*
X012944Y007762D03*
X012642Y007717D03*
X012642Y007698D03*
X012652Y007634D03*
X012734Y007397D03*
X012816Y007306D03*
X012734Y007178D03*
X012734Y007160D03*
X012697Y007005D03*
X012606Y007954D03*
X012606Y007972D03*
X012569Y008255D03*
X012569Y008301D03*
X012560Y008364D03*
X012560Y008383D03*
X012944Y008082D03*
X013902Y007717D03*
X013893Y007634D03*
X013810Y007415D03*
X014066Y007461D03*
X014075Y007479D03*
D90*
X014061Y007424D03*
X014080Y007963D03*
X014162Y007963D03*
X014134Y008118D03*
X013797Y007963D03*
X013760Y008118D03*
X013587Y007963D03*
X013441Y007963D03*
X012957Y008118D03*
X013021Y007580D03*
X012829Y007580D03*
X012793Y007424D03*
X012720Y007424D03*
X012702Y007041D03*
X013505Y007041D03*
D91*
X013263Y007096D03*
D92*
X013254Y007105D03*
D93*
X013231Y007114D03*
D94*
X013423Y007123D03*
D95*
X013363Y007123D03*
X012725Y007123D03*
X012661Y007580D03*
X012588Y008118D03*
X013883Y007580D03*
D96*
X013112Y007123D03*
D97*
X013724Y007288D03*
X013340Y007826D03*
X013340Y007844D03*
X013340Y007872D03*
X013340Y007908D03*
X013340Y007936D03*
X013340Y007954D03*
X013340Y007972D03*
X013340Y007999D03*
X013121Y007999D03*
X013121Y008018D03*
X013121Y007972D03*
X013121Y007954D03*
X013121Y007936D03*
X013121Y007908D03*
X013121Y007872D03*
X013760Y008109D03*
X012601Y008018D03*
X012601Y007999D03*
X012610Y007936D03*
X012565Y008319D03*
D98*
X013541Y007288D03*
D99*
X013537Y007297D03*
D100*
X013537Y007306D03*
D101*
X013779Y007379D03*
X013897Y007744D03*
X013760Y008100D03*
X013340Y008054D03*
X013340Y007990D03*
X013340Y007981D03*
X013340Y007945D03*
X013340Y007926D03*
X013340Y007917D03*
X013340Y007899D03*
X013340Y007881D03*
X013340Y007863D03*
X013340Y007853D03*
X013340Y007835D03*
X013340Y007817D03*
X013121Y007881D03*
X013121Y007899D03*
X013121Y007917D03*
X013121Y007926D03*
X013121Y007945D03*
X013121Y007981D03*
X013121Y007990D03*
X013121Y008009D03*
X013121Y008027D03*
X013121Y008045D03*
X013121Y008054D03*
X012601Y008027D03*
X012601Y008009D03*
X012610Y007926D03*
X012574Y008246D03*
X012556Y008392D03*
X012738Y007388D03*
X012811Y007315D03*
D102*
X013245Y007361D03*
X013354Y007324D03*
D103*
X013286Y007351D03*
X013806Y007351D03*
D104*
X013847Y007370D03*
X013528Y008301D03*
X013263Y008474D03*
X013071Y008319D03*
X013026Y008301D03*
D105*
X013231Y007370D03*
D106*
X013820Y007424D03*
X012688Y007963D03*
X012606Y007963D03*
D107*
X013080Y007507D03*
D108*
X013952Y007808D03*
D109*
X013733Y007808D03*
D110*
X013340Y007808D03*
X013340Y007890D03*
X013121Y007890D03*
X013121Y007808D03*
X013121Y008036D03*
X012601Y008036D03*
D111*
X012592Y008082D03*
X012592Y008109D03*
X012583Y008145D03*
X012583Y008173D03*
X013870Y007826D03*
D112*
X013058Y008282D03*
X013094Y008355D03*
X012583Y008164D03*
X012583Y008155D03*
X012583Y008136D03*
X012592Y008100D03*
X012592Y008091D03*
X012592Y008072D03*
X012620Y007863D03*
X012620Y007853D03*
D113*
X012916Y007890D03*
D114*
X013737Y007936D03*
D115*
X013537Y007936D03*
D116*
X013340Y007963D03*
X013121Y007963D03*
D117*
X013943Y008054D03*
D118*
X013733Y008054D03*
X013523Y008054D03*
D119*
X012779Y008118D03*
D120*
X013286Y008346D03*
D121*
X013281Y008355D03*
D122*
X013181Y008419D03*
D123*
X013354Y008510D03*
D124*
X013071Y008529D03*
D125*
X013053Y008538D03*
D126*
X013039Y008547D03*
D127*
X013007Y008556D03*
D128*
X009206Y007016D02*
X008924Y006670D01*
X009161Y006432D01*
X009508Y006715D01*
X009576Y006676D01*
X009647Y006643D01*
X009845Y007120D01*
X009773Y007158D01*
X009710Y007209D01*
X009658Y007270D01*
X009618Y007340D01*
X009591Y007416D01*
X009579Y007496D01*
X009583Y007577D01*
X009601Y007656D01*
X009634Y007729D01*
X009680Y007796D01*
X009738Y007852D01*
X009805Y007897D01*
X009879Y007929D01*
X009958Y007946D01*
X010039Y007948D01*
X010119Y007935D01*
X010194Y007907D01*
X010264Y007866D01*
X010324Y007812D01*
X010374Y007748D01*
X010410Y007676D01*
X010433Y007599D01*
X010440Y007518D01*
X010434Y007446D01*
X010416Y007376D01*
X010386Y007310D01*
X010346Y007250D01*
X010296Y007197D01*
X010239Y007154D01*
X010174Y007120D01*
X010372Y006643D01*
X010443Y006676D01*
X010512Y006715D01*
X010858Y006432D01*
X011095Y006670D01*
X010813Y007016D01*
X010863Y007108D01*
X010903Y007205D01*
X010933Y007305D01*
X011377Y007350D01*
X011377Y007686D01*
X010933Y007731D01*
X010903Y007832D01*
X010863Y007929D01*
X010813Y008020D01*
X011095Y008367D01*
X010858Y008604D01*
X010512Y008322D01*
X010420Y008372D01*
X010323Y008412D01*
X010223Y008441D01*
X010177Y008886D01*
X009842Y008886D01*
X009796Y008441D01*
X009696Y008412D01*
X009599Y008372D01*
X009508Y008322D01*
X009161Y008604D01*
X008924Y008367D01*
X009206Y008020D01*
X009156Y007929D01*
X009116Y007832D01*
X009086Y007731D01*
X008642Y007686D01*
X008642Y007350D01*
X009086Y007305D01*
X009116Y007205D01*
X009156Y007108D01*
X009206Y007016D01*
X009195Y007037D02*
X009810Y007037D01*
X009786Y006980D02*
X009176Y006980D01*
X009129Y006922D02*
X009763Y006922D01*
X009739Y006865D02*
X009082Y006865D01*
X009035Y006807D02*
X009715Y006807D01*
X009691Y006750D02*
X008989Y006750D01*
X008942Y006692D02*
X009479Y006692D01*
X009548Y006692D02*
X009667Y006692D01*
X009409Y006634D02*
X008959Y006634D01*
X009017Y006577D02*
X009338Y006577D01*
X009268Y006519D02*
X009074Y006519D01*
X009132Y006462D02*
X009197Y006462D01*
X009163Y007095D02*
X009834Y007095D01*
X009784Y007152D02*
X009137Y007152D01*
X009114Y007210D02*
X009709Y007210D01*
X009660Y007268D02*
X009097Y007268D01*
X008891Y007325D02*
X009626Y007325D01*
X009603Y007383D02*
X008642Y007383D01*
X008642Y007440D02*
X009588Y007440D01*
X009580Y007498D02*
X008642Y007498D01*
X008642Y007555D02*
X009582Y007555D01*
X009591Y007613D02*
X008642Y007613D01*
X008642Y007670D02*
X009608Y007670D01*
X009634Y007728D02*
X009052Y007728D01*
X009102Y007786D02*
X009673Y007786D01*
X009728Y007843D02*
X009120Y007843D01*
X009144Y007901D02*
X009813Y007901D01*
X010205Y007901D02*
X010875Y007901D01*
X010899Y007843D02*
X010289Y007843D01*
X010345Y007786D02*
X010917Y007786D01*
X010967Y007728D02*
X010384Y007728D01*
X010412Y007670D02*
X011377Y007670D01*
X011377Y007613D02*
X010428Y007613D01*
X010437Y007555D02*
X011377Y007555D01*
X011377Y007498D02*
X010438Y007498D01*
X010433Y007440D02*
X011377Y007440D01*
X011377Y007383D02*
X010418Y007383D01*
X010393Y007325D02*
X011128Y007325D01*
X010922Y007268D02*
X010358Y007268D01*
X010309Y007210D02*
X010905Y007210D01*
X010882Y007152D02*
X010236Y007152D01*
X010185Y007095D02*
X010856Y007095D01*
X010824Y007037D02*
X010209Y007037D01*
X010233Y006980D02*
X010843Y006980D01*
X010890Y006922D02*
X010256Y006922D01*
X010280Y006865D02*
X010937Y006865D01*
X010984Y006807D02*
X010304Y006807D01*
X010328Y006750D02*
X011030Y006750D01*
X011077Y006692D02*
X010540Y006692D01*
X010471Y006692D02*
X010352Y006692D01*
X010610Y006634D02*
X011060Y006634D01*
X011002Y006577D02*
X010681Y006577D01*
X010751Y006519D02*
X010945Y006519D01*
X010887Y006462D02*
X010822Y006462D01*
X010847Y007958D02*
X009172Y007958D01*
X009204Y008016D02*
X010815Y008016D01*
X010856Y008073D02*
X009163Y008073D01*
X009116Y008131D02*
X010903Y008131D01*
X010950Y008188D02*
X009069Y008188D01*
X009022Y008246D02*
X010997Y008246D01*
X011044Y008304D02*
X008975Y008304D01*
X008928Y008361D02*
X009459Y008361D01*
X009389Y008419D02*
X008976Y008419D01*
X009033Y008476D02*
X009318Y008476D01*
X009248Y008534D02*
X009091Y008534D01*
X009148Y008591D02*
X009177Y008591D01*
X009579Y008361D02*
X010440Y008361D01*
X010560Y008361D02*
X011091Y008361D01*
X011043Y008419D02*
X010630Y008419D01*
X010701Y008476D02*
X010986Y008476D01*
X010928Y008534D02*
X010772Y008534D01*
X010842Y008591D02*
X010871Y008591D01*
X010301Y008419D02*
X009718Y008419D01*
X009800Y008476D02*
X010219Y008476D01*
X010213Y008534D02*
X009806Y008534D01*
X009812Y008591D02*
X010207Y008591D01*
X010202Y008649D02*
X009817Y008649D01*
X009823Y008706D02*
X010196Y008706D01*
X010190Y008764D02*
X009829Y008764D01*
X009835Y008822D02*
X010184Y008822D01*
X010178Y008879D02*
X009841Y008879D01*
D129*
X005561Y026468D03*
X005678Y026752D03*
X005644Y026902D03*
X005578Y027052D03*
X005561Y027152D03*
X005694Y027435D03*
X005644Y027568D03*
X005561Y027685D03*
X005561Y027701D03*
X005561Y027918D03*
X005528Y028001D03*
X005628Y028001D03*
X005461Y028251D03*
X005628Y028451D03*
X005511Y028535D03*
X009244Y027168D03*
X009961Y027168D03*
X013344Y027168D03*
X013644Y027568D03*
X013660Y027618D03*
X015543Y027435D03*
X016343Y027535D03*
X016493Y027435D03*
X016510Y027651D03*
D130*
X016535Y027651D03*
X016551Y027651D03*
X016585Y027651D03*
X016635Y027618D03*
X016651Y027618D03*
X016668Y027585D03*
X016635Y027535D03*
X016651Y027501D03*
X016701Y027535D03*
X016718Y027535D03*
X016735Y027501D03*
X016668Y027435D03*
X016668Y027385D03*
X016668Y027318D03*
X016651Y027302D03*
X016635Y027268D03*
X016601Y027235D03*
X016585Y027235D03*
X016585Y027168D03*
X016551Y027168D03*
X016535Y027168D03*
X016468Y027168D03*
X016435Y027168D03*
X016418Y027168D03*
X016418Y027235D03*
X016402Y027235D03*
X016435Y027235D03*
X016368Y027268D03*
X016318Y027235D03*
X016302Y027268D03*
X016302Y027385D03*
X016285Y027385D03*
X016285Y027435D03*
X016352Y027501D03*
X016368Y027535D03*
X016402Y027568D03*
X016418Y027568D03*
X016418Y027585D03*
X016435Y027585D03*
X016402Y027618D03*
X016368Y027618D03*
X016352Y027585D03*
X016318Y027568D03*
X016318Y027535D03*
X016302Y027535D03*
X016435Y027651D03*
X016468Y027651D03*
X016485Y027651D03*
X016585Y027585D03*
X016601Y027568D03*
X016518Y027435D03*
X016468Y027435D03*
X016718Y027302D03*
X016735Y027302D03*
X016735Y027318D03*
X016718Y027268D03*
X016701Y027268D03*
X016135Y027168D03*
X016118Y027168D03*
X016102Y027168D03*
X015902Y027302D03*
X015902Y027318D03*
X015902Y027352D03*
X015902Y027385D03*
X015885Y027385D03*
X015835Y027318D03*
X015818Y027302D03*
X015868Y027268D03*
X015752Y027235D03*
X015752Y027168D03*
X015635Y027168D03*
X015602Y027168D03*
X015585Y027168D03*
X015585Y027235D03*
X015568Y027235D03*
X015535Y027268D03*
X015485Y027235D03*
X015468Y027268D03*
X015468Y027385D03*
X015452Y027385D03*
X015452Y027435D03*
X015518Y027435D03*
X015518Y027501D03*
X015535Y027535D03*
X015568Y027568D03*
X015585Y027568D03*
X015585Y027585D03*
X015602Y027585D03*
X015602Y027651D03*
X015635Y027651D03*
X015702Y027651D03*
X015718Y027651D03*
X015752Y027651D03*
X015752Y027585D03*
X015768Y027568D03*
X015785Y027568D03*
X015835Y027585D03*
X015818Y027618D03*
X015885Y027535D03*
X015902Y027501D03*
X015818Y027501D03*
X015785Y027435D03*
X015652Y027435D03*
X015468Y027535D03*
X015485Y027568D03*
X015535Y027618D03*
X015302Y027501D03*
X015285Y027501D03*
X015285Y027535D03*
X015268Y027535D03*
X015235Y027585D03*
X015218Y027618D03*
X015168Y027568D03*
X015118Y027585D03*
X015118Y027651D03*
X015102Y027651D03*
X015002Y027651D03*
X014985Y027651D03*
X014985Y027585D03*
X014952Y027568D03*
X014935Y027568D03*
X014918Y027535D03*
X014885Y027535D03*
X014868Y027535D03*
X014868Y027568D03*
X014868Y027585D03*
X014918Y027618D03*
X014802Y027618D03*
X014802Y027651D03*
X014468Y027618D03*
X014318Y027651D03*
X014268Y027618D03*
X014285Y027585D03*
X014235Y027568D03*
X014218Y027585D03*
X014202Y027585D03*
X014202Y027651D03*
X014218Y027651D03*
X014118Y027618D03*
X013985Y027568D03*
X013968Y027585D03*
X013935Y027618D03*
X013918Y027618D03*
X013902Y027568D03*
X013868Y027585D03*
X013852Y027585D03*
X013852Y027651D03*
X013868Y027651D03*
X013818Y027651D03*
X013752Y027651D03*
X013735Y027651D03*
X013702Y027651D03*
X013702Y027585D03*
X013685Y027585D03*
X013685Y027568D03*
X013669Y027568D03*
X013635Y027535D03*
X013619Y027568D03*
X013585Y027568D03*
X013569Y027535D03*
X013552Y027501D03*
X013619Y027501D03*
X013635Y027618D03*
X013619Y027318D03*
X013619Y027302D03*
X013635Y027302D03*
X013569Y027268D03*
X013552Y027302D03*
X013552Y027318D03*
X013685Y027235D03*
X013702Y027235D03*
X013702Y027168D03*
X013735Y027168D03*
X013752Y027168D03*
X013818Y027168D03*
X013852Y027168D03*
X013868Y027168D03*
X013868Y027235D03*
X013852Y027235D03*
X013902Y027268D03*
X013918Y027268D03*
X013935Y027235D03*
X013968Y027235D03*
X013985Y027235D03*
X014002Y027268D03*
X014035Y027318D03*
X014035Y027352D03*
X014035Y027385D03*
X014035Y027435D03*
X013968Y027435D03*
X013968Y027385D03*
X013968Y027352D03*
X013935Y027302D03*
X013935Y027535D03*
X014002Y027535D03*
X014268Y027535D03*
X014285Y027501D03*
X014318Y027168D03*
X014618Y027168D03*
X014635Y027168D03*
X014652Y027168D03*
X014868Y027235D03*
X014885Y027235D03*
X014918Y027268D03*
X014935Y027268D03*
X014952Y027235D03*
X014985Y027235D03*
X014985Y027168D03*
X015002Y027168D03*
X015102Y027168D03*
X015118Y027168D03*
X015118Y027235D03*
X015185Y027268D03*
X015218Y027302D03*
X015218Y027318D03*
X015235Y027352D03*
X015235Y027385D03*
X015302Y027385D03*
X015302Y027352D03*
X015302Y027318D03*
X015285Y027318D03*
X015285Y027302D03*
X015268Y027268D03*
X015235Y027235D03*
X015302Y027435D03*
X015218Y027501D03*
X014885Y027302D03*
X014868Y027302D03*
X013369Y027168D03*
X013319Y027168D03*
X013052Y027535D03*
X012969Y027851D03*
X012902Y027851D03*
X012685Y027418D03*
X012685Y027385D03*
X012752Y027385D03*
X012752Y027352D03*
X012735Y027318D03*
X012619Y027268D03*
X012552Y027235D03*
X012552Y027168D03*
X012535Y027168D03*
X012369Y027168D03*
X012252Y027302D03*
X012202Y027268D03*
X012152Y027352D03*
X012152Y027385D03*
X012219Y027385D03*
X012219Y027418D03*
X011885Y027168D03*
X011602Y027418D03*
X011602Y027535D03*
X011685Y027535D03*
X011669Y027618D03*
X011685Y027651D03*
X011719Y027685D03*
X011802Y027685D03*
X011835Y027735D03*
X011785Y027768D03*
X011835Y027835D03*
X011485Y027385D03*
X011435Y027318D03*
X011419Y027302D03*
X011485Y027268D03*
X011502Y027302D03*
X011352Y027168D03*
X010336Y027168D03*
X009986Y027168D03*
X009936Y027168D03*
X009536Y027168D03*
X009219Y027168D03*
X009186Y027168D03*
X009186Y027235D03*
X009219Y027235D03*
X009119Y027268D03*
X009069Y027235D03*
X009052Y027235D03*
X009036Y027268D03*
X009002Y027302D03*
X008986Y027318D03*
X008969Y027352D03*
X008936Y027418D03*
X008936Y027435D03*
X009002Y027435D03*
X009052Y027352D03*
X009069Y027318D03*
X009002Y027585D03*
X009002Y027618D03*
X008936Y027618D03*
X008936Y027585D03*
X008936Y027651D03*
X009036Y027701D03*
X009052Y027735D03*
X009002Y027768D03*
X009052Y027835D03*
X009069Y027835D03*
X009186Y027835D03*
X009219Y027835D03*
X009236Y027851D03*
X010252Y027851D03*
X005703Y027418D03*
X005669Y027385D03*
X005653Y027385D03*
X005653Y027352D03*
X005669Y027352D03*
X005653Y027318D03*
X005653Y027302D03*
X005619Y027302D03*
X005619Y027318D03*
X005653Y027235D03*
X005669Y027235D03*
X005669Y027168D03*
X005653Y027168D03*
X005653Y027152D03*
X005619Y027152D03*
X005603Y027152D03*
X005586Y027152D03*
X005619Y027168D03*
X005536Y027152D03*
X005503Y027152D03*
X005503Y027168D03*
X005486Y027168D03*
X005470Y027168D03*
X005486Y027152D03*
X005486Y027235D03*
X005470Y027235D03*
X005470Y027268D03*
X005486Y027268D03*
X005486Y027302D03*
X005486Y027318D03*
X005503Y027318D03*
X005503Y027302D03*
X005470Y027302D03*
X005470Y027418D03*
X005470Y027435D03*
X005486Y027435D03*
X005503Y027435D03*
X005536Y027418D03*
X005486Y027585D03*
X005470Y027585D03*
X005586Y027585D03*
X005603Y027585D03*
X005619Y027585D03*
X005653Y027618D03*
X005669Y027618D03*
X005669Y027651D03*
X005653Y027651D03*
X005619Y027701D03*
X005603Y027701D03*
X005586Y027701D03*
X005586Y027685D03*
X005536Y027685D03*
X005536Y027701D03*
X005503Y027701D03*
X005503Y027735D03*
X005486Y027735D03*
X005470Y027735D03*
X005470Y027768D03*
X005486Y027768D03*
X005486Y027835D03*
X005486Y027851D03*
X005470Y027851D03*
X005470Y027835D03*
X005503Y027851D03*
X005536Y027918D03*
X005586Y027918D03*
X005603Y027918D03*
X005653Y027851D03*
X005669Y027851D03*
X005669Y027768D03*
X005653Y027768D03*
X005653Y027735D03*
X005669Y027735D03*
X005619Y027735D03*
X005603Y027735D03*
X005669Y027568D03*
X005669Y028001D03*
X005653Y028001D03*
X005653Y028035D03*
X005669Y028035D03*
X005669Y028068D03*
X005653Y028068D03*
X005653Y028101D03*
X005669Y028101D03*
X005669Y028118D03*
X005653Y028118D03*
X005619Y028185D03*
X005586Y028151D03*
X005586Y028068D03*
X005553Y028068D03*
X005553Y028035D03*
X005586Y028035D03*
X005586Y028001D03*
X005603Y028001D03*
X005553Y028001D03*
X005503Y028001D03*
X005470Y028185D03*
X005470Y028268D03*
X005470Y028301D03*
X005486Y028301D03*
X005486Y028335D03*
X005386Y028451D03*
X005370Y028451D03*
X005320Y028418D03*
X005370Y028518D03*
X005386Y028518D03*
X005386Y028535D03*
X005370Y028535D03*
X005486Y028535D03*
X005536Y028535D03*
X005536Y028518D03*
X005553Y028518D03*
X005603Y028451D03*
X005653Y028451D03*
X005203Y028451D03*
X005203Y028418D03*
X005203Y028518D03*
X005203Y028535D03*
X005086Y028535D03*
X005086Y028518D03*
X005086Y028451D03*
X005086Y028418D03*
X005070Y028418D03*
X004970Y028451D03*
X004953Y028451D03*
X004953Y028518D03*
X004970Y028518D03*
X004970Y028535D03*
X004953Y028535D03*
X005486Y027052D03*
X005503Y027052D03*
X005503Y027018D03*
X005486Y027018D03*
X005486Y027002D03*
X005470Y027002D03*
X005470Y027018D03*
X005470Y026968D03*
X005470Y026935D03*
X005486Y026935D03*
X005486Y026902D03*
X005470Y026902D03*
X005470Y026885D03*
X005486Y026885D03*
X005503Y026885D03*
X005503Y026902D03*
X005536Y026885D03*
X005553Y026885D03*
X005553Y026902D03*
X005553Y026935D03*
X005586Y026935D03*
X005586Y026968D03*
X005553Y026968D03*
X005553Y027002D03*
X005553Y027018D03*
X005586Y027018D03*
X005586Y027002D03*
X005619Y027018D03*
X005619Y027052D03*
X005603Y027052D03*
X005553Y027052D03*
X005653Y027018D03*
X005653Y027002D03*
X005669Y027002D03*
X005669Y027018D03*
X005669Y026968D03*
X005653Y026968D03*
X005653Y026935D03*
X005669Y026935D03*
X005669Y026902D03*
X005653Y026885D03*
X005619Y026885D03*
X005603Y026885D03*
X005586Y026885D03*
X005586Y026902D03*
X005619Y026902D03*
X005603Y026852D03*
X005586Y026852D03*
X005553Y026852D03*
X005536Y026852D03*
X005553Y026668D03*
X005553Y026635D03*
X005553Y026618D03*
X005553Y026585D03*
X005586Y026585D03*
X005586Y026618D03*
X005586Y026635D03*
X005619Y026668D03*
X005653Y026635D03*
X005669Y026635D03*
X005669Y026618D03*
X005653Y026618D03*
X005653Y026585D03*
X005669Y026585D03*
X005586Y026552D03*
X005553Y026552D03*
X005486Y026552D03*
X005470Y026552D03*
X005470Y026585D03*
X005470Y026618D03*
X005486Y026618D03*
X005486Y026635D03*
X005470Y026635D03*
X005486Y026668D03*
X005503Y026668D03*
X005503Y026485D03*
X005536Y026468D03*
X005586Y026468D03*
X005603Y026468D03*
X005603Y026485D03*
X005619Y026485D03*
X005786Y026752D03*
D131*
X005561Y026485D03*
X005528Y027585D03*
X005361Y028418D03*
X005028Y028418D03*
X005061Y028601D03*
X008977Y027651D03*
X008994Y027685D03*
X008994Y027701D03*
X009011Y027735D03*
X009044Y027768D03*
X008961Y027568D03*
X008961Y027535D03*
X008961Y027501D03*
X008977Y027418D03*
X009011Y027352D03*
X009027Y027318D03*
X009044Y027302D03*
X009077Y027268D03*
X009511Y027268D03*
X009511Y027235D03*
X009511Y027302D03*
X009511Y027318D03*
X009511Y027352D03*
X009511Y027385D03*
X009511Y027418D03*
X009511Y027435D03*
X009511Y027501D03*
X009511Y027535D03*
X009511Y027568D03*
X009511Y027585D03*
X009511Y027618D03*
X009511Y027651D03*
X009511Y027685D03*
X009511Y027701D03*
X009511Y027735D03*
X009511Y027768D03*
X009511Y027835D03*
X009511Y027851D03*
X009961Y027851D03*
X009961Y027835D03*
X009961Y027768D03*
X009961Y027735D03*
X009961Y027701D03*
X009961Y027685D03*
X009961Y027651D03*
X009961Y027618D03*
X009961Y027585D03*
X009961Y027568D03*
X009961Y027535D03*
X009961Y027501D03*
X009961Y027435D03*
X009961Y027418D03*
X009961Y027385D03*
X009961Y027352D03*
X009961Y027318D03*
X009961Y027302D03*
X009961Y027268D03*
X009961Y027235D03*
X010777Y027235D03*
X010777Y027268D03*
X010777Y027302D03*
X010777Y027318D03*
X010777Y027352D03*
X010777Y027385D03*
X010777Y027418D03*
X010777Y027435D03*
X010777Y027501D03*
X010777Y027535D03*
X010777Y027568D03*
X010777Y027585D03*
X010777Y027618D03*
X010777Y027651D03*
X010777Y027685D03*
X010777Y027701D03*
X010777Y027735D03*
X010777Y027768D03*
X010777Y027835D03*
X010777Y027851D03*
X011377Y027851D03*
X011377Y027835D03*
X011377Y027768D03*
X011377Y027735D03*
X011377Y027701D03*
X011377Y027685D03*
X011377Y027651D03*
X011377Y027618D03*
X011377Y027585D03*
X011377Y027568D03*
X011377Y027535D03*
X011377Y027501D03*
X011377Y027435D03*
X011377Y027418D03*
X011377Y027385D03*
X011377Y027352D03*
X011377Y027318D03*
X011377Y027302D03*
X011460Y027302D03*
X011477Y027318D03*
X011527Y027385D03*
X011644Y027535D03*
X011710Y027618D03*
X011760Y027685D03*
X011794Y027735D03*
X011827Y027768D03*
X011910Y027768D03*
X011910Y027735D03*
X011910Y027701D03*
X011910Y027685D03*
X011910Y027651D03*
X011910Y027618D03*
X011910Y027585D03*
X011910Y027568D03*
X011910Y027535D03*
X011910Y027501D03*
X011910Y027435D03*
X011910Y027418D03*
X011910Y027385D03*
X011910Y027352D03*
X011910Y027318D03*
X011910Y027302D03*
X011910Y027268D03*
X011910Y027235D03*
X012194Y027352D03*
X012210Y027318D03*
X012210Y027302D03*
X012244Y027268D03*
X012177Y027418D03*
X012177Y027435D03*
X012177Y027501D03*
X012177Y027535D03*
X012177Y027568D03*
X012177Y027585D03*
X012177Y027618D03*
X012177Y027651D03*
X012177Y027685D03*
X012177Y027701D03*
X012177Y027735D03*
X012177Y027768D03*
X012177Y027835D03*
X012177Y027851D03*
X012727Y027851D03*
X012727Y027835D03*
X012727Y027768D03*
X012727Y027735D03*
X012727Y027701D03*
X012727Y027685D03*
X012727Y027651D03*
X012727Y027618D03*
X012727Y027585D03*
X012727Y027568D03*
X012727Y027535D03*
X012727Y027501D03*
X012727Y027435D03*
X012727Y027418D03*
X012710Y027352D03*
X012694Y027318D03*
X012694Y027302D03*
X012660Y027268D03*
X013344Y027268D03*
X013344Y027235D03*
X013344Y027302D03*
X013344Y027318D03*
X013344Y027352D03*
X013344Y027385D03*
X013344Y027418D03*
X013344Y027435D03*
X013344Y027501D03*
X013344Y027568D03*
X013344Y027585D03*
X013344Y027618D03*
X013344Y027651D03*
X013344Y027685D03*
X013344Y027701D03*
X013344Y027735D03*
X013344Y027768D03*
X013344Y027835D03*
X013344Y027851D03*
X013644Y027585D03*
X013560Y027435D03*
X013560Y027418D03*
X013610Y027268D03*
X013644Y027235D03*
X013960Y027268D03*
X014010Y027418D03*
X013943Y027568D03*
X013927Y027585D03*
X014343Y027585D03*
X014343Y027568D03*
X014343Y027618D03*
X014343Y027435D03*
X014343Y027418D03*
X014343Y027385D03*
X014343Y027352D03*
X014343Y027318D03*
X014343Y027302D03*
X014343Y027268D03*
X014343Y027235D03*
X014643Y027235D03*
X014643Y027268D03*
X014643Y027302D03*
X014643Y027318D03*
X014643Y027352D03*
X014643Y027385D03*
X014643Y027418D03*
X014643Y027435D03*
X014643Y027501D03*
X014643Y027535D03*
X014643Y027568D03*
X014643Y027585D03*
X014643Y027685D03*
X014643Y027701D03*
X014643Y027735D03*
X014643Y027768D03*
X015210Y027568D03*
X015277Y027418D03*
X015543Y027585D03*
X015793Y027585D03*
X015843Y027535D03*
X015860Y027501D03*
X015877Y027435D03*
X015860Y027302D03*
X016110Y027302D03*
X016110Y027318D03*
X016110Y027352D03*
X016110Y027385D03*
X016110Y027418D03*
X016110Y027435D03*
X016110Y027501D03*
X016110Y027535D03*
X016110Y027568D03*
X016110Y027585D03*
X016110Y027618D03*
X016110Y027651D03*
X016110Y027685D03*
X016110Y027701D03*
X016110Y027735D03*
X016110Y027768D03*
X016110Y027835D03*
X016110Y027851D03*
X016427Y027435D03*
X016626Y027585D03*
X016643Y027568D03*
X016693Y027501D03*
X016710Y027435D03*
X016710Y027385D03*
X016710Y027352D03*
X016643Y027235D03*
X016110Y027235D03*
X016110Y027268D03*
D132*
X016085Y027168D03*
X015852Y027235D03*
X015802Y027268D03*
X015735Y027235D03*
X015735Y027168D03*
X015618Y027168D03*
X015668Y027435D03*
X015735Y027585D03*
X015735Y027651D03*
X015802Y027618D03*
X015852Y027568D03*
X015802Y027535D03*
X015918Y027418D03*
X015918Y027385D03*
X015852Y027352D03*
X015502Y027435D03*
X015502Y027568D03*
X015502Y027585D03*
X015552Y027618D03*
X015618Y027651D03*
X015252Y027585D03*
X015252Y027568D03*
X015202Y027535D03*
X015202Y027618D03*
X015135Y027585D03*
X015135Y027651D03*
X015085Y027651D03*
X015018Y027651D03*
X014968Y027651D03*
X014968Y027585D03*
X014902Y027535D03*
X014852Y027535D03*
X014785Y027651D03*
X014602Y027651D03*
X014485Y027651D03*
X014485Y027618D03*
X014368Y027651D03*
X014302Y027585D03*
X014302Y027568D03*
X014252Y027568D03*
X014252Y027618D03*
X014185Y027651D03*
X014135Y027651D03*
X014018Y027535D03*
X014018Y027501D03*
X013952Y027501D03*
X013885Y027568D03*
X013885Y027585D03*
X013835Y027651D03*
X013718Y027651D03*
X013718Y027585D03*
X013602Y027585D03*
X013602Y027568D03*
X013535Y027501D03*
X013535Y027385D03*
X013535Y027352D03*
X013535Y027318D03*
X013602Y027352D03*
X013602Y027385D03*
X013652Y027268D03*
X013602Y027235D03*
X013718Y027235D03*
X013718Y027168D03*
X013835Y027168D03*
X013885Y027235D03*
X013952Y027235D03*
X013952Y027302D03*
X013952Y027318D03*
X014018Y027318D03*
X014018Y027302D03*
X014302Y027435D03*
X014368Y027168D03*
X014668Y027168D03*
X014852Y027268D03*
X014902Y027302D03*
X014968Y027235D03*
X014968Y027168D03*
X015018Y027168D03*
X015085Y027168D03*
X015135Y027168D03*
X015135Y027235D03*
X016335Y027435D03*
X016385Y027435D03*
X016385Y027501D03*
X016385Y027535D03*
X016335Y027568D03*
X016335Y027585D03*
X016385Y027618D03*
X016451Y027651D03*
X016568Y027651D03*
X016685Y027568D03*
X016751Y027418D03*
X016751Y027385D03*
X016685Y027235D03*
X016568Y027235D03*
X016568Y027168D03*
X016451Y027168D03*
X013302Y027851D03*
X013069Y027568D03*
X012702Y027268D03*
X012652Y027302D03*
X012352Y027235D03*
X012352Y027168D03*
X012285Y027268D03*
X012169Y027318D03*
X011935Y027168D03*
X011569Y027385D03*
X011519Y027435D03*
X011519Y027318D03*
X011452Y027235D03*
X011402Y027168D03*
X011635Y027585D03*
X011752Y027618D03*
X011819Y027701D03*
X011752Y027735D03*
X011869Y027768D03*
X010802Y027168D03*
X010736Y027235D03*
X010319Y027168D03*
X009669Y027851D03*
X009252Y027851D03*
X009202Y027835D03*
X009086Y027851D03*
X009086Y027768D03*
X009019Y027651D03*
X008952Y027685D03*
X009019Y027418D03*
X009019Y027385D03*
X008952Y027385D03*
X009019Y027268D03*
X009086Y027302D03*
X009136Y027268D03*
X009202Y027235D03*
X009202Y027168D03*
X005753Y027418D03*
X005753Y027435D03*
X005636Y027435D03*
X005570Y027435D03*
X005520Y027435D03*
X005453Y027435D03*
X005453Y027418D03*
X005520Y027318D03*
X005520Y027302D03*
X005453Y027268D03*
X005453Y027235D03*
X005520Y027168D03*
X005520Y027152D03*
X005520Y027052D03*
X005570Y027018D03*
X005570Y027002D03*
X005570Y026968D03*
X005570Y026935D03*
X005570Y026902D03*
X005570Y026885D03*
X005570Y026852D03*
X005520Y026852D03*
X005520Y026885D03*
X005453Y026935D03*
X005453Y026968D03*
X005453Y027002D03*
X005453Y027018D03*
X005636Y027018D03*
X005636Y027002D03*
X005636Y027052D03*
X005686Y026968D03*
X005636Y026885D03*
X005636Y026668D03*
X005636Y026635D03*
X005636Y026618D03*
X005686Y026585D03*
X005686Y026552D03*
X005636Y026485D03*
X005570Y026552D03*
X005570Y026585D03*
X005570Y026618D03*
X005570Y026635D03*
X005520Y026668D03*
X005453Y026635D03*
X005453Y026618D03*
X005453Y026585D03*
X005453Y026552D03*
X005520Y026485D03*
X005453Y026752D03*
X005636Y027152D03*
X005636Y027168D03*
X005686Y027235D03*
X005636Y027302D03*
X005636Y027318D03*
X005636Y027585D03*
X005636Y027618D03*
X005570Y027585D03*
X005453Y027568D03*
X005520Y027701D03*
X005520Y027735D03*
X005453Y027768D03*
X005453Y027835D03*
X005453Y027851D03*
X005453Y027985D03*
X005453Y028001D03*
X005570Y028001D03*
X005570Y028035D03*
X005570Y028068D03*
X005520Y028151D03*
X005520Y028185D03*
X005453Y028268D03*
X005453Y028301D03*
X005453Y028418D03*
X005520Y028518D03*
X005686Y028418D03*
X005686Y028335D03*
X005686Y028118D03*
X005686Y028101D03*
X005686Y028068D03*
X005686Y028035D03*
X005686Y028001D03*
X005686Y027985D03*
X005636Y027851D03*
X005636Y027768D03*
X005636Y027735D03*
X005270Y028418D03*
X005220Y028418D03*
X005220Y028451D03*
X005220Y028518D03*
X005220Y028535D03*
X005103Y028535D03*
X005103Y028518D03*
X005103Y028451D03*
X005103Y028418D03*
X004986Y028418D03*
X004986Y028451D03*
D133*
X004970Y028435D03*
X005003Y028435D03*
X005020Y028435D03*
X004970Y028468D03*
X004953Y028468D03*
X004953Y028501D03*
X004970Y028501D03*
X004936Y028501D03*
X004953Y028551D03*
X004970Y028551D03*
X005003Y028585D03*
X005086Y028551D03*
X005086Y028501D03*
X005086Y028468D03*
X005086Y028435D03*
X005203Y028435D03*
X005203Y028468D03*
X005203Y028501D03*
X005203Y028551D03*
X005136Y028585D03*
X005286Y028585D03*
X005370Y028585D03*
X005386Y028585D03*
X005386Y028551D03*
X005370Y028551D03*
X005370Y028501D03*
X005386Y028501D03*
X005386Y028468D03*
X005370Y028468D03*
X005370Y028435D03*
X005386Y028435D03*
X005470Y028435D03*
X005486Y028435D03*
X005553Y028435D03*
X005586Y028468D03*
X005603Y028468D03*
X005619Y028468D03*
X005619Y028435D03*
X005669Y028435D03*
X005669Y028351D03*
X005536Y028351D03*
X005486Y028285D03*
X005470Y028285D03*
X005470Y028235D03*
X005470Y028201D03*
X005486Y028201D03*
X005486Y028168D03*
X005553Y028018D03*
X005586Y028018D03*
X005653Y028018D03*
X005669Y028018D03*
X005669Y028085D03*
X005653Y028085D03*
X005619Y027901D03*
X005619Y027868D03*
X005653Y027868D03*
X005653Y027818D03*
X005669Y027818D03*
X005669Y027785D03*
X005653Y027785D03*
X005653Y027751D03*
X005669Y027751D03*
X005619Y027601D03*
X005653Y027485D03*
X005669Y027485D03*
X005669Y027451D03*
X005653Y027451D03*
X005653Y027252D03*
X005669Y027252D03*
X005669Y027218D03*
X005653Y027218D03*
X005653Y027185D03*
X005669Y027185D03*
X005619Y027135D03*
X005603Y027135D03*
X005603Y027068D03*
X005553Y027068D03*
X005553Y026985D03*
X005586Y026985D03*
X005586Y026918D03*
X005553Y026918D03*
X005486Y026918D03*
X005470Y026918D03*
X005470Y026985D03*
X005486Y026985D03*
X005503Y027135D03*
X005486Y027185D03*
X005470Y027185D03*
X005470Y027218D03*
X005486Y027218D03*
X005470Y027252D03*
X005653Y026985D03*
X005669Y026985D03*
X005669Y026918D03*
X005653Y026918D03*
X005786Y026768D03*
X005653Y026652D03*
X005619Y026652D03*
X005603Y026652D03*
X005586Y026652D03*
X005586Y026685D03*
X005603Y026685D03*
X005619Y026685D03*
X005553Y026685D03*
X005553Y026652D03*
X005503Y026652D03*
X005486Y026652D03*
X005470Y026652D03*
X005470Y026568D03*
X005470Y026535D03*
X005486Y026535D03*
X005486Y026502D03*
X005553Y026535D03*
X005586Y026535D03*
X005586Y026568D03*
X005553Y026568D03*
X005586Y026502D03*
X005603Y026502D03*
X005619Y026502D03*
X005653Y026502D03*
X005653Y026535D03*
X005669Y026535D03*
X005669Y026568D03*
X005653Y026568D03*
X005503Y027751D03*
X005486Y027751D03*
X005470Y027751D03*
X005470Y027785D03*
X005486Y027785D03*
X005470Y027818D03*
X005470Y027868D03*
X005486Y027868D03*
X005503Y027868D03*
X005503Y027901D03*
X005536Y028501D03*
X005586Y028501D03*
X005470Y028551D03*
X008936Y027601D03*
X009002Y027601D03*
X009002Y027485D03*
X009002Y027451D03*
X008936Y027451D03*
X008919Y027451D03*
X008936Y027485D03*
X009052Y027335D03*
X009069Y027335D03*
X009052Y027252D03*
X009036Y027252D03*
X009152Y027252D03*
X009169Y027252D03*
X009169Y027185D03*
X009152Y027185D03*
X009236Y027218D03*
X009069Y027751D03*
X009102Y027785D03*
X009052Y027818D03*
X009036Y027818D03*
X009002Y027785D03*
X008986Y027751D03*
X009102Y027868D03*
X009119Y027868D03*
X009152Y027818D03*
X009169Y027818D03*
X009186Y027901D03*
X009219Y027901D03*
X009536Y027901D03*
X010252Y027901D03*
X010252Y027868D03*
X010752Y027901D03*
X011352Y027901D03*
X011652Y027601D03*
X011735Y027601D03*
X011785Y027668D03*
X011769Y027751D03*
X011852Y027751D03*
X011852Y027868D03*
X011885Y027901D03*
X012152Y027901D03*
X012202Y027901D03*
X012219Y027401D03*
X012319Y027252D03*
X012302Y027185D03*
X012252Y027218D03*
X012419Y027218D03*
X012602Y027185D03*
X012669Y027335D03*
X012685Y027401D03*
X013052Y027518D03*
X012752Y027901D03*
X013369Y027901D03*
X013619Y027601D03*
X013619Y027518D03*
X013635Y027518D03*
X013552Y027518D03*
X013735Y027601D03*
X013752Y027601D03*
X013918Y027601D03*
X013935Y027601D03*
X013935Y027518D03*
X013968Y027485D03*
X013968Y027451D03*
X014035Y027451D03*
X014035Y027485D03*
X014035Y027335D03*
X013968Y027335D03*
X013985Y027252D03*
X013902Y027252D03*
X013902Y027185D03*
X013752Y027218D03*
X013735Y027218D03*
X013685Y027185D03*
X013669Y027185D03*
X013619Y027218D03*
X013585Y027252D03*
X013669Y027252D03*
X013685Y027252D03*
X014152Y027601D03*
X014168Y027601D03*
X014285Y027601D03*
X014285Y027518D03*
X014502Y027601D03*
X014518Y027601D03*
X014685Y027601D03*
X014702Y027601D03*
X014752Y027601D03*
X014768Y027601D03*
X014685Y027668D03*
X014618Y027818D03*
X014885Y027601D03*
X014885Y027518D03*
X014868Y027518D03*
X015002Y027601D03*
X015102Y027601D03*
X015218Y027601D03*
X015235Y027601D03*
X015218Y027518D03*
X015235Y027485D03*
X015235Y027451D03*
X015302Y027451D03*
X015302Y027485D03*
X015285Y027518D03*
X015452Y027485D03*
X015452Y027451D03*
X015452Y027401D03*
X015518Y027485D03*
X015535Y027518D03*
X015468Y027518D03*
X015518Y027601D03*
X015635Y027601D03*
X015685Y027601D03*
X015702Y027601D03*
X015718Y027601D03*
X015752Y027601D03*
X015818Y027601D03*
X015835Y027601D03*
X015818Y027518D03*
X015835Y027485D03*
X015835Y027451D03*
X015902Y027451D03*
X015902Y027485D03*
X015885Y027518D03*
X015902Y027335D03*
X015835Y027335D03*
X015868Y027252D03*
X015835Y027218D03*
X015818Y027218D03*
X015785Y027185D03*
X015768Y027185D03*
X015718Y027185D03*
X015718Y027218D03*
X015702Y027218D03*
X015635Y027218D03*
X015568Y027218D03*
X015568Y027185D03*
X015518Y027218D03*
X015468Y027252D03*
X015302Y027335D03*
X015235Y027335D03*
X015168Y027252D03*
X015218Y027218D03*
X015185Y027185D03*
X015168Y027185D03*
X015152Y027185D03*
X015102Y027218D03*
X015035Y027218D03*
X014952Y027185D03*
X014935Y027185D03*
X014885Y027218D03*
X014868Y027252D03*
X014935Y027252D03*
X014952Y027252D03*
X014618Y027185D03*
X014318Y027185D03*
X015768Y027252D03*
X015785Y027252D03*
X016135Y027185D03*
X016302Y027252D03*
X016318Y027252D03*
X016352Y027218D03*
X016402Y027185D03*
X016468Y027218D03*
X016535Y027218D03*
X016551Y027218D03*
X016601Y027185D03*
X016601Y027252D03*
X016668Y027218D03*
X016701Y027252D03*
X016668Y027335D03*
X016735Y027335D03*
X016668Y027451D03*
X016668Y027485D03*
X016651Y027518D03*
X016718Y027518D03*
X016735Y027485D03*
X016651Y027601D03*
X016551Y027601D03*
X016535Y027601D03*
X016485Y027601D03*
X016468Y027601D03*
X016352Y027601D03*
X016368Y027518D03*
X016352Y027485D03*
X016302Y027518D03*
X016285Y027485D03*
X016285Y027451D03*
X016285Y027401D03*
X016135Y027901D03*
X011669Y027518D03*
X011652Y027485D03*
X011619Y027451D03*
X011585Y027401D03*
X011535Y027451D03*
X011502Y027401D03*
X011535Y027335D03*
X011469Y027252D03*
X011419Y027185D03*
X011585Y027518D03*
X010336Y027218D03*
D134*
X010319Y027185D03*
X010802Y027901D03*
X011402Y027901D03*
X011702Y027668D03*
X011819Y027818D03*
X011935Y027901D03*
X012235Y027335D03*
X012585Y027252D03*
X012652Y027218D03*
X013535Y027335D03*
X013602Y027335D03*
X013602Y027451D03*
X013602Y027485D03*
X013535Y027485D03*
X013535Y027451D03*
X013835Y027601D03*
X013952Y027601D03*
X013952Y027518D03*
X014018Y027518D03*
X014135Y027601D03*
X014185Y027601D03*
X014302Y027485D03*
X014302Y027451D03*
X014368Y027185D03*
X014668Y027185D03*
X014902Y027218D03*
X015018Y027218D03*
X015085Y027218D03*
X015252Y027252D03*
X015502Y027218D03*
X015552Y027185D03*
X015552Y027252D03*
X015618Y027218D03*
X015502Y027451D03*
X015618Y027601D03*
X015735Y027601D03*
X015918Y027401D03*
X016085Y027185D03*
X016335Y027218D03*
X016385Y027185D03*
X016385Y027252D03*
X016451Y027218D03*
X016618Y027185D03*
X016618Y027252D03*
X016751Y027401D03*
X016451Y027601D03*
X016335Y027451D03*
X016268Y027401D03*
X016085Y027901D03*
X015085Y027601D03*
X015018Y027601D03*
X014902Y027601D03*
X014902Y027518D03*
X014785Y027601D03*
X014668Y027668D03*
X014602Y027668D03*
X014668Y027818D03*
X013952Y027218D03*
X013885Y027185D03*
X013835Y027218D03*
X013885Y027252D03*
X012885Y027868D03*
X012702Y027901D03*
X011452Y027335D03*
X009669Y027901D03*
X009202Y027901D03*
X009019Y027818D03*
X009019Y027785D03*
X009019Y027668D03*
X008952Y027668D03*
X008952Y027401D03*
X009019Y027401D03*
X009086Y027218D03*
X009136Y027185D03*
X009252Y027218D03*
X005686Y027218D03*
X005686Y027252D03*
X005636Y027185D03*
X005636Y027135D03*
X005520Y027135D03*
X005453Y027185D03*
X005453Y027218D03*
X005453Y027252D03*
X005453Y026985D03*
X005453Y026918D03*
X005570Y026918D03*
X005636Y026918D03*
X005570Y026985D03*
X005453Y026768D03*
X005570Y026685D03*
X005570Y026652D03*
X005636Y026652D03*
X005570Y026568D03*
X005570Y026535D03*
X005570Y026502D03*
X005636Y026502D03*
X005636Y026535D03*
X005453Y026535D03*
X005453Y026568D03*
X005453Y027751D03*
X005453Y027785D03*
X005453Y027818D03*
X005520Y027868D03*
X005636Y027868D03*
X005636Y027901D03*
X005686Y027818D03*
X005636Y027751D03*
X005686Y028018D03*
X005686Y028085D03*
X005686Y028168D03*
X005570Y028018D03*
X005453Y028201D03*
X005453Y028235D03*
X005453Y028285D03*
X005520Y028351D03*
X005520Y028551D03*
X005453Y028585D03*
X005686Y028585D03*
X005220Y028551D03*
X005220Y028501D03*
X005220Y028468D03*
X005220Y028435D03*
X005103Y028435D03*
X005103Y028468D03*
X005103Y028501D03*
X005103Y028551D03*
X005103Y028585D03*
X004986Y028585D03*
X004986Y028551D03*
X004986Y028435D03*
D135*
X005561Y028501D03*
X005578Y028435D03*
X005644Y028435D03*
X005528Y027901D03*
X005644Y027601D03*
X005578Y027068D03*
X005511Y026502D03*
X009244Y027901D03*
X012177Y027901D03*
X013777Y027601D03*
X013777Y027218D03*
X014593Y027601D03*
X014727Y027601D03*
X015543Y027218D03*
X015743Y027185D03*
X015660Y027601D03*
X016510Y027601D03*
D136*
X016310Y027451D03*
X016110Y027185D03*
X015593Y027218D03*
X015477Y027451D03*
X015060Y027218D03*
X014993Y027218D03*
X014643Y027185D03*
X014343Y027185D03*
X013810Y027218D03*
X013810Y027601D03*
X014643Y027818D03*
X016110Y027901D03*
X012727Y027901D03*
X011910Y027901D03*
X011377Y027901D03*
X010777Y027901D03*
X005661Y027668D03*
X005661Y027401D03*
X005545Y026502D03*
X005495Y028551D03*
D137*
X005553Y028485D03*
X005603Y028485D03*
X005386Y028485D03*
X005370Y028485D03*
X005370Y028568D03*
X005386Y028568D03*
X005236Y028568D03*
X005203Y028568D03*
X005136Y028568D03*
X005086Y028568D03*
X005070Y028568D03*
X005020Y028568D03*
X005003Y028568D03*
X004970Y028568D03*
X004970Y028485D03*
X004953Y028485D03*
X004936Y028485D03*
X005086Y028485D03*
X005203Y028485D03*
X005470Y028218D03*
X005486Y027885D03*
X005503Y027885D03*
X005536Y027885D03*
X005553Y027885D03*
X005586Y027885D03*
X005603Y027885D03*
X005619Y027885D03*
X005653Y027885D03*
X005653Y027801D03*
X005669Y027801D03*
X005470Y027801D03*
X005653Y027468D03*
X005669Y027468D03*
X005669Y027202D03*
X005653Y027202D03*
X005603Y027118D03*
X005586Y027118D03*
X005553Y027118D03*
X005536Y027118D03*
X005486Y027202D03*
X005470Y027202D03*
X005786Y026785D03*
X005669Y026518D03*
X005653Y026518D03*
X005619Y026518D03*
X005586Y026518D03*
X005553Y026518D03*
X005503Y026518D03*
X005486Y026518D03*
X005470Y026518D03*
X008936Y027468D03*
X009002Y027468D03*
X009102Y027202D03*
X009119Y027202D03*
X009119Y027801D03*
X009036Y027801D03*
X009152Y027885D03*
X009169Y027885D03*
X011435Y027202D03*
X011552Y027468D03*
X011802Y027801D03*
X012269Y027202D03*
X012635Y027202D03*
X012869Y027885D03*
X013635Y027202D03*
X013935Y027202D03*
X013968Y027468D03*
X014035Y027468D03*
X014618Y027801D03*
X015235Y027468D03*
X015302Y027468D03*
X015452Y027468D03*
X015518Y027468D03*
X015518Y027202D03*
X015535Y027202D03*
X015818Y027202D03*
X015835Y027468D03*
X015902Y027468D03*
X016135Y027202D03*
X016352Y027202D03*
X016368Y027202D03*
X016352Y027468D03*
X016302Y027468D03*
X016285Y027468D03*
X016668Y027468D03*
X016735Y027468D03*
X016651Y027202D03*
X016635Y027202D03*
X016135Y027885D03*
X015185Y027202D03*
X014918Y027202D03*
D138*
X014902Y027202D03*
X015202Y027202D03*
X015802Y027202D03*
X016085Y027885D03*
X014668Y027801D03*
X014302Y027468D03*
X013602Y027468D03*
X013535Y027468D03*
X013652Y027202D03*
X012885Y027885D03*
X011869Y027885D03*
X011635Y027468D03*
X010319Y027202D03*
X009136Y027801D03*
X009136Y027885D03*
X009019Y027801D03*
X005686Y027801D03*
X005636Y027885D03*
X005570Y027885D03*
X005520Y027885D03*
X005453Y027801D03*
X005453Y028218D03*
X005453Y028568D03*
X005686Y028568D03*
X005220Y028568D03*
X005153Y028568D03*
X005103Y028568D03*
X005103Y028485D03*
X005220Y028485D03*
X004986Y028568D03*
X005453Y027202D03*
X005520Y027118D03*
X005570Y027118D03*
X005453Y026785D03*
X005520Y026518D03*
X005570Y026518D03*
X005636Y026518D03*
D139*
X005661Y026552D03*
X005661Y027268D03*
X005728Y027418D03*
X005728Y027435D03*
X005661Y027435D03*
X005661Y027501D03*
X005545Y027435D03*
X005661Y027835D03*
X005478Y028001D03*
X005495Y028185D03*
X005295Y028418D03*
X011377Y027168D03*
X011910Y027168D03*
X013910Y027235D03*
X014343Y027168D03*
X014277Y027568D03*
X014343Y027651D03*
X014160Y027651D03*
X015477Y027435D03*
X015710Y027168D03*
X015877Y027352D03*
X016310Y027435D03*
X016360Y027435D03*
D140*
X016318Y027551D03*
X016402Y027635D03*
X016418Y027635D03*
X016585Y027635D03*
X016601Y027635D03*
X016701Y027551D03*
X016718Y027285D03*
X016651Y027285D03*
X016352Y027285D03*
X016318Y027285D03*
X016302Y027285D03*
X015885Y027285D03*
X015818Y027285D03*
X015785Y027551D03*
X015868Y027551D03*
X015785Y027635D03*
X015768Y027635D03*
X015585Y027635D03*
X015568Y027635D03*
X015485Y027551D03*
X015268Y027551D03*
X015185Y027551D03*
X015168Y027635D03*
X015152Y027635D03*
X014952Y027635D03*
X014935Y027635D03*
X014918Y027635D03*
X014918Y027551D03*
X014935Y027551D03*
X014802Y027635D03*
X014468Y027635D03*
X014268Y027551D03*
X014235Y027635D03*
X014118Y027635D03*
X014002Y027551D03*
X013918Y027551D03*
X013918Y027635D03*
X013902Y027635D03*
X013685Y027635D03*
X013669Y027635D03*
X013569Y027551D03*
X013569Y027285D03*
X013635Y027285D03*
X013935Y027285D03*
X013968Y027368D03*
X014035Y027368D03*
X014868Y027285D03*
X014885Y027285D03*
X014918Y027285D03*
X015235Y027368D03*
X015302Y027368D03*
X015285Y027285D03*
X015268Y027285D03*
X015468Y027285D03*
X015485Y027285D03*
X015518Y027285D03*
X013052Y027551D03*
X012752Y027368D03*
X012719Y027285D03*
X012635Y027285D03*
X012269Y027285D03*
X012185Y027285D03*
X012152Y027368D03*
X011769Y027635D03*
X011735Y027718D03*
X011619Y027551D03*
X011469Y027368D03*
X009102Y027285D03*
X009002Y027285D03*
X009036Y027368D03*
X009002Y027635D03*
X008936Y027635D03*
X008969Y027718D03*
X009052Y027718D03*
X005669Y027635D03*
X005653Y027635D03*
X005653Y027718D03*
X005619Y027718D03*
X005603Y027718D03*
X005586Y027718D03*
X005536Y027718D03*
X005486Y027718D03*
X005503Y027551D03*
X005669Y027551D03*
X005669Y027368D03*
X005653Y027368D03*
X005653Y027285D03*
X005669Y027285D03*
X005503Y027285D03*
X005503Y027035D03*
X005486Y027035D03*
X005470Y027035D03*
X005553Y027035D03*
X005586Y027035D03*
X005603Y027035D03*
X005653Y027035D03*
X005653Y026952D03*
X005669Y026952D03*
X005586Y026952D03*
X005553Y026952D03*
X005470Y026952D03*
X005486Y026868D03*
X005503Y026868D03*
X005536Y026868D03*
X005553Y026868D03*
X005619Y026868D03*
X005586Y026602D03*
X005553Y026602D03*
X005486Y026602D03*
X005470Y026602D03*
X005653Y026602D03*
X005669Y026602D03*
X005669Y027968D03*
X005586Y027968D03*
X005503Y027968D03*
X005553Y028051D03*
X005586Y028051D03*
X005653Y028051D03*
X005669Y028051D03*
X005586Y028318D03*
X005470Y028318D03*
X005386Y028401D03*
X005303Y028401D03*
X005286Y028401D03*
X005203Y028401D03*
X005053Y028401D03*
X005020Y028401D03*
D141*
X005036Y028401D03*
X005220Y028401D03*
X005270Y028401D03*
X005453Y028401D03*
X005520Y028318D03*
X005686Y028401D03*
X005686Y028051D03*
X005570Y028051D03*
X005453Y027968D03*
X005636Y027718D03*
X005453Y027551D03*
X005453Y027285D03*
X005636Y027285D03*
X005570Y027035D03*
X005520Y027035D03*
X005570Y026952D03*
X005520Y026868D03*
X005453Y026952D03*
X005636Y026868D03*
X005686Y026952D03*
X005570Y026602D03*
X005453Y026602D03*
X008952Y027368D03*
X009019Y027285D03*
X011702Y027551D03*
X013535Y027368D03*
X013602Y027368D03*
X013652Y027551D03*
X013652Y027635D03*
X013885Y027635D03*
X014252Y027635D03*
X014252Y027551D03*
X014852Y027551D03*
X014852Y027285D03*
X014902Y027285D03*
X015202Y027285D03*
X015502Y027285D03*
X015552Y027551D03*
X015802Y027551D03*
X015852Y027368D03*
X016335Y027285D03*
X016385Y027551D03*
X016568Y027635D03*
X016618Y027635D03*
X016618Y027551D03*
X016685Y027368D03*
D142*
X016701Y027318D03*
X016685Y027302D03*
X016668Y027268D03*
X016501Y027168D03*
X016335Y027268D03*
X016318Y027501D03*
X016368Y027568D03*
X016385Y027585D03*
X016668Y027535D03*
X015868Y027318D03*
X015835Y027268D03*
X015818Y027435D03*
X015818Y027568D03*
X015668Y027651D03*
X015535Y027568D03*
X015502Y027535D03*
X015485Y027501D03*
X015268Y027435D03*
X015268Y027385D03*
X015268Y027352D03*
X015252Y027318D03*
X015252Y027302D03*
X015252Y027501D03*
X015235Y027535D03*
X014902Y027568D03*
X014885Y027268D03*
X014918Y027235D03*
X015502Y027268D03*
X015668Y027168D03*
X014252Y027585D03*
X013968Y027535D03*
X014002Y027435D03*
X014002Y027385D03*
X014002Y027352D03*
X013785Y027168D03*
X013585Y027302D03*
X013585Y027318D03*
X013585Y027501D03*
X013602Y027535D03*
X013785Y027651D03*
X012935Y027851D03*
X012719Y027385D03*
X012185Y027385D03*
X008969Y027435D03*
X008969Y027585D03*
X008969Y027618D03*
X005653Y028185D03*
X005553Y028151D03*
X005503Y027418D03*
X005586Y026668D03*
D143*
X005736Y026752D03*
X005586Y027418D03*
X005636Y028151D03*
X005570Y028185D03*
X011502Y027352D03*
X011569Y027435D03*
X011619Y027501D03*
X011685Y027585D03*
X011769Y027701D03*
X014918Y027585D03*
X015185Y027585D03*
X015185Y027235D03*
X015602Y027435D03*
X015802Y027235D03*
D144*
X005561Y026752D03*
D145*
X005620Y026768D03*
D146*
X005719Y026785D03*
D147*
X005545Y026785D03*
D148*
X005644Y026785D03*
X005578Y028485D03*
X005261Y028568D03*
X005045Y028568D03*
X016327Y027468D03*
D149*
X016351Y027551D03*
X016685Y027285D03*
X015852Y027285D03*
X015835Y027551D03*
X015518Y027551D03*
X015268Y027368D03*
X015235Y027285D03*
X014885Y027551D03*
X014002Y027368D03*
X013602Y027285D03*
X008969Y027635D03*
X005620Y028318D03*
X005553Y028318D03*
X005586Y026868D03*
D150*
X005628Y027035D03*
X005561Y027718D03*
X005511Y027718D03*
X005328Y028401D03*
D151*
X005578Y027901D03*
X005561Y027135D03*
X008961Y027518D03*
X009011Y027335D03*
X009027Y027751D03*
X009061Y027785D03*
X009511Y027785D03*
X009511Y027818D03*
X009511Y027751D03*
X009511Y027668D03*
X009511Y027601D03*
X009511Y027518D03*
X009511Y027485D03*
X009511Y027451D03*
X009511Y027401D03*
X009511Y027335D03*
X009511Y027252D03*
X009511Y027218D03*
X009961Y027218D03*
X009961Y027185D03*
X009961Y027252D03*
X009961Y027335D03*
X009961Y027401D03*
X009961Y027451D03*
X009961Y027485D03*
X009961Y027518D03*
X009961Y027601D03*
X009961Y027668D03*
X009961Y027751D03*
X009961Y027785D03*
X009961Y027818D03*
X010777Y027818D03*
X010777Y027785D03*
X010777Y027751D03*
X010777Y027668D03*
X010777Y027601D03*
X010777Y027518D03*
X010777Y027485D03*
X010777Y027451D03*
X010777Y027401D03*
X010777Y027335D03*
X010777Y027252D03*
X010777Y027218D03*
X011377Y027185D03*
X011377Y027335D03*
X011377Y027401D03*
X011377Y027451D03*
X011377Y027485D03*
X011377Y027518D03*
X011377Y027601D03*
X011377Y027668D03*
X011377Y027751D03*
X011377Y027785D03*
X011377Y027818D03*
X011377Y027868D03*
X011694Y027601D03*
X011744Y027668D03*
X011810Y027751D03*
X011910Y027751D03*
X011910Y027668D03*
X011910Y027601D03*
X011910Y027518D03*
X011910Y027485D03*
X011910Y027451D03*
X011910Y027401D03*
X011910Y027335D03*
X011910Y027252D03*
X011910Y027218D03*
X011910Y027185D03*
X012194Y027335D03*
X012177Y027401D03*
X012177Y027451D03*
X012177Y027485D03*
X012177Y027518D03*
X012177Y027601D03*
X012177Y027668D03*
X012177Y027751D03*
X012177Y027785D03*
X012177Y027818D03*
X012177Y027868D03*
X011627Y027518D03*
X011577Y027451D03*
X011494Y027335D03*
X010777Y027868D03*
X012460Y027218D03*
X012710Y027335D03*
X012727Y027401D03*
X012727Y027451D03*
X012727Y027485D03*
X012727Y027518D03*
X012727Y027601D03*
X012727Y027668D03*
X012727Y027751D03*
X012727Y027785D03*
X012727Y027818D03*
X012727Y027868D03*
X013344Y027818D03*
X013344Y027785D03*
X013344Y027751D03*
X013344Y027668D03*
X013344Y027601D03*
X013344Y027485D03*
X013344Y027451D03*
X013344Y027401D03*
X013344Y027335D03*
X013344Y027252D03*
X013344Y027218D03*
X013344Y027185D03*
X013560Y027401D03*
X013877Y027601D03*
X014010Y027401D03*
X013943Y027252D03*
X014343Y027252D03*
X014343Y027218D03*
X014343Y027335D03*
X014343Y027401D03*
X014343Y027451D03*
X014343Y027485D03*
X014343Y027601D03*
X014643Y027601D03*
X014643Y027518D03*
X014643Y027485D03*
X014643Y027451D03*
X014643Y027401D03*
X014643Y027335D03*
X014643Y027252D03*
X014643Y027218D03*
X014943Y027218D03*
X015210Y027252D03*
X015277Y027401D03*
X015510Y027252D03*
X016110Y027252D03*
X016110Y027218D03*
X016110Y027335D03*
X016110Y027401D03*
X016110Y027451D03*
X016110Y027485D03*
X016110Y027518D03*
X016110Y027601D03*
X016110Y027668D03*
X016110Y027751D03*
X016110Y027785D03*
X016110Y027818D03*
X016110Y027868D03*
X016660Y027252D03*
X016710Y027451D03*
X014643Y027751D03*
X014643Y027785D03*
D152*
X012452Y027168D03*
D153*
X010569Y027168D03*
D154*
X009394Y027168D03*
X015060Y027618D03*
D155*
X015052Y027651D03*
X015052Y027168D03*
X013985Y027302D03*
X013985Y027318D03*
X013985Y027501D03*
X013569Y027385D03*
X013569Y027352D03*
X008986Y027385D03*
X005603Y027435D03*
X005603Y027568D03*
D156*
X012452Y027185D03*
D157*
X013135Y027868D03*
X010569Y027185D03*
D158*
X009361Y027185D03*
D159*
X005586Y028168D03*
X013785Y027185D03*
X016501Y027185D03*
D160*
X015643Y027185D03*
X009161Y027218D03*
D161*
X015052Y027185D03*
D162*
X014643Y027202D03*
X014643Y027468D03*
X014343Y027468D03*
X014343Y027202D03*
X013344Y027202D03*
X013344Y027468D03*
X013344Y027801D03*
X012727Y027801D03*
X012727Y027885D03*
X012727Y027468D03*
X012177Y027468D03*
X011910Y027468D03*
X011910Y027202D03*
X011594Y027468D03*
X011377Y027468D03*
X011377Y027801D03*
X011377Y027885D03*
X011910Y027885D03*
X012177Y027885D03*
X012177Y027801D03*
X010777Y027801D03*
X010777Y027885D03*
X010777Y027468D03*
X009961Y027468D03*
X009961Y027202D03*
X009511Y027468D03*
X009511Y027801D03*
X009077Y027801D03*
X009961Y027801D03*
X016110Y027801D03*
X016110Y027468D03*
D163*
X012452Y027202D03*
D164*
X011385Y027202D03*
D165*
X010569Y027202D03*
X013135Y027885D03*
D166*
X009336Y027202D03*
D167*
X016501Y027202D03*
D168*
X016701Y027468D03*
X016102Y027202D03*
X015868Y027468D03*
X015485Y027468D03*
X015268Y027468D03*
X014002Y027468D03*
X008969Y027468D03*
D169*
X015052Y027202D03*
X015668Y027202D03*
D170*
X013793Y027202D03*
D171*
X012569Y027218D03*
D172*
X012335Y027218D03*
X011869Y027785D03*
D173*
X011394Y027218D03*
X012644Y027252D03*
X013893Y027218D03*
D174*
X013677Y027218D03*
X013677Y027601D03*
X012260Y027252D03*
X015160Y027218D03*
X015160Y027601D03*
X016610Y027218D03*
D175*
X016401Y027218D03*
X016401Y027601D03*
X015568Y027601D03*
X014952Y027601D03*
X014235Y027601D03*
X005053Y028585D03*
D176*
X009102Y027818D03*
X009102Y027252D03*
X011602Y027485D03*
X011902Y027868D03*
X014335Y027518D03*
X015768Y027218D03*
X016601Y027601D03*
D177*
X010544Y027218D03*
D178*
X009369Y027218D03*
X005570Y028585D03*
D179*
X005520Y028435D03*
X008969Y027601D03*
X008969Y027485D03*
X008969Y027451D03*
X013585Y027518D03*
X014002Y027485D03*
X014002Y027451D03*
X014002Y027335D03*
X014552Y027601D03*
X014902Y027252D03*
X015268Y027335D03*
X015268Y027451D03*
X015268Y027485D03*
X015252Y027518D03*
X015485Y027485D03*
X015502Y027518D03*
X015785Y027601D03*
X015852Y027518D03*
X015868Y027485D03*
X015868Y027451D03*
X015868Y027335D03*
X015668Y027218D03*
X016351Y027252D03*
X016501Y027218D03*
X016701Y027335D03*
X016701Y027485D03*
X016685Y027518D03*
X016335Y027518D03*
X016318Y027485D03*
D180*
X014185Y027618D03*
X012619Y027235D03*
X012285Y027235D03*
X005520Y027568D03*
D181*
X011394Y027235D03*
X014543Y027651D03*
X015727Y027435D03*
D182*
X014327Y027535D03*
X011894Y027835D03*
X011894Y027851D03*
X009127Y027835D03*
X009127Y027235D03*
D183*
X005661Y027418D03*
X015227Y027268D03*
X015527Y027235D03*
X016360Y027235D03*
D184*
X011885Y027818D03*
X011402Y027252D03*
X005603Y028351D03*
D185*
X011544Y027401D03*
X013627Y027252D03*
X015827Y027252D03*
D186*
X016593Y027435D03*
X011410Y027268D03*
X009161Y027851D03*
D187*
X009011Y027718D03*
X008961Y027551D03*
X008994Y027368D03*
X009061Y027285D03*
X009511Y027285D03*
X009511Y027368D03*
X009511Y027551D03*
X009511Y027635D03*
X009511Y027718D03*
X009961Y027718D03*
X009961Y027635D03*
X009961Y027551D03*
X009961Y027368D03*
X009961Y027285D03*
X010777Y027285D03*
X010777Y027368D03*
X010777Y027551D03*
X010777Y027635D03*
X010777Y027718D03*
X011377Y027718D03*
X011377Y027635D03*
X011377Y027551D03*
X011377Y027368D03*
X011660Y027551D03*
X011910Y027551D03*
X011910Y027635D03*
X011910Y027718D03*
X012177Y027718D03*
X012177Y027635D03*
X012177Y027551D03*
X012194Y027368D03*
X012227Y027285D03*
X011910Y027285D03*
X011910Y027368D03*
X012710Y027368D03*
X012727Y027551D03*
X012727Y027635D03*
X012727Y027718D03*
X013344Y027718D03*
X013344Y027635D03*
X013344Y027368D03*
X013344Y027285D03*
X013610Y027551D03*
X013960Y027551D03*
X013977Y027285D03*
X014343Y027285D03*
X014343Y027368D03*
X014343Y027635D03*
X014643Y027718D03*
X014643Y027551D03*
X014643Y027368D03*
X014643Y027285D03*
X016110Y027285D03*
X016110Y027368D03*
X016110Y027551D03*
X016110Y027635D03*
X016110Y027718D03*
X016660Y027551D03*
X005628Y027968D03*
D188*
X005545Y027968D03*
X012677Y027285D03*
X015227Y027551D03*
D189*
X011419Y027285D03*
D190*
X005661Y028318D03*
X005661Y028401D03*
X005495Y028318D03*
X005361Y028401D03*
X005078Y028401D03*
X005478Y027968D03*
X005478Y027551D03*
X005478Y027285D03*
D191*
X008986Y027401D03*
X008986Y027668D03*
X013569Y027485D03*
X013569Y027451D03*
X013569Y027335D03*
X013985Y027518D03*
X014635Y027668D03*
X015052Y027601D03*
D192*
X011519Y027368D03*
D193*
X013569Y027368D03*
X015885Y027368D03*
X016718Y027368D03*
D194*
X016485Y027385D03*
D195*
X015677Y027385D03*
D196*
X015685Y027401D03*
X016518Y027401D03*
D197*
X014335Y027501D03*
X011735Y027651D03*
X011669Y027568D03*
X011552Y027418D03*
D198*
X015677Y027418D03*
X016510Y027418D03*
D199*
X013569Y027468D03*
D200*
X013219Y027518D03*
D201*
X013219Y027535D03*
D202*
X013219Y027551D03*
X014635Y027635D03*
D203*
X014327Y027551D03*
X014177Y027635D03*
D204*
X005586Y027551D03*
D205*
X013194Y027568D03*
X013793Y027618D03*
D206*
X016518Y027618D03*
D207*
X015677Y027618D03*
D208*
X014643Y027618D03*
D209*
X011785Y027718D03*
X011719Y027635D03*
D210*
X016493Y027635D03*
D211*
X015677Y027635D03*
D212*
X015052Y027635D03*
D213*
X013785Y027635D03*
X005553Y028401D03*
D214*
X014693Y027651D03*
D215*
X011877Y027801D03*
D216*
X014643Y027801D03*
X016110Y027885D03*
X005178Y028568D03*
D217*
X013135Y027851D03*
D218*
X010119Y027851D03*
X009802Y027851D03*
D219*
X009369Y027851D03*
X005570Y027985D03*
X005570Y028418D03*
D220*
X009952Y027868D03*
D221*
X009336Y027868D03*
D222*
X009961Y027885D03*
D223*
X009361Y027885D03*
D224*
X013127Y027901D03*
D225*
X009961Y027901D03*
D226*
X009394Y027901D03*
D227*
X005586Y028335D03*
D228*
X005570Y028568D03*
D229*
X005211Y028585D03*
D230*
X005586Y028418D03*
X005603Y028435D03*
D231*
X034190Y011338D03*
X034190Y007893D03*
D232*
X034190Y007910D03*
X034190Y011321D03*
D233*
X034190Y011304D03*
X034190Y007927D03*
D234*
X034190Y007944D03*
X034190Y011287D03*
D235*
X034190Y011270D03*
X034190Y007961D03*
D236*
X034190Y007978D03*
X034190Y007995D03*
X034190Y008029D03*
X034190Y008046D03*
X034190Y008080D03*
X034190Y008097D03*
X034190Y008131D03*
X034190Y009217D03*
X034190Y009234D03*
X034190Y009268D03*
X034190Y009285D03*
X034190Y009319D03*
X034190Y009336D03*
X034190Y009370D03*
X034190Y009404D03*
X034190Y009421D03*
X034190Y009455D03*
X034190Y009472D03*
X034190Y009505D03*
X034190Y009522D03*
X034190Y009556D03*
X034190Y009573D03*
X034190Y009607D03*
X034190Y009624D03*
X034190Y009658D03*
X034190Y009675D03*
X034190Y009709D03*
X034190Y011135D03*
X034190Y011152D03*
X034190Y011185D03*
X034190Y011202D03*
X034190Y011236D03*
X034190Y011253D03*
D237*
X034190Y011219D03*
X034190Y009488D03*
X034190Y009251D03*
X034190Y008012D03*
D238*
X034190Y008063D03*
X034190Y008114D03*
X034190Y009200D03*
X034190Y009302D03*
X034190Y009353D03*
X034190Y009387D03*
X034190Y009438D03*
X034190Y009539D03*
X034190Y009590D03*
X034190Y009641D03*
X034190Y009692D03*
X034190Y011168D03*
D239*
X035921Y008148D03*
D240*
X033545Y008148D03*
D241*
X032824Y008521D03*
X031772Y008148D03*
D242*
X035955Y008165D03*
D243*
X033562Y008165D03*
D244*
X031721Y008165D03*
D245*
X036778Y008182D03*
X036778Y008199D03*
X036778Y011084D03*
D246*
X034487Y008487D03*
X034487Y008470D03*
X035896Y008199D03*
X035896Y008182D03*
X033876Y010541D03*
X032468Y008385D03*
D247*
X033070Y008674D03*
X035090Y008182D03*
D248*
X034377Y008182D03*
X032867Y009064D03*
D249*
X032570Y009964D03*
X032587Y010507D03*
X033198Y010439D03*
X033825Y008827D03*
X033825Y008793D03*
X033825Y008776D03*
X033825Y008742D03*
X033825Y008725D03*
X033825Y008691D03*
X033825Y008674D03*
X033825Y008640D03*
X033825Y008623D03*
X033825Y008589D03*
X033825Y008572D03*
X033825Y008538D03*
X033825Y008521D03*
X033825Y008487D03*
X033825Y008470D03*
X033825Y008436D03*
X033825Y008419D03*
X033825Y008385D03*
X033825Y008351D03*
X033825Y008335D03*
X033825Y008301D03*
X033825Y008284D03*
X033825Y008250D03*
X033825Y008233D03*
X033825Y008199D03*
X033825Y008182D03*
X035115Y008589D03*
X035590Y009081D03*
X035709Y009811D03*
X035098Y009964D03*
X035098Y010558D03*
X036999Y010812D03*
X036999Y010015D03*
X036999Y009998D03*
D250*
X033045Y008640D03*
X033045Y008182D03*
D251*
X031687Y008182D03*
X031687Y009166D03*
X031687Y010065D03*
D252*
X032544Y010693D03*
X035107Y008199D03*
X036193Y010048D03*
D253*
X035599Y008725D03*
X035887Y008623D03*
X034360Y008199D03*
X033308Y009132D03*
X032884Y008979D03*
X032884Y008962D03*
D254*
X033079Y008691D03*
X033079Y008199D03*
X034962Y009760D03*
X034962Y010846D03*
X036184Y010761D03*
X031518Y010761D03*
D255*
X031670Y008199D03*
D256*
X036787Y008216D03*
D257*
X035887Y008216D03*
X034496Y008453D03*
X033868Y010082D03*
D258*
X034996Y010778D03*
X036897Y009098D03*
X035115Y008216D03*
D259*
X034351Y008216D03*
X035896Y008657D03*
X032892Y008945D03*
D260*
X033825Y008810D03*
X033825Y008708D03*
X033825Y008657D03*
X033825Y008606D03*
X033825Y008555D03*
X033825Y008453D03*
X033825Y008402D03*
X033825Y008368D03*
X033825Y008318D03*
X033825Y008216D03*
X035590Y009098D03*
X033198Y010422D03*
D261*
X033096Y008402D03*
X033096Y008368D03*
X033096Y008318D03*
X033096Y008216D03*
D262*
X031653Y008216D03*
D263*
X034886Y010999D03*
X036787Y008250D03*
X036787Y008233D03*
D264*
X035896Y008233D03*
X035896Y008250D03*
X034504Y008436D03*
X034453Y008589D03*
X033859Y010099D03*
X033859Y010116D03*
X033859Y010439D03*
X033859Y010456D03*
X031874Y009964D03*
X031382Y010592D03*
D265*
X032561Y010659D03*
X033953Y010693D03*
X033953Y010710D03*
X035005Y010761D03*
X033919Y009132D03*
X034581Y008928D03*
X035124Y008233D03*
X036905Y009115D03*
X036905Y009132D03*
X036905Y009166D03*
X036905Y009828D03*
X032307Y008911D03*
D266*
X031882Y009947D03*
X034343Y008233D03*
X035599Y008640D03*
X036193Y008640D03*
X036193Y008623D03*
D267*
X034589Y008911D03*
X033978Y009811D03*
X033079Y008742D03*
X033079Y008725D03*
X033096Y008436D03*
X033096Y008419D03*
X033096Y008385D03*
X033096Y008351D03*
X033096Y008335D03*
X033096Y008301D03*
X033096Y008284D03*
X033096Y008250D03*
X033096Y008233D03*
X032519Y008436D03*
X031840Y010015D03*
X034979Y010812D03*
X035828Y011084D03*
D268*
X031645Y008233D03*
D269*
X033079Y008827D03*
X033079Y008844D03*
X033910Y009115D03*
X034996Y008776D03*
X035132Y008250D03*
X035013Y009811D03*
X035013Y010744D03*
X036914Y010982D03*
X031857Y009998D03*
D270*
X033376Y010642D03*
X033342Y009064D03*
X034326Y008250D03*
X035599Y008572D03*
X035599Y008589D03*
X036193Y008589D03*
X036193Y008572D03*
D271*
X031636Y008691D03*
X031636Y008250D03*
D272*
X036787Y008267D03*
D273*
X035896Y008267D03*
X033859Y010473D03*
D274*
X035132Y008267D03*
D275*
X034326Y008267D03*
D276*
X033825Y008267D03*
X033825Y008504D03*
X033825Y008759D03*
X035098Y009981D03*
D277*
X033096Y008267D03*
D278*
X031628Y008267D03*
D279*
X034894Y010982D03*
X036795Y008335D03*
X036795Y008301D03*
X036795Y008284D03*
D280*
X035887Y008284D03*
X034496Y008419D03*
X033851Y010150D03*
X033851Y010167D03*
X033851Y010201D03*
X033851Y010218D03*
X033851Y010388D03*
X033851Y010405D03*
X031950Y010507D03*
X031373Y010558D03*
D281*
X032510Y009828D03*
X032748Y009183D03*
X033885Y009081D03*
X035141Y008301D03*
X035141Y008284D03*
X035768Y009760D03*
X035039Y010693D03*
X036939Y010948D03*
D282*
X035896Y008827D03*
X035896Y008793D03*
X035896Y008776D03*
X036201Y008538D03*
X035590Y008538D03*
X034318Y008284D03*
X033350Y009030D03*
D283*
X031619Y009030D03*
X031619Y009013D03*
X031619Y008979D03*
X031619Y008962D03*
X031619Y008928D03*
X031619Y008911D03*
X031619Y009064D03*
X031619Y009081D03*
X031619Y009115D03*
X031619Y009132D03*
X031619Y008284D03*
D284*
X033842Y010252D03*
X033842Y010269D03*
X033842Y010303D03*
X033842Y010320D03*
X033842Y010354D03*
X035030Y009030D03*
X035030Y009013D03*
X035030Y008979D03*
X035896Y008335D03*
X035896Y008301D03*
X031365Y010541D03*
D285*
X031611Y008640D03*
X031611Y008301D03*
D286*
X033011Y008606D03*
X036795Y008318D03*
D287*
X035896Y008318D03*
X034996Y009149D03*
X033842Y010286D03*
X033842Y010337D03*
D288*
X032519Y009845D03*
X033045Y008895D03*
X035149Y008318D03*
X035047Y010676D03*
D289*
X031602Y008606D03*
X031602Y008318D03*
D290*
X032527Y009862D03*
X035056Y010659D03*
X036956Y009896D03*
X035141Y008335D03*
D291*
X031602Y008335D03*
X031602Y008351D03*
X031602Y008589D03*
X031602Y008623D03*
D292*
X036804Y008385D03*
X036804Y008351D03*
D293*
X035887Y008351D03*
X035022Y009064D03*
X035022Y009081D03*
X031356Y009811D03*
X031356Y009828D03*
X031356Y009862D03*
X031356Y009896D03*
X031356Y009913D03*
X031356Y009947D03*
X031356Y009964D03*
X031356Y009998D03*
X031356Y010015D03*
X031356Y010048D03*
X031356Y010490D03*
X031356Y010507D03*
D294*
X032570Y010592D03*
X033214Y010269D03*
X033214Y010252D03*
X033214Y010218D03*
X033214Y010201D03*
X033214Y010167D03*
X033214Y010150D03*
X033214Y010116D03*
X033214Y010099D03*
X033214Y010065D03*
X033214Y010048D03*
X033214Y010015D03*
X033214Y009998D03*
X033214Y009964D03*
X033214Y009947D03*
X033214Y009913D03*
X033214Y009896D03*
X033214Y009862D03*
X033214Y009828D03*
X033214Y009811D03*
X033214Y009777D03*
X033214Y009760D03*
X033859Y009030D03*
X033859Y009013D03*
X035047Y008725D03*
X035149Y008385D03*
X035149Y008351D03*
X035743Y009777D03*
X035064Y010642D03*
X036201Y010812D03*
X036965Y010897D03*
X036965Y009913D03*
D295*
X036804Y008402D03*
X036804Y008368D03*
D296*
X035896Y008368D03*
X035896Y008402D03*
D297*
X035149Y008368D03*
X035064Y008708D03*
X033214Y009794D03*
X033214Y009845D03*
X033214Y009879D03*
X033214Y009930D03*
X033214Y010032D03*
X033214Y010082D03*
X033214Y010133D03*
X033214Y010184D03*
X032536Y009879D03*
X032570Y010575D03*
D298*
X034513Y008368D03*
X035599Y008708D03*
D299*
X032850Y009098D03*
X032442Y008368D03*
D300*
X031594Y008368D03*
X031594Y008402D03*
X031594Y008555D03*
D301*
X032824Y009132D03*
X031348Y010456D03*
X035013Y009132D03*
X035013Y009115D03*
X035896Y008385D03*
D302*
X035896Y008436D03*
X035896Y008470D03*
X034504Y008385D03*
X031331Y010167D03*
X031331Y010201D03*
X031331Y010218D03*
X031331Y010252D03*
X031331Y010269D03*
X031331Y010303D03*
X031331Y010320D03*
X031331Y010354D03*
D303*
X031594Y008572D03*
X031594Y008538D03*
X031594Y008521D03*
X031594Y008487D03*
X031594Y008419D03*
X031594Y008385D03*
D304*
X032357Y008945D03*
X033206Y010286D03*
X033206Y010337D03*
X033206Y010371D03*
X035073Y010625D03*
X036973Y009930D03*
X035141Y008402D03*
D305*
X034513Y008402D03*
X034428Y008606D03*
X035022Y009047D03*
X035022Y009098D03*
X031950Y010524D03*
X031356Y010524D03*
X031356Y010032D03*
X031356Y009930D03*
X031356Y009879D03*
X031356Y009845D03*
D306*
X032485Y008402D03*
D307*
X034911Y010948D03*
X036812Y008436D03*
X036812Y008419D03*
D308*
X035887Y008419D03*
X032833Y009115D03*
X032374Y008962D03*
X031339Y010388D03*
X031339Y010405D03*
X031339Y010439D03*
D309*
X032570Y010558D03*
X032553Y009913D03*
X033198Y010388D03*
X033198Y010405D03*
X033842Y008962D03*
X033842Y008928D03*
X035081Y008674D03*
X035098Y008640D03*
X035149Y008436D03*
X035149Y008419D03*
X036201Y009998D03*
X036982Y009964D03*
X036982Y010846D03*
X035081Y010608D03*
D310*
X036897Y010999D03*
X036897Y009811D03*
X036897Y009081D03*
X036897Y009064D03*
X033079Y008793D03*
X032502Y008419D03*
D311*
X031585Y008436D03*
X031585Y008470D03*
D312*
X036812Y008453D03*
D313*
X035896Y008453D03*
X031331Y010184D03*
X031331Y010286D03*
X031331Y010337D03*
X031331Y010371D03*
D314*
X033842Y008945D03*
X035149Y008453D03*
X035590Y009149D03*
X035726Y009794D03*
X035081Y009930D03*
X036982Y010863D03*
D315*
X032807Y008453D03*
D316*
X031585Y008453D03*
D317*
X034920Y010931D03*
X036821Y008521D03*
X036821Y008487D03*
X036821Y008470D03*
D318*
X036193Y009115D03*
X036193Y009132D03*
X035599Y009132D03*
X035599Y009115D03*
X035107Y008623D03*
X035124Y008572D03*
X035124Y008538D03*
X035141Y008521D03*
X035141Y008487D03*
X035141Y008470D03*
X033834Y008844D03*
X033834Y008878D03*
X033834Y008911D03*
X032782Y009166D03*
X032561Y009947D03*
X032578Y010541D03*
X035090Y010592D03*
X035090Y009947D03*
D319*
X032807Y008487D03*
X032807Y008470D03*
X031789Y008793D03*
D320*
X031950Y010541D03*
X033308Y010744D03*
X035887Y008487D03*
D321*
X036821Y008504D03*
D322*
X035896Y008504D03*
D323*
X035141Y008504D03*
X036990Y009981D03*
D324*
X034479Y008504D03*
X031950Y010473D03*
D325*
X032816Y008504D03*
D326*
X031594Y008504D03*
D327*
X032858Y009081D03*
X035896Y008538D03*
X035896Y008521D03*
D328*
X034954Y009166D03*
X034479Y008538D03*
X034479Y008521D03*
X033885Y009998D03*
X033885Y010015D03*
X033885Y010558D03*
X031950Y010456D03*
X031407Y010642D03*
X031407Y009777D03*
D329*
X036829Y008589D03*
X036829Y008572D03*
X036829Y008538D03*
D330*
X036082Y010303D03*
X036082Y010320D03*
X036082Y010354D03*
X036082Y010388D03*
X036082Y010405D03*
X036082Y010439D03*
X036082Y010456D03*
X036082Y010490D03*
X036082Y010507D03*
X032841Y008538D03*
D331*
X034894Y008810D03*
X036829Y008555D03*
X034928Y010914D03*
D332*
X035599Y008555D03*
X036193Y008555D03*
D333*
X035887Y008555D03*
X033291Y009149D03*
X032867Y009047D03*
D334*
X032561Y009930D03*
X032578Y010524D03*
X033834Y008895D03*
X033834Y008861D03*
X035090Y008657D03*
X035107Y008606D03*
X035124Y008555D03*
X036193Y009098D03*
X036193Y009149D03*
X035090Y010575D03*
X035718Y011016D03*
X036990Y010829D03*
D335*
X034470Y008555D03*
X033876Y010032D03*
X033876Y010524D03*
X031399Y010625D03*
D336*
X032901Y008555D03*
D337*
X032875Y009013D03*
X032875Y009030D03*
X033333Y010710D03*
X035590Y008742D03*
X035896Y008589D03*
X035896Y008572D03*
D338*
X034462Y008572D03*
X033868Y010048D03*
X033868Y010065D03*
X033868Y010490D03*
X033868Y010507D03*
X031950Y010490D03*
X031390Y010608D03*
D339*
X032951Y008572D03*
D340*
X032985Y008589D03*
X032527Y010744D03*
D341*
X036838Y008657D03*
X036838Y008606D03*
D342*
X036201Y008606D03*
X035896Y008708D03*
X035590Y008606D03*
D343*
X035896Y008606D03*
D344*
X036838Y008623D03*
X036838Y008640D03*
X036838Y009760D03*
X034937Y010897D03*
D345*
X033367Y010659D03*
X033333Y009081D03*
X035590Y008623D03*
X035896Y008725D03*
X035896Y008742D03*
D346*
X034038Y009760D03*
X033036Y008623D03*
D347*
X032892Y008911D03*
X032892Y008928D03*
X033316Y009115D03*
X033350Y010693D03*
X035590Y008691D03*
X035590Y008674D03*
X035896Y008674D03*
X035896Y008691D03*
X035896Y008640D03*
X036201Y008674D03*
D348*
X036193Y008657D03*
X035599Y008657D03*
X033325Y009098D03*
X033359Y010676D03*
D349*
X033062Y008657D03*
D350*
X031619Y008657D03*
X031619Y008945D03*
X031619Y009047D03*
X031619Y009098D03*
D351*
X034945Y010880D03*
X036846Y011050D03*
X036846Y008725D03*
X036846Y008691D03*
X036846Y008674D03*
D352*
X031628Y008674D03*
D353*
X036193Y008691D03*
X036193Y008725D03*
D354*
X036193Y009166D03*
X035599Y009166D03*
X035073Y008691D03*
X035073Y009896D03*
X035073Y009913D03*
X035734Y011033D03*
X036973Y010880D03*
X036973Y009947D03*
X033851Y008979D03*
X032544Y009896D03*
X033206Y010303D03*
X033206Y010320D03*
X033206Y010354D03*
D355*
X036846Y008708D03*
D356*
X036193Y008708D03*
D357*
X033995Y009794D03*
X033079Y008708D03*
D358*
X031645Y008708D03*
X031645Y009149D03*
D359*
X031662Y008725D03*
D360*
X036855Y008742D03*
X036855Y008776D03*
D361*
X036201Y008742D03*
D362*
X035030Y008742D03*
X033876Y009064D03*
X035047Y009862D03*
X035760Y011050D03*
X036948Y010931D03*
X032570Y010608D03*
D363*
X031679Y008742D03*
D364*
X036855Y008759D03*
D365*
X036193Y008759D03*
D366*
X035896Y008759D03*
D367*
X035590Y008759D03*
D368*
X035022Y008759D03*
D369*
X033087Y008759D03*
X033970Y010727D03*
D370*
X031704Y008759D03*
D371*
X035599Y008776D03*
X035599Y008793D03*
X036193Y008793D03*
X036193Y008776D03*
D372*
X034954Y008793D03*
X034988Y009777D03*
X033970Y009828D03*
X033970Y010744D03*
X034988Y010795D03*
X033087Y008776D03*
X031492Y010744D03*
D373*
X031738Y009183D03*
X031738Y008776D03*
X036065Y010201D03*
X036065Y010608D03*
D374*
X036863Y011033D03*
X036863Y009777D03*
X036863Y008844D03*
X036863Y008827D03*
X036863Y008793D03*
X033961Y009166D03*
D375*
X036863Y008810D03*
D376*
X036193Y008810D03*
D377*
X035896Y008810D03*
X033350Y009047D03*
X033384Y010625D03*
D378*
X035590Y008810D03*
D379*
X035005Y009794D03*
X033953Y009845D03*
X033087Y008810D03*
X032476Y009794D03*
X036193Y010032D03*
X036905Y009149D03*
D380*
X031848Y008810D03*
D381*
X033274Y009166D03*
X033189Y010507D03*
X035599Y008844D03*
X036193Y008844D03*
X036193Y008827D03*
X036193Y008878D03*
X037058Y010405D03*
D382*
X035590Y008827D03*
D383*
X034759Y008827D03*
X034759Y008844D03*
D384*
X031874Y008827D03*
D385*
X031891Y008844D03*
D386*
X036871Y008861D03*
X036871Y008895D03*
D387*
X036193Y008861D03*
X035599Y008861D03*
D388*
X034750Y008861D03*
X034750Y008895D03*
D389*
X033070Y008861D03*
X035785Y011067D03*
X036922Y009845D03*
D390*
X031899Y008895D03*
X031899Y008861D03*
D391*
X032442Y009760D03*
X036871Y008911D03*
X036871Y008878D03*
D392*
X035590Y008878D03*
X037050Y010252D03*
X037050Y010269D03*
X037050Y010303D03*
X037050Y010320D03*
X037050Y010354D03*
X037050Y010388D03*
X037050Y010439D03*
X037050Y010456D03*
X037050Y010490D03*
X037050Y010507D03*
X037050Y010541D03*
X037050Y010558D03*
D393*
X034750Y008878D03*
D394*
X035030Y009828D03*
X035030Y010710D03*
X036201Y010015D03*
X036931Y009862D03*
X033062Y008878D03*
X032332Y008928D03*
D395*
X031899Y008878D03*
D396*
X035141Y010184D03*
X035141Y010286D03*
X035141Y010337D03*
X035141Y010371D03*
X036193Y008945D03*
X036193Y008895D03*
X037041Y010184D03*
X037041Y010625D03*
D397*
X037050Y010575D03*
X037050Y010524D03*
X037050Y010422D03*
X037050Y010371D03*
X037050Y010337D03*
X037050Y010286D03*
X035590Y008895D03*
D398*
X035599Y008911D03*
X035599Y008928D03*
X036193Y008928D03*
X036193Y008911D03*
X037041Y010167D03*
X037041Y010201D03*
X037041Y010218D03*
X037041Y010592D03*
X037041Y010608D03*
X037041Y010642D03*
X035141Y010354D03*
X035141Y010320D03*
X035141Y010303D03*
X035141Y010269D03*
X035141Y010252D03*
X035141Y010218D03*
X035141Y010201D03*
X033189Y010490D03*
X033104Y008911D03*
D399*
X032578Y009998D03*
X032578Y010015D03*
X032578Y010490D03*
X033189Y010456D03*
X035107Y010541D03*
X035107Y010015D03*
X035107Y009998D03*
X035701Y009998D03*
X035701Y010015D03*
X035701Y010048D03*
X035701Y010065D03*
X035701Y009964D03*
X035701Y009947D03*
X035701Y009913D03*
X035701Y009896D03*
X035701Y009862D03*
X035701Y009828D03*
X035599Y009064D03*
X035039Y008962D03*
X035039Y008928D03*
X035039Y008911D03*
X036193Y009030D03*
X036193Y009064D03*
X036193Y009081D03*
X035701Y010744D03*
X035701Y010761D03*
X035701Y010795D03*
X035701Y010812D03*
X035701Y010846D03*
X035701Y010880D03*
X035701Y010897D03*
X035701Y010931D03*
X035701Y010948D03*
X035701Y010982D03*
X035701Y010999D03*
X037007Y010795D03*
D400*
X036880Y008979D03*
X036880Y008962D03*
X036880Y008928D03*
D401*
X036880Y008945D03*
X036880Y009794D03*
X036880Y011016D03*
X033944Y009149D03*
D402*
X035132Y010133D03*
X035132Y010422D03*
X035590Y008945D03*
X037033Y010133D03*
X037033Y010676D03*
X032604Y010337D03*
X032604Y010286D03*
X032604Y010184D03*
X032604Y010133D03*
D403*
X035107Y010524D03*
X035701Y010778D03*
X035701Y010829D03*
X035701Y010863D03*
X035701Y010914D03*
X035701Y010082D03*
X035701Y010032D03*
X035701Y009930D03*
X035701Y009879D03*
X035701Y009845D03*
X035599Y009047D03*
X035039Y008945D03*
X036193Y009047D03*
X037007Y010032D03*
X037007Y010778D03*
D404*
X036956Y010914D03*
X035056Y009879D03*
X034564Y008945D03*
X033868Y009047D03*
D405*
X035124Y010065D03*
X035124Y010456D03*
X035599Y008979D03*
X036193Y008979D03*
X036193Y008962D03*
X036193Y009013D03*
X037024Y010099D03*
X037024Y010116D03*
X037024Y010710D03*
X032595Y010405D03*
X032595Y010388D03*
X032595Y010116D03*
X032595Y010099D03*
X032595Y010065D03*
D406*
X032604Y010150D03*
X032604Y010167D03*
X032604Y010201D03*
X032604Y010218D03*
X032604Y010252D03*
X032604Y010269D03*
X032604Y010303D03*
X032604Y010320D03*
X032604Y010354D03*
X035132Y010388D03*
X035132Y010405D03*
X035132Y010439D03*
X035132Y010167D03*
X035132Y010150D03*
X035132Y010116D03*
X035132Y010099D03*
X035590Y008962D03*
X037033Y010150D03*
X037033Y010659D03*
X037033Y010693D03*
D407*
X037016Y010744D03*
X037016Y010761D03*
X037016Y010065D03*
X037016Y010048D03*
X035590Y009030D03*
X035590Y009013D03*
X034555Y008962D03*
X035115Y010048D03*
X035115Y010490D03*
X035115Y010507D03*
X032587Y010456D03*
X032587Y010439D03*
X032587Y010048D03*
D408*
X036888Y008996D03*
D409*
X036193Y008996D03*
X035599Y008996D03*
X035124Y010473D03*
X037024Y010727D03*
X033189Y010473D03*
D410*
X035030Y008996D03*
D411*
X033851Y008996D03*
D412*
X032884Y008996D03*
D413*
X031619Y008996D03*
D414*
X032459Y009777D03*
X036888Y009030D03*
X036888Y009013D03*
D415*
X036888Y009047D03*
D416*
X033893Y009098D03*
D417*
X035115Y010032D03*
X032807Y009149D03*
X032587Y010032D03*
D418*
X035904Y009183D03*
D419*
X033732Y009183D03*
D420*
X036761Y009726D03*
D421*
X034021Y009726D03*
D422*
X031568Y009726D03*
D423*
X032536Y010727D03*
X036812Y009743D03*
D424*
X035794Y009743D03*
D425*
X034945Y009743D03*
D426*
X033257Y009743D03*
D427*
X031484Y009743D03*
D428*
X031441Y009760D03*
X031441Y010693D03*
X033919Y009913D03*
D429*
X034012Y009777D03*
X036184Y010065D03*
X036184Y010744D03*
D430*
X033859Y010133D03*
X031382Y009794D03*
D431*
X032493Y009811D03*
X032561Y010642D03*
X036193Y010795D03*
D432*
X036939Y009879D03*
X035039Y009845D03*
X032561Y010625D03*
D433*
X033944Y009862D03*
D434*
X033936Y009879D03*
D435*
X033927Y009896D03*
X033927Y010642D03*
X031450Y010710D03*
D436*
X031959Y010371D03*
X033910Y009930D03*
D437*
X033902Y009947D03*
X033902Y010592D03*
X031950Y010439D03*
D438*
X031416Y010659D03*
X033893Y009964D03*
D439*
X036210Y009981D03*
D440*
X035701Y009981D03*
X035701Y010727D03*
X035701Y010965D03*
X032578Y009981D03*
D441*
X033893Y009981D03*
D442*
X033214Y009981D03*
X033214Y010235D03*
D443*
X031865Y009981D03*
D444*
X031356Y009981D03*
D445*
X031831Y010032D03*
D446*
X031814Y010048D03*
X032544Y010710D03*
D447*
X032595Y010422D03*
X032595Y010371D03*
X032595Y010082D03*
X035124Y010082D03*
X036210Y010829D03*
X037024Y010082D03*
D448*
X036176Y010082D03*
D449*
X031687Y010082D03*
D450*
X036040Y010099D03*
X036040Y010116D03*
X036040Y010710D03*
D451*
X031696Y010150D03*
X031696Y010116D03*
X031696Y010099D03*
D452*
X036048Y010133D03*
X036048Y010676D03*
D453*
X031696Y010133D03*
D454*
X036057Y010150D03*
X036057Y010167D03*
X036057Y010642D03*
X036057Y010659D03*
D455*
X036065Y010625D03*
X036065Y010184D03*
D456*
X033851Y010184D03*
X033851Y010371D03*
X033851Y010422D03*
X031373Y010575D03*
D457*
X036074Y010592D03*
X036074Y010558D03*
X036074Y010541D03*
X036074Y010269D03*
X036074Y010252D03*
X036074Y010218D03*
D458*
X037050Y010235D03*
X037050Y010473D03*
D459*
X036074Y010235D03*
D460*
X035141Y010235D03*
D461*
X033851Y010235D03*
D462*
X032604Y010235D03*
D463*
X031331Y010235D03*
D464*
X036082Y010286D03*
X036082Y010337D03*
X036082Y010371D03*
X036082Y010422D03*
X036082Y010524D03*
D465*
X033910Y010608D03*
X031959Y010405D03*
X031959Y010388D03*
D466*
X031950Y010422D03*
X031424Y010676D03*
D467*
X031339Y010422D03*
D468*
X036082Y010473D03*
D469*
X032587Y010473D03*
D470*
X031348Y010473D03*
D471*
X033181Y010524D03*
D472*
X036074Y010575D03*
D473*
X033893Y010575D03*
D474*
X033919Y010625D03*
D475*
X033936Y010659D03*
D476*
X033944Y010676D03*
D477*
X032544Y010676D03*
X036193Y010778D03*
D478*
X036048Y010693D03*
D479*
X036176Y010727D03*
D480*
X036922Y010965D03*
X035022Y010727D03*
D481*
X033325Y010727D03*
D482*
X031467Y010727D03*
D483*
X033715Y010761D03*
D484*
X032519Y010761D03*
D485*
X032756Y010778D03*
D486*
X032756Y010795D03*
D487*
X032773Y010812D03*
D488*
X034971Y010829D03*
D489*
X032773Y010829D03*
D490*
X032782Y010846D03*
D491*
X034954Y010863D03*
D492*
X032790Y010863D03*
D493*
X032799Y010880D03*
D494*
X032807Y010897D03*
D495*
X032816Y010914D03*
D496*
X032824Y010931D03*
D497*
X032833Y010948D03*
D498*
X034903Y010965D03*
D499*
X032841Y010965D03*
D500*
X032850Y010982D03*
D501*
X032858Y010999D03*
D502*
X033240Y011016D03*
X033240Y011067D03*
X033240Y011118D03*
D503*
X033240Y011101D03*
X033240Y011084D03*
X033240Y011050D03*
X033240Y011033D03*
D504*
X036821Y011067D03*
D505*
X036354Y011101D03*
D506*
X036354Y011118D03*
D507*
X037704Y026018D03*
D508*
X033823Y026046D03*
X033823Y026073D03*
X033823Y026954D03*
X033823Y027009D03*
X033823Y027037D03*
X033823Y027092D03*
X033823Y027285D03*
X033823Y027312D03*
X033823Y027367D03*
X033823Y027422D03*
X033823Y027450D03*
X033823Y028331D03*
X033823Y028386D03*
X033823Y028414D03*
X033823Y029212D03*
X033823Y029239D03*
X033823Y029900D03*
X033823Y029928D03*
X033823Y030478D03*
X033823Y031359D03*
X033823Y031387D03*
X033823Y031442D03*
X033823Y031497D03*
X033823Y031525D03*
X033823Y032130D03*
X033823Y032901D03*
X033823Y032956D03*
X033823Y033011D03*
X033823Y033039D03*
D509*
X037360Y030506D03*
X037360Y028441D03*
X037360Y027477D03*
X037360Y026101D03*
D510*
X033327Y026101D03*
X033327Y027477D03*
X033327Y028441D03*
X033327Y030506D03*
D511*
X037402Y030533D03*
X037402Y028469D03*
X037402Y028248D03*
X037402Y027505D03*
X037402Y026872D03*
X037402Y026128D03*
D512*
X033286Y026128D03*
X033286Y027505D03*
X033286Y028469D03*
X033286Y030533D03*
X033286Y031304D03*
D513*
X036576Y033342D03*
X037429Y031277D03*
X037429Y028496D03*
X037429Y028221D03*
X037429Y027533D03*
X037429Y026844D03*
X037429Y026156D03*
D514*
X033272Y026156D03*
X033272Y027533D03*
X033272Y028496D03*
D515*
X037443Y028524D03*
X037443Y027560D03*
X037443Y026183D03*
X037443Y033287D03*
D516*
X033244Y031249D03*
X033244Y028524D03*
X033244Y027560D03*
X033244Y026183D03*
D517*
X036879Y028937D03*
X037457Y028551D03*
X037457Y028193D03*
X037457Y027588D03*
X037457Y026817D03*
X037457Y026211D03*
X037457Y030616D03*
X036879Y030836D03*
X037457Y031249D03*
X036548Y033369D03*
D518*
X033231Y032819D03*
X033231Y032268D03*
X033231Y031222D03*
X033231Y030616D03*
X033231Y029157D03*
X033231Y028551D03*
X033231Y028193D03*
X033231Y027588D03*
X033231Y026817D03*
X033231Y026211D03*
D519*
X036865Y028992D03*
X037470Y028579D03*
X037470Y028166D03*
X037470Y027615D03*
X037470Y026789D03*
X037470Y026239D03*
X037470Y030644D03*
X036865Y031057D03*
X035901Y033204D03*
X035901Y033259D03*
X035901Y033342D03*
X035901Y033397D03*
X035901Y033479D03*
X035901Y033534D03*
X035901Y033617D03*
X035901Y033672D03*
X036534Y033397D03*
D520*
X036796Y027615D03*
X037732Y027202D03*
X036796Y026239D03*
D521*
X033217Y026239D03*
X033217Y026789D03*
X033217Y027615D03*
X033217Y028166D03*
X033217Y028579D03*
X033217Y029129D03*
X033217Y030644D03*
X033217Y031194D03*
X033217Y032295D03*
X033217Y032791D03*
D522*
X037484Y031167D03*
X037484Y030671D03*
X037484Y030148D03*
X037484Y029102D03*
X037484Y028606D03*
X037484Y028138D03*
X037484Y028111D03*
X037484Y027643D03*
X037484Y026762D03*
X037484Y026734D03*
X037484Y026266D03*
D523*
X036989Y026266D03*
X036768Y026266D03*
X036989Y026734D03*
X036989Y027643D03*
X036768Y027643D03*
X036989Y028111D03*
X035254Y033727D03*
X035254Y033782D03*
D524*
X033203Y032764D03*
X033203Y032323D03*
X033203Y031167D03*
X033203Y030699D03*
X033203Y030671D03*
X033203Y029625D03*
X033203Y029102D03*
X033203Y028606D03*
X033203Y028138D03*
X033203Y027643D03*
X033203Y026762D03*
X033203Y026266D03*
D525*
X037498Y026294D03*
X037498Y026707D03*
X037498Y027670D03*
X037498Y028083D03*
X037498Y028634D03*
X037498Y030176D03*
X037498Y030726D03*
X037498Y031139D03*
X037498Y033204D03*
D526*
X036865Y028579D03*
X036755Y028221D03*
X036755Y028166D03*
X037002Y027670D03*
X036755Y026844D03*
X036755Y026789D03*
X037002Y026294D03*
D527*
X036741Y026294D03*
X037016Y026707D03*
X036741Y027670D03*
X037016Y028083D03*
D528*
X033203Y027670D03*
X033203Y028634D03*
X033203Y026294D03*
D529*
X036865Y028689D03*
X036865Y029019D03*
X037498Y029074D03*
X037498Y028661D03*
X037498Y027698D03*
X037498Y026321D03*
X037498Y029845D03*
X037498Y030203D03*
X037498Y030423D03*
X037498Y030699D03*
X037498Y031112D03*
X036865Y031084D03*
X036865Y030754D03*
X037498Y032185D03*
D530*
X037016Y027698D03*
X037016Y026321D03*
D531*
X036727Y026321D03*
X036727Y026734D03*
X036727Y027698D03*
X036727Y028111D03*
X035708Y033149D03*
X035708Y033177D03*
D532*
X033189Y032736D03*
X033189Y032351D03*
X033189Y031635D03*
X033189Y031112D03*
X033189Y030754D03*
X033189Y029983D03*
X033189Y029487D03*
X033189Y029074D03*
X033189Y028689D03*
X033189Y028661D03*
X033189Y028111D03*
X033189Y027725D03*
X033189Y027698D03*
X033189Y027230D03*
X033189Y026734D03*
X033189Y026349D03*
X033189Y026321D03*
D533*
X037512Y026349D03*
X037512Y026404D03*
X037512Y026624D03*
X037512Y026679D03*
X037512Y027725D03*
X037512Y027780D03*
X037512Y028001D03*
X037512Y028056D03*
X037512Y028689D03*
X037512Y028744D03*
X037512Y029019D03*
X037512Y029295D03*
X037512Y029350D03*
X037512Y029377D03*
X037512Y029432D03*
X037512Y029652D03*
X037512Y029708D03*
X037512Y029763D03*
X037512Y029790D03*
X037512Y029983D03*
X037512Y030010D03*
X037512Y030065D03*
X037512Y030258D03*
X037512Y030286D03*
X037512Y030396D03*
X037512Y030754D03*
X037512Y030809D03*
X037512Y031029D03*
X037512Y031084D03*
X037512Y033177D03*
X037539Y033700D03*
X037539Y033727D03*
X036493Y033452D03*
D534*
X037663Y029570D03*
X037663Y029515D03*
X037030Y028056D03*
X037030Y027725D03*
X037030Y026679D03*
X037030Y026349D03*
D535*
X037044Y026404D03*
X037044Y026624D03*
X036713Y026679D03*
X036713Y026349D03*
X036713Y027725D03*
X036713Y028056D03*
X037044Y028001D03*
X037044Y027780D03*
X037649Y029487D03*
X036355Y033149D03*
X036355Y033700D03*
X036355Y033727D03*
D536*
X037539Y033672D03*
X037512Y032791D03*
X037512Y031552D03*
X037512Y031057D03*
X037512Y030781D03*
X037512Y030313D03*
X037512Y030231D03*
X037512Y030093D03*
X037512Y029818D03*
X037512Y029735D03*
X037512Y029680D03*
X037512Y029460D03*
X037512Y029405D03*
X037512Y029322D03*
X037512Y029047D03*
X037512Y028992D03*
X037512Y028716D03*
X037512Y028028D03*
X037512Y027753D03*
X037512Y026652D03*
X037512Y026376D03*
X036878Y029047D03*
D537*
X037044Y028028D03*
X037044Y027753D03*
X036713Y027753D03*
X037044Y026652D03*
X037044Y026376D03*
X036879Y031194D03*
X036355Y033121D03*
X036355Y033672D03*
D538*
X036700Y028028D03*
X036700Y027808D03*
X037057Y027808D03*
X037057Y027890D03*
X037057Y027946D03*
X036700Y026652D03*
X036700Y026431D03*
X036700Y026376D03*
X037057Y026431D03*
X037057Y026514D03*
X037057Y026569D03*
D539*
X033176Y026569D03*
X033176Y026652D03*
X033176Y026431D03*
X033176Y026376D03*
X033176Y027202D03*
X033176Y027753D03*
X033176Y027808D03*
X033176Y027946D03*
X033176Y028028D03*
X033176Y028716D03*
X033176Y028771D03*
X033176Y028909D03*
X033176Y028992D03*
X033176Y029542D03*
X033176Y029597D03*
X033176Y030038D03*
X033176Y030781D03*
X033176Y030864D03*
X033176Y031002D03*
X033176Y031057D03*
X033176Y031552D03*
X033176Y031607D03*
X033176Y032433D03*
X033176Y032516D03*
X033176Y032571D03*
X033176Y032653D03*
D540*
X037636Y029625D03*
X037057Y027973D03*
X037057Y027918D03*
X037057Y027863D03*
X037057Y027835D03*
X036700Y027780D03*
X036700Y028001D03*
X036700Y026624D03*
X036700Y026596D03*
X036700Y026404D03*
X037057Y026459D03*
X037057Y026486D03*
X037057Y026541D03*
X037057Y026596D03*
D541*
X033176Y026596D03*
X033176Y026624D03*
X033176Y026679D03*
X033176Y026459D03*
X033176Y026404D03*
X033176Y027147D03*
X033176Y027175D03*
X033176Y027780D03*
X033176Y027835D03*
X033176Y027973D03*
X033176Y028001D03*
X033176Y028056D03*
X033176Y028744D03*
X033176Y028799D03*
X033176Y028937D03*
X033176Y028964D03*
X033176Y029019D03*
X033176Y029515D03*
X033176Y029570D03*
X033176Y030010D03*
X033176Y030065D03*
X033176Y030809D03*
X033176Y030836D03*
X033176Y030974D03*
X033176Y031029D03*
X033176Y031084D03*
X033176Y031580D03*
X033176Y032406D03*
X033176Y032461D03*
X033176Y032488D03*
X033176Y032543D03*
X033176Y032598D03*
X033176Y032626D03*
X033176Y032681D03*
D542*
X037525Y032846D03*
X037525Y033121D03*
X037525Y032240D03*
X037525Y032020D03*
X037525Y031965D03*
X037525Y031883D03*
X037525Y031827D03*
X037525Y031745D03*
X037525Y031690D03*
X037525Y031607D03*
X037525Y031002D03*
X037525Y030919D03*
X037525Y030864D03*
X037525Y030368D03*
X037525Y030038D03*
X037525Y028909D03*
X037525Y028854D03*
X037525Y028771D03*
X037525Y027946D03*
X037525Y027890D03*
X037525Y027808D03*
X037525Y026569D03*
X037525Y026514D03*
X037525Y026431D03*
D543*
X037525Y026459D03*
X037525Y026486D03*
X037525Y026541D03*
X037525Y026596D03*
X037525Y027835D03*
X037525Y027863D03*
X037525Y027918D03*
X037525Y027973D03*
X037525Y028799D03*
X037525Y028827D03*
X037525Y028882D03*
X037525Y028937D03*
X037525Y028964D03*
X037525Y030341D03*
X037525Y030836D03*
X037525Y030891D03*
X037525Y030946D03*
X037525Y030974D03*
X037525Y031580D03*
X037525Y031635D03*
X037525Y031662D03*
X037525Y031717D03*
X037525Y031772D03*
X037525Y031800D03*
X037525Y031855D03*
X037525Y031910D03*
X037525Y031938D03*
X037525Y031993D03*
X037525Y032048D03*
X037525Y032075D03*
X037525Y032213D03*
X037525Y032268D03*
X037525Y032819D03*
X037525Y032874D03*
X037525Y033094D03*
X037525Y033149D03*
D544*
X035006Y033700D03*
X036686Y027973D03*
X036686Y027918D03*
X036686Y027863D03*
X036686Y027835D03*
X036686Y026541D03*
X036686Y026486D03*
X036686Y026459D03*
D545*
X033162Y026486D03*
X033162Y026541D03*
X033162Y027863D03*
X033162Y027918D03*
X033162Y028827D03*
X033162Y028882D03*
X033162Y030891D03*
X033162Y030946D03*
D546*
X035006Y033204D03*
X036686Y027946D03*
X036686Y027890D03*
X036686Y026569D03*
X036686Y026514D03*
D547*
X033162Y026514D03*
X033162Y027890D03*
X033162Y028854D03*
X033162Y030919D03*
D548*
X035708Y033121D03*
X036727Y028083D03*
X036727Y026707D03*
D549*
X033189Y026707D03*
X033189Y027120D03*
X033189Y028083D03*
X033189Y029047D03*
X033189Y030093D03*
X033189Y030726D03*
X033189Y031139D03*
X033189Y032378D03*
X033189Y032708D03*
D550*
X036961Y028138D03*
X037732Y027175D03*
X037732Y027147D03*
X036961Y026762D03*
D551*
X036755Y026762D03*
X036755Y026817D03*
X036755Y028138D03*
X036755Y028193D03*
D552*
X033244Y028221D03*
X033244Y029184D03*
X033244Y030589D03*
X033244Y032240D03*
X033244Y032846D03*
X033244Y026844D03*
D553*
X033354Y026872D03*
X033354Y028248D03*
D554*
X037360Y028276D03*
X037360Y026899D03*
D555*
X033368Y026899D03*
X033368Y028276D03*
X033368Y031662D03*
X033368Y031717D03*
X033368Y031772D03*
X033368Y031800D03*
X033368Y031855D03*
D556*
X033823Y032103D03*
X033823Y032158D03*
X033823Y032929D03*
X033823Y032984D03*
X033823Y033066D03*
X033823Y031470D03*
X033823Y031414D03*
X033823Y030451D03*
X033823Y029873D03*
X033823Y029267D03*
X033823Y028358D03*
X033823Y028303D03*
X033823Y027395D03*
X033823Y027340D03*
X033823Y027257D03*
X033823Y027065D03*
X033823Y026982D03*
X033823Y026927D03*
D557*
X037718Y027120D03*
D558*
X037718Y027230D03*
D559*
X036865Y028606D03*
X036865Y030671D03*
X037057Y031910D03*
D560*
X034951Y033617D03*
X036879Y029184D03*
X036879Y028634D03*
D561*
X036865Y028661D03*
X036865Y031112D03*
D562*
X036879Y030781D03*
X036879Y028716D03*
D563*
X036865Y028744D03*
X036865Y028964D03*
X037470Y029157D03*
X037470Y030121D03*
X036865Y030809D03*
X036865Y031029D03*
X037470Y031222D03*
X037470Y033232D03*
X035901Y033232D03*
X035901Y033287D03*
X035901Y033314D03*
X035901Y033369D03*
X035901Y033424D03*
X035901Y033452D03*
X035901Y033507D03*
X035901Y033562D03*
X035901Y033589D03*
X035901Y033645D03*
X035901Y033700D03*
D564*
X037457Y033259D03*
X036879Y031002D03*
X037457Y029184D03*
X036879Y028771D03*
D565*
X036865Y028799D03*
X036865Y028827D03*
X036865Y028882D03*
X036865Y030891D03*
X036865Y030946D03*
X036865Y030974D03*
D566*
X036865Y030919D03*
X036865Y030864D03*
X036865Y028909D03*
X036865Y028854D03*
D567*
X036879Y029074D03*
D568*
X036879Y029102D03*
X034951Y033287D03*
D569*
X037484Y031194D03*
X037484Y029129D03*
D570*
X036865Y029129D03*
X034965Y033259D03*
D571*
X034965Y033645D03*
X036424Y033562D03*
X036865Y031167D03*
X036865Y029157D03*
D572*
X033533Y029295D03*
X033533Y030341D03*
X033533Y030396D03*
D573*
X033520Y029735D03*
X033520Y029680D03*
X033520Y029460D03*
X033520Y029405D03*
X033520Y029322D03*
D574*
X033520Y029350D03*
X033520Y029377D03*
X033520Y029432D03*
X033520Y029652D03*
X033520Y029708D03*
X033520Y029763D03*
X033520Y029790D03*
X033520Y030258D03*
X033520Y030286D03*
D575*
X037663Y029597D03*
X037663Y029542D03*
D576*
X037291Y029625D03*
X037126Y029625D03*
D577*
X033533Y029818D03*
X033533Y030313D03*
X033533Y030368D03*
D578*
X033547Y029845D03*
X033547Y031938D03*
X033547Y031993D03*
X033547Y032048D03*
X033547Y032075D03*
D579*
X033823Y029955D03*
D580*
X033410Y030121D03*
D581*
X033451Y030148D03*
D582*
X033478Y030176D03*
D583*
X033492Y030203D03*
D584*
X033506Y030231D03*
D585*
X033561Y030423D03*
D586*
X037429Y030561D03*
D587*
X033272Y030561D03*
X033272Y032213D03*
X033272Y032874D03*
D588*
X037443Y030589D03*
D589*
X036879Y030644D03*
D590*
X036865Y030699D03*
X034938Y033314D03*
X034938Y033369D03*
X034938Y033562D03*
X034938Y033589D03*
D591*
X036479Y033479D03*
X036865Y030726D03*
D592*
X036865Y031139D03*
X034938Y033342D03*
X034938Y033534D03*
X036452Y033534D03*
D593*
X033258Y031277D03*
D594*
X036589Y033314D03*
X037415Y031304D03*
D595*
X037374Y031332D03*
X036631Y033259D03*
D596*
X033313Y031332D03*
D597*
X037071Y031662D03*
X037071Y031717D03*
X037071Y031772D03*
X037071Y031800D03*
X037071Y031855D03*
D598*
X037071Y031883D03*
X037071Y031827D03*
X037071Y031745D03*
X037071Y031690D03*
D599*
X033368Y031690D03*
X033368Y031745D03*
X033368Y031827D03*
X033368Y031883D03*
D600*
X033382Y031910D03*
D601*
X033547Y031965D03*
X033547Y032020D03*
D602*
X033313Y032185D03*
D603*
X037236Y032295D03*
D604*
X037209Y032323D03*
X037209Y032764D03*
D605*
X037181Y032736D03*
X037181Y032351D03*
D606*
X037168Y032378D03*
X037168Y032708D03*
D607*
X037168Y032681D03*
X037168Y032406D03*
D608*
X037154Y032433D03*
X037154Y032653D03*
D609*
X037154Y032626D03*
X037154Y032598D03*
X037154Y032488D03*
X037154Y032461D03*
D610*
X037140Y032516D03*
X037140Y032571D03*
D611*
X037140Y032543D03*
D612*
X036025Y033094D03*
D613*
X032735Y033094D03*
D614*
X035378Y033121D03*
D615*
X032363Y033121D03*
D616*
X035364Y033149D03*
X035364Y033177D03*
X035364Y033232D03*
X035364Y033287D03*
X035364Y033314D03*
X035364Y033369D03*
X035364Y033424D03*
X035364Y033452D03*
X035364Y033507D03*
X035364Y033562D03*
X035364Y033589D03*
X035364Y033645D03*
X036025Y033727D03*
X036025Y033782D03*
X036410Y033589D03*
D617*
X032350Y033149D03*
D618*
X036369Y033177D03*
X036369Y033645D03*
D619*
X032322Y033727D03*
X032322Y033177D03*
D620*
X036658Y033204D03*
D621*
X036025Y033755D03*
X035364Y033672D03*
X035364Y033617D03*
X035364Y033534D03*
X035364Y033479D03*
X035364Y033397D03*
X035364Y033342D03*
X035364Y033259D03*
X035364Y033204D03*
D622*
X032308Y033204D03*
D623*
X036644Y033232D03*
D624*
X034979Y033232D03*
D625*
X032295Y033232D03*
X032295Y033645D03*
D626*
X032281Y033617D03*
X032281Y033259D03*
D627*
X036603Y033287D03*
X037429Y033314D03*
D628*
X032281Y033287D03*
X032281Y033589D03*
D629*
X032267Y033562D03*
X032267Y033507D03*
X032267Y033452D03*
X032267Y033424D03*
X032267Y033369D03*
X032267Y033314D03*
D630*
X037415Y033342D03*
D631*
X032267Y033342D03*
X032267Y033397D03*
X032267Y033479D03*
X032267Y033534D03*
D632*
X037402Y033369D03*
D633*
X037388Y033397D03*
D634*
X034924Y033397D03*
X034924Y033479D03*
D635*
X037360Y033424D03*
D636*
X036521Y033424D03*
D637*
X036466Y033507D03*
X034924Y033507D03*
X034924Y033452D03*
X034924Y033424D03*
D638*
X037347Y033452D03*
D639*
X037333Y033479D03*
D640*
X037305Y033507D03*
D641*
X037291Y033534D03*
D642*
X037278Y033562D03*
D643*
X037250Y033589D03*
D644*
X037236Y033617D03*
D645*
X036397Y033617D03*
D646*
X037223Y033645D03*
D647*
X034979Y033672D03*
D648*
X032295Y033672D03*
D649*
X035378Y033700D03*
D650*
X032308Y033700D03*
D651*
X037016Y033755D03*
D652*
X035254Y033755D03*
D653*
X032350Y033755D03*
D654*
X037016Y033782D03*
D655*
X032377Y033782D03*
D656*
X037002Y033810D03*
D657*
X033052Y033810D03*
D658*
X033836Y033837D03*
X033836Y033865D03*
X033836Y033920D03*
D659*
X033836Y033892D03*
D660*
X012100Y029768D03*
D661*
X012100Y029792D03*
D662*
X012100Y029816D03*
D663*
X012100Y029841D03*
D664*
X012100Y029865D03*
D665*
X012100Y029889D03*
D666*
X012100Y029913D03*
D667*
X012100Y029937D03*
D668*
X012100Y029961D03*
D669*
X012100Y029985D03*
D670*
X012100Y030009D03*
D671*
X012100Y030033D03*
D672*
X012100Y030057D03*
D673*
X012100Y030081D03*
D674*
X012100Y030105D03*
D675*
X012100Y030129D03*
X012100Y034220D03*
D676*
X012100Y034244D03*
X012100Y030153D03*
D677*
X012100Y030177D03*
D678*
X016673Y030201D03*
X016697Y030250D03*
D679*
X016360Y030201D03*
X016119Y031236D03*
X016264Y032054D03*
X015854Y032295D03*
X015614Y032199D03*
X015301Y031958D03*
X015108Y032199D03*
X014820Y033234D03*
X014916Y033378D03*
X014050Y033282D03*
X013761Y033330D03*
X015036Y031236D03*
X008515Y031236D03*
D680*
X007372Y033137D03*
X007372Y033186D03*
X007372Y033234D03*
X007372Y033282D03*
X007372Y033330D03*
X007372Y033378D03*
X007372Y033426D03*
X007372Y033474D03*
X007444Y034052D03*
X012329Y030298D03*
X013917Y030201D03*
X016059Y030201D03*
D681*
X015746Y030201D03*
X014952Y030298D03*
X015939Y032054D03*
X015915Y032199D03*
X014591Y033330D03*
X014302Y033330D03*
X013773Y033282D03*
X013484Y033282D03*
X013484Y033330D03*
X013123Y031236D03*
X013003Y030298D03*
D682*
X013400Y031236D03*
X015542Y030201D03*
X016239Y031958D03*
X016239Y032247D03*
D683*
X015927Y032006D03*
X015903Y031958D03*
X015325Y032103D03*
X015253Y031188D03*
X015036Y031188D03*
X015566Y031188D03*
X016119Y031188D03*
X016336Y031188D03*
X015806Y030298D03*
X015325Y030201D03*
X015157Y030250D03*
X014122Y031188D03*
X013424Y030346D03*
X013424Y030298D03*
X013424Y030250D03*
X013616Y030201D03*
X013207Y030250D03*
X012461Y031188D03*
X012172Y030250D03*
X011234Y031236D03*
X010295Y031284D03*
X009237Y031188D03*
X014025Y033330D03*
X014025Y033378D03*
X014603Y033378D03*
X016023Y033330D03*
X016023Y033282D03*
X016312Y033282D03*
X016312Y033330D03*
D684*
X015108Y030201D03*
X013929Y030250D03*
X013929Y030298D03*
X013929Y030346D03*
D685*
X014651Y030201D03*
D686*
X014230Y030201D03*
X014374Y031236D03*
X014808Y032199D03*
X015096Y032247D03*
X015963Y032103D03*
X016251Y032006D03*
X015794Y031236D03*
X015578Y031236D03*
X015746Y033282D03*
X015481Y033378D03*
X014567Y033282D03*
X013508Y033234D03*
X012786Y031236D03*
X011968Y030346D03*
X011270Y031333D03*
X010789Y031333D03*
X010043Y031236D03*
X010043Y031188D03*
D687*
X013279Y030201D03*
D688*
X012509Y030201D03*
D689*
X009634Y030201D03*
D690*
X007372Y033113D03*
X007372Y033161D03*
X007372Y033210D03*
X007372Y033258D03*
X007372Y033306D03*
X007372Y033354D03*
X007372Y033402D03*
X007372Y033450D03*
X007372Y033498D03*
X016685Y030226D03*
D691*
X016360Y030226D03*
X016167Y030226D03*
X015975Y030226D03*
X015566Y030226D03*
X015566Y031212D03*
X015253Y031212D03*
X015253Y031164D03*
X015325Y032079D03*
X015614Y032223D03*
X015903Y031982D03*
X016336Y031212D03*
X016336Y031164D03*
X016312Y033306D03*
X016023Y033306D03*
X016023Y033354D03*
X014603Y033354D03*
X014603Y033402D03*
X014025Y033354D03*
X014025Y033498D03*
X012028Y031357D03*
X012052Y031164D03*
X011234Y031212D03*
X010271Y031357D03*
X013135Y031164D03*
X013424Y030370D03*
X013424Y030322D03*
X013424Y030274D03*
D692*
X013604Y030226D03*
X013099Y031212D03*
X012810Y031164D03*
X015722Y030226D03*
X016155Y030322D03*
X016155Y030370D03*
X008647Y031164D03*
D693*
X008503Y031212D03*
X009441Y031164D03*
X015313Y030226D03*
X015409Y031164D03*
X015409Y031212D03*
X015963Y031164D03*
X016372Y030370D03*
X016372Y030322D03*
D694*
X015144Y030226D03*
X014110Y031212D03*
X013195Y030226D03*
X011535Y031357D03*
X011246Y031260D03*
X013484Y033306D03*
X013773Y033306D03*
X016035Y033258D03*
X015939Y032030D03*
D695*
X014711Y030226D03*
D696*
X014435Y030226D03*
X013640Y030274D03*
X013640Y030322D03*
X013640Y030370D03*
X012197Y030274D03*
X014820Y032223D03*
X014820Y032271D03*
X015108Y032127D03*
X015878Y031934D03*
X015782Y033402D03*
X015205Y033354D03*
D697*
X015481Y033354D03*
X015770Y033354D03*
X014904Y033354D03*
X014038Y033306D03*
X015096Y032175D03*
X015602Y031934D03*
X015890Y032223D03*
X015866Y032271D03*
X016276Y032079D03*
X016107Y031212D03*
X015794Y031212D03*
X015024Y031212D03*
X014350Y031212D03*
X014230Y030370D03*
X014230Y030322D03*
X014230Y030274D03*
X014230Y030226D03*
X015385Y030322D03*
X015794Y030322D03*
X016300Y033258D03*
X012473Y031212D03*
X011029Y031357D03*
D698*
X012148Y031260D03*
X012148Y031212D03*
X012750Y030226D03*
X013929Y030226D03*
X009694Y031212D03*
D699*
X010055Y031260D03*
X008876Y031212D03*
X011956Y030322D03*
X012172Y030226D03*
X013424Y030226D03*
X015301Y031934D03*
X015108Y032223D03*
X014820Y032319D03*
X015758Y033306D03*
X013761Y033354D03*
X013761Y033258D03*
X015397Y030370D03*
D700*
X009586Y030226D03*
X009513Y030322D03*
X009513Y030370D03*
D701*
X010103Y031284D03*
X010271Y031333D03*
X012028Y031333D03*
X013111Y031188D03*
X013376Y031188D03*
X013231Y030346D03*
X015181Y030346D03*
X016167Y030298D03*
X016167Y030250D03*
X016360Y030250D03*
X016360Y030298D03*
X015951Y031236D03*
X015349Y032199D03*
X016336Y033474D03*
D702*
X015987Y030346D03*
X015987Y030250D03*
D703*
X015578Y030250D03*
X015169Y030298D03*
X015409Y031236D03*
X015794Y031188D03*
X015096Y032103D03*
X015337Y032151D03*
X015385Y032247D03*
X015193Y033378D03*
X014615Y033426D03*
X014615Y033474D03*
X015794Y033474D03*
X016011Y033426D03*
X016011Y033378D03*
X016324Y033378D03*
X016324Y033426D03*
X013219Y030298D03*
X011535Y031188D03*
X011535Y031236D03*
X011535Y031284D03*
X011535Y031333D03*
X011222Y031188D03*
X011029Y031188D03*
X011029Y031236D03*
X011029Y031284D03*
X011029Y031333D03*
X008864Y031188D03*
D704*
X012750Y030250D03*
X014699Y030250D03*
X016215Y032295D03*
D705*
X015108Y032054D03*
X015493Y033330D03*
X015205Y033426D03*
X015205Y033474D03*
X015999Y033474D03*
X015590Y030346D03*
X015590Y030298D03*
X015999Y030298D03*
X014435Y030298D03*
X014435Y030346D03*
X014435Y030250D03*
X012967Y031236D03*
D706*
X013749Y031188D03*
X014230Y030346D03*
X014230Y030298D03*
X014230Y030250D03*
X015385Y030346D03*
X015409Y032295D03*
X015890Y032247D03*
X015770Y033330D03*
X015193Y033330D03*
X014038Y033474D03*
X011968Y030298D03*
D707*
X013592Y030250D03*
D708*
X009561Y030250D03*
D709*
X007480Y034076D03*
X016697Y030274D03*
D710*
X016360Y030274D03*
X016167Y030274D03*
X015806Y030274D03*
X015181Y030322D03*
X015181Y030370D03*
X014964Y030274D03*
X013231Y030322D03*
X013231Y030370D03*
X012654Y031164D03*
X012028Y031308D03*
X010271Y031308D03*
X009044Y031164D03*
X008852Y031164D03*
X015349Y032175D03*
X016336Y033450D03*
X016336Y033498D03*
D711*
X015999Y033498D03*
X015205Y033498D03*
X015205Y033450D03*
X014820Y033258D03*
X015108Y032079D03*
X015590Y030370D03*
X015590Y030322D03*
X015999Y030322D03*
X015999Y030274D03*
X014435Y030274D03*
X014435Y030322D03*
X014435Y030370D03*
X013544Y031164D03*
D712*
X013388Y031212D03*
X013340Y031164D03*
X013749Y031164D03*
X013941Y031164D03*
X014134Y031164D03*
X014326Y031164D03*
X014519Y031164D03*
X015024Y031164D03*
X015578Y031164D03*
X015794Y031164D03*
X016107Y031164D03*
X015578Y030274D03*
X015169Y030274D03*
X015337Y032127D03*
X015361Y032223D03*
X015385Y032271D03*
X015193Y033402D03*
X014615Y033450D03*
X014615Y033498D03*
X015794Y033498D03*
X015794Y033450D03*
X016011Y033450D03*
X016011Y033402D03*
X016324Y033402D03*
X016324Y033354D03*
X013219Y030274D03*
X013003Y030274D03*
X012786Y031212D03*
X012449Y031164D03*
X011535Y031164D03*
X011535Y031212D03*
X011535Y031260D03*
X011535Y031308D03*
X011222Y031164D03*
X011029Y031164D03*
X011029Y031212D03*
X011029Y031260D03*
X011029Y031308D03*
X009249Y031164D03*
D713*
X008707Y031212D03*
X011378Y031164D03*
X012967Y031212D03*
X015108Y032030D03*
X015951Y031212D03*
X015397Y030274D03*
X016167Y033498D03*
D714*
X015722Y033258D03*
X016227Y031934D03*
X014880Y031934D03*
X014784Y031164D03*
X014687Y030274D03*
X012738Y030274D03*
X011270Y031357D03*
X009706Y031164D03*
D715*
X013929Y030370D03*
X013929Y030322D03*
X013929Y030274D03*
X015590Y031982D03*
X015108Y032319D03*
D716*
X009549Y030274D03*
D717*
X016709Y030298D03*
D718*
X015782Y030346D03*
X015397Y030298D03*
X014338Y031188D03*
X013640Y030346D03*
X013640Y030298D03*
X014820Y032247D03*
X014820Y032295D03*
X015108Y032151D03*
X015782Y033378D03*
X015782Y033426D03*
X016288Y032103D03*
X008683Y031236D03*
D719*
X010765Y031284D03*
X012738Y030298D03*
X014687Y030298D03*
X014759Y031188D03*
X014302Y033378D03*
X013773Y033234D03*
X016035Y033234D03*
D720*
X009525Y030298D03*
D721*
X014194Y033402D03*
X014194Y033450D03*
X016721Y030370D03*
X016721Y030322D03*
D722*
X015481Y032030D03*
X014808Y030322D03*
X012858Y030322D03*
D723*
X012341Y030322D03*
X012341Y030370D03*
X007360Y031934D03*
X007360Y031982D03*
X007360Y032030D03*
X007360Y032079D03*
X007360Y032127D03*
X007360Y032175D03*
X007360Y032223D03*
X007360Y032271D03*
X007360Y032319D03*
D724*
X014194Y033426D03*
X016721Y030346D03*
D725*
X016372Y030346D03*
X015409Y031188D03*
D726*
X016155Y030346D03*
X012810Y031188D03*
D727*
X012858Y030346D03*
X014808Y030346D03*
X015481Y032006D03*
D728*
X012341Y030346D03*
X007360Y031958D03*
X007360Y032006D03*
X007360Y032054D03*
X007360Y032103D03*
X007360Y032151D03*
X007360Y032199D03*
X007360Y032247D03*
X007360Y032295D03*
D729*
X009513Y030346D03*
D730*
X015987Y030370D03*
D731*
X015734Y030370D03*
X008442Y031164D03*
D732*
X012750Y030370D03*
X014699Y030370D03*
X014747Y031212D03*
X016215Y032271D03*
X016215Y032319D03*
D733*
X016251Y032030D03*
X015409Y032319D03*
X015313Y031982D03*
X015193Y033306D03*
X014302Y033354D03*
X013749Y031212D03*
X011968Y030370D03*
X010789Y031308D03*
X010043Y031212D03*
X010043Y031164D03*
X009249Y031212D03*
D734*
X007420Y031621D03*
X007420Y032752D03*
X016733Y030442D03*
X016733Y030394D03*
D735*
X016372Y030394D03*
X016107Y031092D03*
X015794Y031092D03*
X015794Y031044D03*
X015674Y031044D03*
X015409Y031140D03*
X015024Y031092D03*
X015602Y031910D03*
X015987Y033571D03*
X015987Y033619D03*
X014808Y033715D03*
X013749Y031092D03*
X011198Y031092D03*
X009249Y030996D03*
D736*
X013472Y030538D03*
X015036Y031044D03*
X015132Y031092D03*
X015566Y031044D03*
X015686Y031092D03*
X016119Y031044D03*
X016384Y030490D03*
X016384Y030442D03*
X016264Y030442D03*
X016264Y030394D03*
X015397Y030490D03*
X015325Y030538D03*
X016167Y033522D03*
X015975Y033667D03*
X015975Y033715D03*
X016360Y033715D03*
X016360Y033667D03*
D737*
X016348Y033619D03*
X016348Y033571D03*
X016227Y031044D03*
X016155Y030394D03*
X014976Y030490D03*
X015144Y031044D03*
X014278Y030538D03*
X013099Y030947D03*
X013027Y030490D03*
X011366Y031140D03*
X008839Y031092D03*
X008839Y031044D03*
D738*
X008647Y030899D03*
X008454Y030899D03*
X011559Y030947D03*
X012233Y030490D03*
X012642Y030996D03*
X013027Y030442D03*
X014976Y030442D03*
X015144Y030899D03*
X015963Y030538D03*
X015963Y030394D03*
X016227Y030899D03*
X013773Y033667D03*
X013484Y033667D03*
D739*
X015205Y033522D03*
X015999Y033522D03*
X015686Y030996D03*
X015590Y030442D03*
X015590Y030394D03*
X014435Y030394D03*
X014435Y030442D03*
X014435Y030490D03*
X014146Y030996D03*
X014146Y031044D03*
X014146Y031092D03*
X014146Y031140D03*
X013929Y030947D03*
X013737Y031140D03*
X011210Y031140D03*
D740*
X011306Y030947D03*
X011787Y030996D03*
X012654Y031044D03*
X012654Y031092D03*
X012894Y031092D03*
X012894Y031044D03*
X012894Y030996D03*
X015132Y030538D03*
X015397Y030394D03*
X015806Y030442D03*
X015854Y031862D03*
X015758Y033667D03*
X016167Y033763D03*
X016167Y033811D03*
X015205Y033667D03*
X014314Y033619D03*
X014050Y033667D03*
X013761Y033715D03*
X013761Y033619D03*
X010055Y030996D03*
X009622Y030899D03*
X009044Y031044D03*
X009044Y031092D03*
X008876Y030899D03*
D741*
X008852Y030996D03*
X008852Y031140D03*
X009237Y031140D03*
X008442Y031140D03*
X011354Y031092D03*
X012437Y031092D03*
X012437Y031140D03*
X012437Y031044D03*
X012437Y030996D03*
X013087Y030899D03*
X013231Y030442D03*
X013231Y030394D03*
X013616Y030538D03*
X014314Y031092D03*
X014314Y031140D03*
X014507Y030947D03*
X015132Y030996D03*
X015253Y031092D03*
X015253Y031140D03*
X015566Y031140D03*
X015566Y031092D03*
X015951Y031140D03*
X016215Y030996D03*
X016336Y031092D03*
X016336Y031140D03*
X016263Y030538D03*
X016263Y030490D03*
X015181Y030442D03*
X015181Y030394D03*
X016167Y033571D03*
X016167Y033619D03*
X016336Y033522D03*
D742*
X015722Y033715D03*
X014784Y031140D03*
X014687Y030442D03*
X014687Y030394D03*
X012738Y030394D03*
X012738Y030442D03*
D743*
X012209Y030683D03*
X012882Y031140D03*
X013532Y030996D03*
X013652Y030635D03*
X013941Y031092D03*
X013941Y031140D03*
X014350Y030899D03*
X014519Y031092D03*
X014519Y031140D03*
X014928Y030899D03*
X015409Y030996D03*
X015409Y031044D03*
X015674Y030899D03*
X015385Y030442D03*
X016276Y030635D03*
X014230Y030394D03*
X011318Y030996D03*
X011029Y030899D03*
X009441Y030996D03*
X009056Y030996D03*
X014038Y033619D03*
X014904Y033619D03*
X015481Y033619D03*
X015770Y033619D03*
D744*
X014820Y030996D03*
X013953Y030490D03*
X013929Y030442D03*
X013929Y030394D03*
X012870Y030899D03*
D745*
X013544Y031140D03*
X013737Y030947D03*
X013640Y030587D03*
X013640Y030442D03*
X013640Y030394D03*
X014435Y030538D03*
X014723Y030947D03*
X014916Y030947D03*
X015590Y030490D03*
X015878Y031910D03*
X015782Y033571D03*
X015205Y033619D03*
X009838Y030947D03*
X009646Y030947D03*
D746*
X009429Y031140D03*
X009237Y030947D03*
X009044Y031140D03*
X008659Y031092D03*
X008659Y031044D03*
X008659Y030996D03*
X008659Y030947D03*
X008442Y030947D03*
X008442Y030996D03*
X008442Y031044D03*
X008442Y031092D03*
X011547Y030996D03*
X012221Y030442D03*
X012654Y031140D03*
X013135Y031140D03*
X013135Y031092D03*
X013135Y031044D03*
X013135Y030996D03*
X013424Y030442D03*
X013424Y030394D03*
X014218Y030442D03*
X015951Y031044D03*
X016263Y030587D03*
X016167Y033667D03*
X016167Y033715D03*
X014603Y033619D03*
X014603Y033571D03*
X014025Y033571D03*
X014025Y033522D03*
D747*
X012341Y030587D03*
X012341Y030538D03*
X012341Y030394D03*
X007360Y031862D03*
X007360Y031910D03*
X007360Y032343D03*
X007360Y032391D03*
X007360Y032440D03*
X007360Y032488D03*
X007360Y032536D03*
D748*
X009874Y030899D03*
X010043Y031044D03*
X010043Y031092D03*
X010043Y031140D03*
X011968Y030635D03*
X011968Y030587D03*
X011968Y030538D03*
X011968Y030490D03*
X011968Y030442D03*
X011968Y030394D03*
X012473Y030899D03*
X012882Y030947D03*
X013364Y030899D03*
X013917Y030996D03*
X014110Y030899D03*
X014495Y030996D03*
X014687Y030899D03*
X015409Y030947D03*
X015578Y030538D03*
X015963Y030947D03*
X013508Y033619D03*
D749*
X009489Y030442D03*
X009489Y030394D03*
D750*
X007420Y032969D03*
X016733Y030466D03*
X016733Y030418D03*
D751*
X016384Y030418D03*
X016384Y030466D03*
X016264Y030418D03*
X016119Y031020D03*
X015686Y031068D03*
X015566Y031020D03*
X015132Y031068D03*
X015036Y031020D03*
X013087Y030923D03*
X011186Y031068D03*
X014796Y033691D03*
X015975Y033691D03*
X016360Y033691D03*
X016360Y033643D03*
D752*
X016336Y031068D03*
X016336Y031020D03*
X016143Y030466D03*
X016143Y030418D03*
X015253Y031020D03*
X015253Y031068D03*
D753*
X014820Y031020D03*
X013929Y030466D03*
X013929Y030418D03*
X015903Y030418D03*
D754*
X015590Y030418D03*
X015590Y030466D03*
X015686Y030972D03*
X015686Y031020D03*
X014435Y030514D03*
X014435Y030466D03*
X014435Y030418D03*
X014146Y031020D03*
X014146Y031068D03*
X014146Y031116D03*
X013737Y031116D03*
X013737Y030972D03*
X014916Y033643D03*
X015205Y033546D03*
X015493Y033643D03*
X015999Y033546D03*
X009261Y031116D03*
X009261Y031020D03*
D755*
X009249Y030923D03*
X009634Y030923D03*
X009658Y030972D03*
X008864Y030923D03*
X011318Y030972D03*
X013340Y030923D03*
X013652Y030659D03*
X013941Y031116D03*
X014230Y030418D03*
X014711Y030923D03*
X014735Y030972D03*
X014519Y031116D03*
X015409Y031020D03*
X015385Y030418D03*
X015794Y030466D03*
X015866Y031886D03*
X015770Y033643D03*
X016179Y033739D03*
X015193Y033643D03*
X014038Y033643D03*
D756*
X016167Y033595D03*
X016119Y031116D03*
X015951Y031116D03*
X015806Y031116D03*
X015566Y031116D03*
X015253Y031116D03*
X015036Y031116D03*
X015181Y030418D03*
X014314Y030972D03*
X014314Y031068D03*
X014314Y031116D03*
X013616Y030514D03*
X013231Y030418D03*
X012437Y031020D03*
X012437Y031068D03*
X012437Y031116D03*
X011354Y031116D03*
X009237Y030972D03*
X008852Y030972D03*
X008852Y031116D03*
X016263Y030514D03*
X016263Y030466D03*
X016336Y031116D03*
D757*
X015963Y031020D03*
X014976Y030418D03*
X013219Y030514D03*
X013027Y030418D03*
X012906Y031068D03*
X012642Y031116D03*
X012233Y030611D03*
X013484Y033691D03*
X013773Y033691D03*
X014591Y033643D03*
D758*
X016227Y032367D03*
X014687Y030466D03*
X014687Y030418D03*
X012738Y030418D03*
X012738Y030466D03*
D759*
X013352Y031020D03*
X013544Y030972D03*
X013737Y030923D03*
X013929Y030972D03*
X013640Y030611D03*
X013640Y030562D03*
X013640Y030466D03*
X013640Y030418D03*
X015397Y030466D03*
X015590Y030514D03*
X015686Y030923D03*
X015782Y033546D03*
X015782Y033595D03*
X011787Y030972D03*
D760*
X011547Y030972D03*
X011330Y031020D03*
X012052Y031116D03*
X012461Y030923D03*
X012221Y030466D03*
X013015Y030466D03*
X013424Y030418D03*
X013135Y030972D03*
X013135Y031020D03*
X013135Y031068D03*
X013135Y031116D03*
X014122Y030923D03*
X014507Y030972D03*
X014892Y030972D03*
X015132Y030923D03*
X015157Y030514D03*
X014964Y030466D03*
X015975Y030514D03*
X016263Y030562D03*
X016263Y030611D03*
X016215Y030923D03*
X015951Y031068D03*
X016167Y033691D03*
X014844Y033739D03*
X014603Y033595D03*
X014314Y033643D03*
X014025Y033595D03*
X014025Y033546D03*
X010079Y030972D03*
X009862Y030923D03*
X009814Y030972D03*
X009429Y030972D03*
X009044Y030972D03*
X008659Y030972D03*
X008659Y031020D03*
X008659Y031068D03*
X008659Y030923D03*
X008442Y030923D03*
X008442Y030972D03*
X008442Y031020D03*
X008442Y031068D03*
X008442Y031116D03*
D761*
X012136Y030972D03*
X012329Y030418D03*
D762*
X011968Y030418D03*
X011968Y030466D03*
X011968Y030514D03*
X011968Y030562D03*
X011968Y030611D03*
X011799Y031020D03*
X011294Y030923D03*
X010043Y031020D03*
X010043Y031068D03*
X010043Y031116D03*
X013532Y031020D03*
X015409Y030972D03*
X015481Y033595D03*
X015746Y033691D03*
X014567Y033691D03*
X014062Y033691D03*
X013749Y033739D03*
X013508Y033739D03*
D763*
X009489Y030466D03*
X009489Y030418D03*
D764*
X015253Y031044D03*
X016143Y030490D03*
X016143Y030442D03*
X016336Y031044D03*
D765*
X015987Y030490D03*
X015987Y030442D03*
D766*
X015987Y030466D03*
D767*
X016227Y030972D03*
X015409Y031068D03*
X015409Y031116D03*
X015144Y030972D03*
X014928Y030923D03*
X015169Y030466D03*
X014230Y030466D03*
X014326Y030923D03*
X014134Y030972D03*
X013340Y030972D03*
X013340Y031116D03*
X013412Y030466D03*
X013219Y030466D03*
X012642Y030972D03*
X012449Y030972D03*
X012209Y030659D03*
X011535Y031020D03*
X011535Y031068D03*
X011535Y031116D03*
X011342Y031068D03*
X011029Y031068D03*
X011029Y031116D03*
X011029Y031020D03*
X011029Y030972D03*
X011029Y030923D03*
X010596Y030923D03*
X008647Y031116D03*
X014615Y033546D03*
X015193Y033595D03*
X016179Y033643D03*
D768*
X016745Y033811D03*
X016745Y033859D03*
X016721Y033907D03*
X016745Y030587D03*
X016745Y030538D03*
X016745Y030490D03*
X007432Y032945D03*
D769*
X008647Y031140D03*
X008864Y030947D03*
X010596Y030947D03*
X010596Y030899D03*
X011029Y030947D03*
X011029Y030996D03*
X011029Y031044D03*
X011029Y031092D03*
X011029Y031140D03*
X011342Y031044D03*
X011535Y031044D03*
X011535Y031092D03*
X011535Y031140D03*
X012040Y031140D03*
X012449Y030947D03*
X012209Y030635D03*
X013219Y030490D03*
X013628Y030490D03*
X013749Y030996D03*
X013773Y031044D03*
X014134Y030947D03*
X014326Y030947D03*
X014326Y030996D03*
X014326Y031044D03*
X015024Y031140D03*
X015144Y030947D03*
X015409Y031092D03*
X015674Y030947D03*
X015794Y031140D03*
X015963Y031092D03*
X016107Y031140D03*
X016227Y030947D03*
X015794Y030490D03*
X015169Y030490D03*
X013340Y030947D03*
X013340Y030996D03*
X013340Y031140D03*
X014615Y033522D03*
X015193Y033571D03*
X015794Y033522D03*
D770*
X016167Y033907D03*
X016215Y032343D03*
X016215Y031910D03*
X014892Y031910D03*
X014699Y030490D03*
X013977Y030538D03*
X012750Y030490D03*
D771*
X009477Y030490D03*
X009477Y030538D03*
X009477Y030587D03*
D772*
X007432Y032776D03*
X016745Y033787D03*
X016745Y033835D03*
X016745Y033883D03*
X016745Y030562D03*
X016745Y030514D03*
D773*
X014711Y030514D03*
X013869Y031020D03*
X012762Y030514D03*
X014110Y033739D03*
X014519Y033739D03*
X015698Y033739D03*
X009369Y031068D03*
D774*
X009730Y031068D03*
X009730Y031020D03*
X013965Y030514D03*
X014808Y031068D03*
X015313Y031886D03*
X015481Y033546D03*
D775*
X012341Y030562D03*
X012341Y030514D03*
X012124Y030923D03*
X007360Y031838D03*
X007360Y031886D03*
X007360Y032367D03*
X007360Y032415D03*
X007360Y032464D03*
X007360Y032512D03*
X007360Y032560D03*
D776*
X009477Y030562D03*
X009477Y030514D03*
D777*
X012774Y030538D03*
X014723Y030538D03*
X015205Y033715D03*
D778*
X016239Y032391D03*
X013207Y030538D03*
D779*
X015674Y030562D03*
X015674Y030611D03*
D780*
X014507Y030562D03*
D781*
X013051Y030562D03*
X013051Y030611D03*
D782*
X015674Y030635D03*
X015674Y030587D03*
D783*
X014507Y030587D03*
D784*
X013051Y030587D03*
X013051Y030635D03*
D785*
X016757Y030659D03*
X016757Y030611D03*
X016757Y031886D03*
X016757Y032367D03*
X016757Y032415D03*
X016757Y032464D03*
X016757Y033546D03*
X016757Y033595D03*
X016757Y033643D03*
X016757Y033691D03*
X016757Y033739D03*
D786*
X014880Y030611D03*
D787*
X014146Y030611D03*
X014314Y033787D03*
X014314Y033835D03*
X014314Y033883D03*
D788*
X009465Y030611D03*
D789*
X016757Y030635D03*
X016757Y031862D03*
X016757Y031910D03*
X016757Y032343D03*
X016757Y032391D03*
X016757Y032440D03*
X016757Y033522D03*
X016757Y033571D03*
X016757Y033619D03*
X016757Y033667D03*
X016757Y033715D03*
X016757Y033763D03*
D790*
X016697Y030899D03*
X014892Y030635D03*
D791*
X014134Y030635D03*
D792*
X009465Y030635D03*
D793*
X009429Y031020D03*
X009429Y031116D03*
X009044Y031116D03*
X009044Y031068D03*
X009044Y031020D03*
X011571Y030923D03*
X012654Y031020D03*
X012654Y031068D03*
X012894Y031116D03*
X012894Y031020D03*
X012894Y030972D03*
X013544Y031116D03*
X013761Y033643D03*
X014314Y033595D03*
X014916Y033595D03*
X016167Y033787D03*
X016264Y030659D03*
D794*
X015662Y030659D03*
D795*
X014892Y030659D03*
D796*
X014134Y030659D03*
D797*
X013051Y030659D03*
D798*
X012870Y030923D03*
X011956Y030659D03*
X011787Y031068D03*
X011787Y031116D03*
X010344Y031116D03*
X010344Y031068D03*
X010344Y031020D03*
X010344Y030972D03*
X010344Y030923D03*
X009718Y031116D03*
X014314Y033546D03*
X014916Y033546D03*
X015205Y033691D03*
X016167Y033835D03*
X016167Y033883D03*
X015951Y030923D03*
X015421Y030923D03*
X014796Y031116D03*
D799*
X009477Y030659D03*
D800*
X016733Y030683D03*
X016733Y031092D03*
D801*
X016264Y030683D03*
X015301Y031910D03*
X013737Y030899D03*
X011787Y031044D03*
X011787Y031092D03*
X011787Y031140D03*
X011571Y030899D03*
X010344Y030947D03*
X010344Y030996D03*
X010344Y031044D03*
X010344Y031092D03*
X010344Y031140D03*
X009718Y031140D03*
X009718Y031092D03*
X009237Y030899D03*
X014074Y033715D03*
X014314Y033571D03*
X014555Y033715D03*
X014916Y033571D03*
X015493Y033571D03*
X016167Y033859D03*
D802*
X015686Y030683D03*
D803*
X014892Y030683D03*
X014314Y033763D03*
X014314Y033811D03*
X014314Y033859D03*
D804*
X014025Y030683D03*
X013039Y030683D03*
D805*
X011968Y030683D03*
X011294Y030899D03*
X010356Y030899D03*
X009730Y030996D03*
X009730Y031044D03*
X014808Y031044D03*
X014808Y031092D03*
X015409Y030899D03*
X015963Y030899D03*
X015481Y033522D03*
X014904Y033522D03*
D806*
X009477Y030683D03*
D807*
X012100Y030707D03*
X012100Y030779D03*
X012100Y030827D03*
X012100Y030875D03*
X012100Y032825D03*
X012100Y032873D03*
D808*
X012100Y032897D03*
X012100Y032849D03*
X012100Y030851D03*
X012100Y030803D03*
X012100Y030755D03*
X012100Y030731D03*
D809*
X012100Y030899D03*
X007384Y032680D03*
X007384Y033041D03*
D810*
X007745Y030899D03*
D811*
X016709Y030923D03*
X016709Y030972D03*
D812*
X007745Y030923D03*
D813*
X016709Y030947D03*
D814*
X012136Y030947D03*
D815*
X007733Y030947D03*
X007733Y030996D03*
X007733Y031044D03*
X007733Y031092D03*
X007733Y031140D03*
D816*
X013496Y033643D03*
X015951Y030972D03*
D817*
X016203Y031838D03*
X013460Y031068D03*
X010717Y031068D03*
X010717Y031116D03*
X010717Y031020D03*
X010717Y030972D03*
D818*
X007733Y030972D03*
X007733Y031020D03*
X007733Y031068D03*
X007733Y031116D03*
D819*
X016721Y031044D03*
X016721Y030996D03*
D820*
X015951Y030996D03*
X014579Y033667D03*
X013496Y033715D03*
D821*
X012148Y031044D03*
X012148Y030996D03*
X016215Y031862D03*
D822*
X013460Y031092D03*
X013460Y031044D03*
X010717Y031044D03*
X010717Y031092D03*
X010717Y031140D03*
X010717Y030996D03*
X007396Y033907D03*
D823*
X016721Y031020D03*
D824*
X016227Y031020D03*
X016227Y031068D03*
X015144Y031020D03*
X016348Y033546D03*
X016348Y033595D03*
X008839Y031068D03*
X008839Y031020D03*
D825*
X014435Y031020D03*
D826*
X014892Y031838D03*
X012148Y031068D03*
X012148Y031020D03*
D827*
X012136Y031092D03*
X009369Y031092D03*
X009369Y031044D03*
X014904Y031862D03*
X015313Y031862D03*
D828*
X016733Y032512D03*
X016733Y031116D03*
X016733Y031068D03*
X007468Y032921D03*
D829*
X011198Y031116D03*
X013749Y031068D03*
X015024Y031068D03*
X015578Y031068D03*
X015794Y031068D03*
X016107Y031068D03*
X016179Y033546D03*
X015987Y033595D03*
X015987Y033643D03*
D830*
X016745Y032488D03*
X016745Y031140D03*
D831*
X016745Y031164D03*
X016745Y031212D03*
D832*
X015975Y032127D03*
X015614Y032127D03*
X015614Y032175D03*
X015108Y032271D03*
X014555Y033258D03*
X014916Y033402D03*
X015493Y033402D03*
X014074Y033258D03*
X011787Y031308D03*
X011787Y031260D03*
X011787Y031212D03*
X011787Y031164D03*
X010801Y031357D03*
X010344Y031260D03*
X010344Y031212D03*
X010344Y031164D03*
D833*
X010717Y031164D03*
X010717Y031212D03*
X010717Y031260D03*
X007396Y033932D03*
D834*
X007745Y031164D03*
D835*
X016745Y031188D03*
D836*
X015951Y031188D03*
X015108Y032006D03*
X014796Y033282D03*
X014916Y033330D03*
X011378Y031188D03*
D837*
X012148Y031188D03*
X012148Y031236D03*
X012148Y031284D03*
X014074Y033234D03*
X009237Y031236D03*
D838*
X010344Y031236D03*
X010344Y031188D03*
X011787Y031188D03*
X011787Y031236D03*
X011787Y031284D03*
X011787Y031333D03*
X012509Y031236D03*
X014074Y031236D03*
X015590Y031958D03*
X015614Y032151D03*
X015975Y032151D03*
X016312Y033234D03*
X015205Y033282D03*
X014916Y033426D03*
D839*
X014543Y033234D03*
X010717Y031236D03*
X010717Y031188D03*
X007396Y033956D03*
D840*
X009706Y031188D03*
X014856Y031958D03*
D841*
X007745Y031188D03*
D842*
X007757Y031212D03*
D843*
X016733Y031236D03*
X016733Y033234D03*
D844*
X015349Y032054D03*
X015253Y031236D03*
X016336Y031236D03*
X011258Y031284D03*
D845*
X009670Y031236D03*
X007432Y034004D03*
X014723Y031236D03*
D846*
X013737Y031236D03*
D847*
X015096Y032295D03*
X014904Y033474D03*
X015481Y033474D03*
X015481Y033426D03*
X008888Y031236D03*
D848*
X007781Y031236D03*
D849*
X015650Y031260D03*
X015650Y031308D03*
D850*
X013737Y031308D03*
X013737Y031260D03*
D851*
X012798Y031260D03*
X012798Y031308D03*
D852*
X008515Y031260D03*
D853*
X015650Y031284D03*
X015650Y031333D03*
D854*
X013737Y031333D03*
X013737Y031284D03*
D855*
X012798Y031284D03*
X012798Y031333D03*
D856*
X008527Y031284D03*
D857*
X011258Y031308D03*
X013496Y033258D03*
X013496Y033354D03*
X014579Y033306D03*
X015927Y032175D03*
X015951Y032079D03*
D858*
X008539Y031308D03*
D859*
X008551Y031333D03*
D860*
X015638Y031357D03*
D861*
X013737Y031357D03*
D862*
X012810Y031357D03*
D863*
X011799Y031357D03*
X014904Y033450D03*
X014904Y033498D03*
X015481Y033498D03*
X015481Y033450D03*
D864*
X008575Y031357D03*
D865*
X012100Y031381D03*
X012100Y031429D03*
X012100Y031477D03*
X012100Y031525D03*
D866*
X012100Y031501D03*
X012100Y031549D03*
X012100Y031453D03*
X012100Y031405D03*
D867*
X015120Y031573D03*
D868*
X007492Y031573D03*
D869*
X015169Y031597D03*
X015169Y032776D03*
X015169Y032969D03*
D870*
X007444Y031597D03*
D871*
X015193Y031621D03*
X015193Y032752D03*
D872*
X015205Y033065D03*
X015205Y031645D03*
D873*
X007408Y031645D03*
D874*
X015217Y031669D03*
X015217Y033089D03*
D875*
X013628Y033522D03*
X013628Y033571D03*
X013628Y033763D03*
X013628Y033811D03*
X013628Y033859D03*
X007396Y032728D03*
X007396Y031669D03*
D876*
X015229Y031693D03*
X015229Y032656D03*
D877*
X007384Y031693D03*
D878*
X015229Y031718D03*
X015229Y032680D03*
D879*
X007372Y032632D03*
X007372Y032584D03*
X007372Y031814D03*
X007372Y031766D03*
X007372Y031718D03*
X007372Y033089D03*
X007372Y033522D03*
X007372Y033571D03*
X007372Y033619D03*
X007372Y033667D03*
X007372Y033715D03*
X007372Y033763D03*
D880*
X015241Y032608D03*
X015241Y032560D03*
X015241Y031790D03*
X015241Y031742D03*
D881*
X007372Y031742D03*
X007372Y031790D03*
X007372Y032608D03*
X007372Y032656D03*
X007372Y033065D03*
X007372Y033546D03*
X007372Y033595D03*
X007372Y033643D03*
X007372Y033691D03*
X007372Y033739D03*
D882*
X015241Y032632D03*
X015241Y032584D03*
X015241Y032536D03*
X015241Y031814D03*
X015241Y031766D03*
D883*
X016745Y031838D03*
D884*
X015830Y031838D03*
D885*
X015325Y031838D03*
X007384Y033787D03*
X007384Y033835D03*
X007384Y033883D03*
D886*
X014062Y031838D03*
D887*
X014050Y031862D03*
X014050Y031910D03*
D888*
X014892Y031886D03*
X016215Y031886D03*
D889*
X014050Y031886D03*
D890*
X016757Y031934D03*
X016757Y031982D03*
X016757Y032030D03*
X016757Y032079D03*
X016757Y032127D03*
X016757Y032175D03*
X016757Y032223D03*
X016757Y032271D03*
X016757Y032319D03*
X016757Y033258D03*
X016757Y033306D03*
X016757Y033354D03*
X016757Y033402D03*
X016757Y033450D03*
X016757Y033498D03*
D891*
X014050Y032271D03*
X014050Y032223D03*
X014050Y031934D03*
D892*
X016757Y031958D03*
X016757Y032006D03*
X016757Y032054D03*
X016757Y032103D03*
X016757Y032151D03*
X016757Y032199D03*
X016757Y032247D03*
X016757Y032295D03*
X016757Y033282D03*
X016757Y033330D03*
X016757Y033378D03*
X016757Y033426D03*
X016757Y033474D03*
D893*
X014074Y032199D03*
X014074Y031958D03*
D894*
X015830Y032319D03*
X016239Y031982D03*
D895*
X014218Y031982D03*
X014218Y032030D03*
D896*
X014218Y032006D03*
D897*
X014206Y032054D03*
D898*
X014206Y032079D03*
D899*
X014194Y032103D03*
X014194Y032151D03*
D900*
X014194Y032127D03*
D901*
X014182Y032175D03*
D902*
X014050Y032247D03*
X014050Y032295D03*
D903*
X014062Y032319D03*
D904*
X014699Y032343D03*
X014699Y032391D03*
D905*
X014699Y032367D03*
D906*
X014711Y032415D03*
D907*
X014723Y032440D03*
D908*
X014723Y032464D03*
D909*
X014747Y032488D03*
D910*
X014796Y032512D03*
D911*
X015217Y032704D03*
D912*
X015217Y033739D03*
X013628Y033787D03*
X013628Y033835D03*
X013628Y033883D03*
X013628Y033595D03*
X013628Y033546D03*
X007396Y033017D03*
X007396Y032704D03*
D913*
X015205Y032728D03*
X015205Y033041D03*
D914*
X015132Y032800D03*
D915*
X007480Y032800D03*
D916*
X015108Y032921D03*
D917*
X015157Y032945D03*
D918*
X015181Y032993D03*
D919*
X013640Y033907D03*
X007408Y032993D03*
D920*
X015193Y033017D03*
D921*
X015217Y033113D03*
X015217Y033161D03*
X015217Y033210D03*
X015144Y034028D03*
D922*
X015217Y033186D03*
X015217Y033137D03*
D923*
X015722Y033234D03*
D924*
X015217Y033234D03*
X013628Y033378D03*
X013628Y033426D03*
X013628Y033474D03*
X007516Y034100D03*
D925*
X015205Y033258D03*
D926*
X013628Y033402D03*
X013628Y033450D03*
X013628Y033498D03*
D927*
X015313Y033763D03*
X015313Y033811D03*
X015313Y033859D03*
D928*
X015313Y033835D03*
X015313Y033787D03*
X015313Y033883D03*
D929*
X007384Y033859D03*
X007384Y033811D03*
D930*
X015325Y033907D03*
D931*
X014326Y033907D03*
D932*
X015854Y033932D03*
D933*
X014062Y033932D03*
D934*
X015157Y034004D03*
X015181Y033956D03*
D935*
X015181Y033980D03*
D936*
X007432Y034028D03*
X007408Y033980D03*
D937*
X015132Y034052D03*
D938*
X015108Y034076D03*
D939*
X015060Y034100D03*
D940*
X012100Y034124D03*
D941*
X012100Y034148D03*
D942*
X012100Y034172D03*
D943*
X012100Y034196D03*
D944*
X012100Y034268D03*
D945*
X012100Y034292D03*
D946*
X012100Y034317D03*
D947*
X012100Y034341D03*
D948*
X012100Y034365D03*
D949*
X012100Y034389D03*
D950*
X012100Y034413D03*
D951*
X012100Y034437D03*
D952*
X012100Y034461D03*
D953*
X012100Y034485D03*
D954*
X012100Y034509D03*
D955*
X012100Y034533D03*
D956*
X012100Y034557D03*
D957*
X012100Y034581D03*
D958*
X012100Y034605D03*
M02*
