%
M48
M72
T01C0.0236
T02C0.0748
T03C0.0787
T04C0.1260
%
T01
X15260Y3393
X15760Y3893
X15260Y4393
X16260Y4393
X16760Y3893
X17260Y3393
X17260Y4393
X16260Y3393
X26760Y3393
X27260Y3893
X27760Y3393
X28260Y3893
X28760Y3393
X28760Y4393
X27760Y4393
X26760Y4393
T02
X19635Y4393
X19635Y3518
T03
X14510Y3893
X29510Y3893
X22445Y22578
T04
X3760Y3893
X41260Y3893
X41260Y41393
X3760Y41393
M30
